<?xml version="1.0" encoding="UTF-8" standalone="no"?>
<!-- Created with Inkscape (http://www.inkscape.org/) -->

<svg
   xmlns:dc="http://purl.org/dc/elements/1.1/"
   xmlns:cc="http://creativecommons.org/ns#"
   xmlns:rdf="http://www.w3.org/1999/02/22-rdf-syntax-ns#"
   xmlns:svg="http://www.w3.org/2000/svg"
   xmlns="http://www.w3.org/2000/svg"
   xmlns:sodipodi="http://sodipodi.sourceforge.net/DTD/sodipodi-0.dtd"
   xmlns:inkscape="http://www.inkscape.org/namespaces/inkscape"
   id="svg2"
   version="1.1"
   inkscape:version="0.91 r13725"
   width="16"
   height="16"
   viewBox="0 0 16 16"
   sodipodi:docname="atributo.svg">
  <metadata
     id="metadata8">
    <rdf:RDF>
      <cc:Work
         rdf:about="">
        <dc:format>image/svg+xml</dc:format>
        <dc:type
           rdf:resource="http://purl.org/dc/dcmitype/StillImage" />
        <dc:title></dc:title>
      </cc:Work>
    </rdf:RDF>
  </metadata>
  <defs
     id="defs6" />
  <sodipodi:namedview
     pagecolor="#ffffff"
     bordercolor="#666666"
     borderopacity="1"
     objecttolerance="10"
     gridtolerance="10"
     guidetolerance="10"
     inkscape:pageopacity="0"
     inkscape:pageshadow="2"
     inkscape:window-width="1920"
     inkscape:window-height="1003"
     id="namedview4"
     showgrid="false"
     fit-margin-top="0"
     fit-margin-left="0"
     fit-margin-right="0"
     fit-margin-bottom="0"
     inkscape:zoom="3.5113194"
     inkscape:cx="11.04773"
     inkscape:cy="4.4741896"
     inkscape:window-x="0"
     inkscape:window-y="25"
     inkscape:window-maximized="1"
     inkscape:current-layer="svg2" />
  <g
     id="g4138"
     transform="matrix(0.07113194,0,0,0.07113286,-0.00468608,0.00145067)">
    <path
       style="fill:#f2c7b7"
       d="M 91.437789,223.52265 C 80.393527,222.01489 74.114314,220.03368 62.915555,214.52334 36.641375,201.59516 17.552736,180.86683 6.642726,153.41675 -2.1968103,131.17608 -2.1150195,93.780505 6.822684,71.138185 21.475658,34.01709 55.423226,6.3242271 92.225853,1.4702115 133.18539,-3.9320724 164.5255,5.2685211 190.77605,30.401841 214.23257,52.860036 225,78.528307 225,111.98765 c 0,33.95349 -9.55631,57.68901 -32.43983,80.57252 -13.60069,13.6007 -26.16012,21.56339 -43.56017,27.61719 -12.60423,4.38525 -38.79508,5.90736 -57.562211,3.34529 z M 142.50134,141.99866 163.48482,120.99732 133.49866,90.998659 103.5125,61 93.521898,61 83.531294,61 72.265647,72.233688 61,83.467376 61,93.477539 61,103.4877 90.74375,133.24385 C 107.10281,149.60973 120.71933,163 121.00268,163 c 0.28335,0 9.95775,-9.4506 21.49866,-21.00134 z M 85.888053,99.554517 c -5.741103,-3.239273 -6.121267,-11.497604 -0.73781,-16.027485 3.402913,-2.863362 6.668223,-3.189387 10.758563,-1.07419 5.340504,2.761684 6.579874,11.98496 2.149252,15.994616 -2.60354,2.356172 -8.935319,2.932152 -12.170005,1.107059 z"
       id="path4152"
       inkscape:connector-curvature="0" />
    <path
       style="fill:#f0ac95"
       d="M 93.835499,223.45658 C 48.306021,216.36424 11.925085,180.78604 1.8492698,133.5 0.21178117,125.81523 0.22673896,99.372363 1.8730277,91.5 13.085186,37.884756 58.665808,0.04738472 112.091,0.00589511 167.83038,-0.03739168 215.77497,40.618788 223.525,94.5 c 6.54894,45.53075 -11.67369,87.16036 -49.0425,112.03759 -23.14187,15.40605 -51.78457,21.41502 -80.647001,16.91899 z M 142.74147,142.75872 C 154.43366,131.07602 164,121.05349 164,120.48644 164,119.91939 150.59518,106.07797 134.2115,89.727722 L 104.42301,60 93.976524,60 83.530039,60 71.76502,71.734368 60,83.468736 l 0,10.445559 0,10.445555 29.712551,29.82008 C 106.05445,150.58097 119.88812,164 120.45403,164 c 0.5659,0 10.59525,-9.55858 22.28744,-21.24128 z M 84.923077,97.076923 C 82.92808,95.081926 82,93.152497 82,91 c 0,-4.301907 4.698093,-9 9,-9 3.937019,0 9,4.711961 9,8.376024 0,8.699033 -9.054528,12.723296 -15.076923,6.700899 z"
       id="path4150"
       inkscape:connector-curvature="0" />
    <path
       style="fill:#f28c6b"
       d="M 101,224.34007 C 99.075,224.07618 92.951914,222.79135 87.393141,221.4849 48.544258,212.35447 17.771342,183.79941 6.1588127,146.10529 1.3757604,130.57956 0.49798649,125.25805 0.53320225,112 0.60188037,86.144028 10.099508,60.881955 27.683169,39.78571 42.584743,21.907336 63.024969,9.5184912 88,3.2276078 101.88655,-0.27023228 122.65946,-0.44226369 136.12696,2.8290431 152.92487,6.9093165 166.90327,13.3259 179.53292,22.753921 202.10877,39.606764 216.59438,62.799662 223.09429,92.5 c 1.70282,7.78074 1.70282,32.21926 0,40 -10.30377,47.08145 -42.17392,79.49234 -88.47246,89.97356 -7.05228,1.59652 -27.36539,2.7242 -33.62183,1.86651 z m 42.19801,-81.06002 C 155.1891,131.33408 165,121.0818 165,120.4972 165,119.91261 151.35826,105.83658 134.68501,89.217151 L 104.37003,59 93.979132,59 83.588235,59 71.294118,71.294118 59,83.588235 l 0,9.882904 0,9.882901 21.391943,21.57298 c 11.765569,11.86514 25.421547,25.73548 30.346617,30.82298 4.92508,5.0875 9.33781,9.25 9.80607,9.25 0.46826,0 10.66228,-9.77398 22.65338,-21.71995 z M 85.174314,96.685549 C 80.208159,91.399319 83.869602,83 91.140137,83 98.042432,83 101.8657,92.1343 97,97 94.137911,99.862089 88.005323,99.69902 85.174314,96.685549 Z"
       id="path4148"
       inkscape:connector-curvature="0" />
    <path
       style="fill:#f47349"
       d="m 102.02183,224.31355 c -3.012996,-0.23864 -5.712996,-0.76686 -6.000002,-1.17382 -0.287005,-0.40695 -4.020609,-1.48558 -8.296897,-2.39695 -9.947061,-2.11994 -23.082373,-7.48119 -33.092372,-13.50686 -9.219315,-5.5497 -23.444262,-18.56789 -30.65049,-28.0503 C 13.982421,166.02746 5.1234134,144.75442 3.3592708,129.6643 2.8208682,125.05892 2.4783935,124.13224 2.005051,126 1.0158452,129.90331 0.17818185,111.48958 0.98149815,103.5 1.3685982,99.65 1.7965018,97.4 1.9323951,98.5 2.0682884,99.6 2.8027779,97.055679 3.5645939,92.845953 8.5728563,65.170755 24.36371,39.943472 47.430442,22.766389 59.779036,13.570771 78.308914,5.4258546 91.319153,3.4748487 93.893619,3.0887838 96,2.4277601 96,2.0059073 96,0.75150155 116.01192,-0.0746051 122.5,0.91196783 156.42495,6.07057 182.83996,20.977552 201.48687,45.487221 c 18.51175,24.332018 27.13634,58.617589 21.3851,85.012779 -2.08762,9.58108 -6.09124,22.04897 -9.36373,29.1601 -13.47307,29.277 -42.19676,53.11703 -72.78596,60.41074 -4.52225,1.07829 -9.57228,2.37929 -11.22228,2.89111 -3.67243,1.13916 -20.01263,1.94291 -27.47817,1.3516 z M 144.75,142.76899 C 156.4375,131.01257 166,120.97033 166,120.45289 166,119.93546 152.39027,105.89688 135.75615,89.25605 L 105.5123,59 94.021168,59 82.530039,59 70.76502,70.734368 59,82.468736 59.046442,93.484368 59.092885,104.5 89.40798,135.35929 c 26.44801,26.92278 30.55599,30.72698 32.20356,29.82215 1.03865,-0.57043 11.45096,-10.65603 23.13846,-22.41245 z M 87.850707,97.871288 c -3.778507,-1.38461 -5.677352,-6.307824 -3.754311,-9.73396 0.798998,-1.423515 2.679172,-3.27426 4.178164,-4.112768 2.444137,-1.367204 3.009278,-1.36599 5.47544,0.01177 3.95547,2.209781 5.743879,6.357131 4.272785,9.908664 -0.636879,1.537564 -2.273721,3.303944 -3.637427,3.925289 -2.853154,1.299985 -2.989776,1.300006 -6.534651,0.001 z"
       id="path4146"
       inkscape:connector-curvature="0" />
    <path
       style="fill:#f36d42"
       d="m 103,224.04871 c -4.66273,-0.42797 -6.175941,-0.80268 -4,-0.99049 2.89194,-0.24962 2.45761,-0.45089 -2.5,-1.15852 -6.574937,-0.93848 -19.80056,-4.81366 -27.084422,-7.93589 -4.121336,-1.76661 -4.487537,-2.17302 -3.277648,-3.63751 1.224651,-1.48236 1.0594,-1.59052 -1.63793,-1.07205 -2.04449,0.39298 -4.194387,-0.0921 -6.75,-1.52295 C 53.851783,205.54873 52.917887,204 55.5,204 c 2.121415,0 1.87617,-1.99316 -0.25,-2.0318 -0.9625,-0.0175 -2.623463,-0.69246 -3.691029,-1.49993 C 50.346413,199.55114 49.386028,199.37539 49,200 c -0.390904,0.6325 -1.301389,0.5001 -2.478112,-0.36034 -1.799398,-1.31575 -1.78929,-1.43626 0.309401,-3.68895 1.193264,-1.28081 2.056877,-2.98451 1.919141,-3.78599 -0.380649,-2.21497 1.793947,-2.47643 3.82056,-0.45936 1.737028,1.72885 1.722953,1.80636 -0.383928,2.11419 C 49.31441,194.23927 49.14613,198 52,198 c 1.316348,0 2,-0.66667 2,-1.95031 0,-1.07267 0.7875,-2.42279 1.75,-3.00027 1.560478,-0.93625 1.316866,-1.40189 -2.249458,-4.29969 -2.199703,-1.78735 -4.899703,-4.18792 -6,-5.3346 C 42.049306,177.73412 37,171.9539 37,171.39457 37,171.05049 35.053025,167.78345 32.673389,164.13448 27.29925,155.89371 21.664755,142.00985 19.460515,131.57688 17.098203,120.39573 17.813604,98.608622 20.907822,87.5 22.133407,83.1 24.026275,77.475 25.114195,75 28.488564,67.323367 38.039588,51.198786 39.557257,50.616402 40.350766,50.311904 41.017334,49.261146 41.03852,48.281385 41.059706,47.301623 42.479882,45.6 44.194466,44.5 c 2.407317,-1.544426 3.427852,-3.2308 4.480215,-7.403291 0.749534,-2.97181 1.133512,-6.34681 0.853285,-7.5 C 49.247739,28.443519 49.276808,28.0625 49.592564,28.75 49.908321,29.4375 51.029167,30 52.083333,30 53.448754,30 54,29.297957 54,27.559017 54,26.216476 54.45,24.839919 55,24.5 c 0.55,-0.339919 1,-1.278032 1,-2.084697 0,-1.266549 -0.413787,-1.252686 -3.032696,0.101605 -1.667983,0.862547 -2.769611,1.993949 -2.448062,2.514226 0.321548,0.520276 -0.08532,0.68887 -0.904162,0.374653 -0.818837,-0.314218 -1.285019,-1.102336 -1.03596,-1.751374 0.730983,-1.904913 12.496736,-8.839282 14.011571,-8.257985 0.761924,0.292378 1.278215,0.08396 1.147313,-0.463157 C 63.127022,12.37963 90.060329,3.1559838 98.788725,2.9297147 101.20325,2.8671222 101.2811,2.7653651 99.5,2 98.058111,1.3803989 99.31386,1.0645848 104,0.86827437 c 3.575,-0.14976289 7.85,-0.18684848 9.5,-0.0824124 1.65,0.10443605 5.7,0.23186233 9,0.28316963 4.26132,0.066253 5.27555,0.3055458 3.5,0.8257702 -1.98031,0.5802195 -1.25275,0.866685 3.5,1.3780703 24.02688,2.5852365 51.8941,18.0861919 68.12915,37.8963889 11.31049,13.80119 19.78344,30.916443 23.16523,46.793457 0.88299,4.145505 2.04048,7.835192 2.57219,8.199305 1.31354,0.899492 1.26158,30.355917 -0.0565,32.034697 -0.5628,0.7168 -1.576,4.19488 -2.25157,7.72906 -4.66195,24.38872 -20.42678,49.17114 -41.0362,64.50918 -15.25203,11.35094 -34.11656,19.38335 -49.87167,21.23505 -4.06831,0.47815 -5.04434,0.86242 -3.61251,1.42229 1.3751,0.53769 0.58295,0.78815 -2.64854,0.83741 -2.53573,0.0387 -6.58573,0.23614 -9,0.43885 -2.41426,0.2027 -7.76457,0.0588 -11.88957,-0.31985 z M 49,198 c 0,-0.55 -0.45,-1 -1,-1 -0.55,0 -1,0.45 -1,1 0,0.55 0.45,1 1,1 0.55,0 1,-0.45 1,-1 z m 116.93507,-11.05506 c 2.73081,-1.68029 5.24256,-3.92924 5.58167,-4.99768 0.33911,-1.06844 1.71655,-2.21869 3.06099,-2.55612 1.34444,-0.33744 3.43353,-2.02598 4.64243,-3.75233 1.2089,-1.72634 3.00625,-3.72846 3.99411,-4.44915 3.14735,-2.29613 13.0248,-18.25434 15.93071,-25.73801 5.51316,-14.19815 7.29796,-34.47381 4.44304,-50.473864 C 201.15586,81.346984 193.48932,65.024614 185.47891,56.422781 183.01551,53.777499 181,51.334404 181,50.99368 c 0,-1.021083 -5.25589,-5.532408 -9,-7.725032 -2.36928,-1.387496 -4.54996,-1.886841 -6.75,-1.545659 l -3.25,0.50401 0,30.3865 C 162,102.33333 161.95612,103 160,103 c -1.16333,0 -2,0.66667 -2,1.59362 0,0.87649 0.9,1.82897 2,2.11663 2.78748,0.72894 2.49541,1.76104 -0.54812,1.93692 -2.75716,0.15932 -2.71495,0.19767 -36.06075,-32.752924 L 105.28225,58 93.935243,58 82.588235,58 70.294118,70.294118 58,82.588235 l 0,10.848454 0,10.848451 30.25,30.60743 c 16.6375,16.83409 30.87619,30.76519 31.64154,30.95801 0.76629,0.19306 11.83865,-10.08944 24.64268,-22.88478 21.02732,-21.01304 23.35272,-23.04558 24.31309,-21.25111 0.8227,1.53723 0.60736,2.83239 -0.95585,5.749 -1.10978,2.07061 -1.77165,4.40614 -1.47083,5.19006 0.99304,2.58784 -1.66988,5.34625 -5.16118,5.34625 -3.75141,0 -4.08931,0.93901 -1.25945,3.5 1.8682,1.6907 2,3.07997 2,21.08166 0,17.23147 0.17736,19.30592 1.67534,19.59502 1.34353,0.25929 1.04646,0.91682 -1.5,3.32007 -5.64724,5.32963 -3.74145,6.06371 3.75973,1.44819 z M 166,176.56485 c 0,-2.33259 0.1933,-2.46108 2.00261,-1.33115 2.28175,1.42498 2.12403,3.11263 -0.33548,3.58962 C 166.45795,179.05783 166,178.43744 166,176.56485 Z m -2.30428,-61.36057 c -2.0902,-2.18169 -2.42367,-3.07633 -1.49341,-4.00659 1.4818,-1.4818 4.15971,-1.59247 3.25875,-0.13468 -0.36134,0.58466 0.14147,1.94529 1.11735,3.02363 3.00376,3.31912 0.24951,4.38696 -2.88269,1.11764 z M 85.944117,96.155832 c -2.810837,-2.276077 -3.03622,-7.29159 -0.455796,-10.142927 2.603903,-2.87728 8.876905,-2.757259 10.954975,0.209601 5.135664,7.332193 -3.556084,15.555504 -10.499179,9.933326 z M 166.01531,48.25 C 166.00689,47.0125 166.45,46 167,46 c 1.25292,0 1.25292,1.061241 0,3 -0.78387,1.212959 -0.9723,1.069438 -0.98469,-0.75 z M 162.8,38.8 c 1.74938,-1.749381 1.47135,-2.8 -0.74098,-2.8 -2.19765,0 -3.48232,1.506062 -2.55902,3 0.8183,1.324032 1.83775,1.262247 3.3,-0.2 z M 58,33 c 0,-0.55 -0.45,-1 -1,-1 -0.55,0 -1,0.45 -1,1 0,0.55 0.45,1 1,1 0.55,0 1,-0.45 1,-1 z M 42.020056,193.47583 c 0.69572,-0.83829 1.470881,-1.31823 1.72258,-1.06653 0.693498,0.6935 -0.715543,2.5907 -1.924098,2.5907 -0.663093,0 -0.587231,-0.57378 0.201518,-1.52417 z M 1.1578947,122 c 0,-1.375 0.2269737,-1.9375 0.504386,-1.25 0.2774123,0.6875 0.2774123,1.8125 0,2.5 -0.2774123,0.6875 -0.504386,0.125 -0.504386,-1.25 z m 0,-20 c 0,-1.375 0.2269737,-1.9375 0.504386,-1.25 0.2774123,0.6875 0.2774123,1.8125 0,2.5 -0.2774123,0.6875 -0.504386,0.125 -0.504386,-1.25 z M 42.505548,27.993869 c 2.040177,-2.25437 2.855921,-2.099416 1.911002,0.363003 C 44.06976,29.260592 43.089423,30 42.238024,30 c -1.30843,0 -1.267027,-0.31047 0.267524,-2.006131 z"
       id="path4144"
       inkscape:connector-curvature="0" />
    <path
       style="fill:#f26538"
       d="m 102,223 c 5.84512,-0.58883 6.03403,-0.67219 1.875,-0.8274 C 97.700326,221.94217 93,220.94911 93,219.875 93,219.39375 93.748791,219 94.66398,219 c 2.960281,0 9.30503,-3.327 9.89607,-5.18921 1.02073,-3.21602 -0.47664,-5.80791 -3.37744,-5.84623 C 99.707176,207.94508 97.375,207.28602 96,206.5 94.625,205.71398 92.289058,205.05492 90.809017,205.03544 89.328976,205.01595 87.839919,204.55 87.5,204 87.160081,203.45 85.985393,203 84.889582,203 81.239532,203 61.347727,191.89064 52.929364,185.15056 25.312826,163.03964 12.441065,124.47933 21.290813,90.370021 27.008314,68.333235 37.114069,52.497368 53.95542,39.1841 63.668709,31.505641 69.829453,27.860034 78.95843,24.388623 c 3.552137,-1.350746 7.152137,-3.06702 8,-3.813944 C 87.806294,19.827756 90.3,18.96016 92.5,18.646688 105.03493,16.860623 105.11899,16.789732 104.53095,8.5 104.30389,5.2991056 103.8223,4.4360748 102.1203,4.1800165 100.9505,4.0040255 98.789191,4.807262 97.317383,5.9649864 94.92992,7.8429654 94.478422,7.9069934 93.130208,6.5587795 92.29907,5.7276412 91.886166,4.7805002 92.212645,4.4540217 c 0.326478,-0.3264785 4.117232,-0.8600892 8.423895,-1.1858015 4.45809,-0.3371643 8.40653,-1.1684336 9.16831,-1.9302122 1.68722,-1.68722463 2.70336,-1.68694364 4.39152,0.00121 0.82929,0.8292913 4.94972,1.5647018 10.82142,1.9313946 C 161.98926,5.579514 200.05007,33.711794 214.64928,69.520867 218.05264,77.868673 222,91.668625 222,95.21898 c 0,1.044479 0.38416,1.661631 0.85368,1.371448 0.46953,-0.290183 1.11645,3.195733 1.4376,7.746482 0.65079,9.22183 -0.17521,23.85286 -1.30713,23.15329 -0.40235,-0.24866 -1.03861,1.86272 -1.41393,4.69196 -0.93473,7.04639 -5.85379,21.96052 -9.83467,29.81784 -16.97022,33.49519 -51.5151,57.18858 -87.23555,59.83249 l -9,0.66615 6.5,0.57808 c 3.86096,0.34338 -0.1991,0.57808 -10,0.57808 -11.15214,0 -14.393268,-0.21223 -10,-0.6548 z m 42,-22.50592 c 6.73063,-2.08925 11.15411,-4.3689 20.5459,-10.58841 19.94811,-13.21019 32.31689,-30.89476 39.10104,-55.90567 2.56924,-9.47194 2.54445,-33.76789 -0.0449,-44 -2.3816,-9.411217 -8.16905,-22.10904 -13.786,-30.246908 C 184.29005,51.747023 172.97688,40.411476 165.40771,35.296497 157.04068,29.642344 143.25181,24 137.80113,24 c -1.40629,0 -4.09832,-0.644053 -5.98229,-1.431228 -2.03576,-0.850592 -5.02656,-1.216288 -7.37213,-0.901414 l -3.94671,0.529814 0,22.818632 c 0,12.550248 -0.35908,23.177468 -0.79796,23.616045 -1.24334,1.242472 -4.23999,-1.192451 -3.87702,-3.150265 0.22132,-1.193843 -0.14122,-1.574223 -1.13643,-1.192326 -0.85726,0.328962 -3.0587,-0.956061 -5.32502,-3.108321 L 105.5,57.511808 94,57.783453 82.5,58.055098 70.25,70.262543 58,82.469988 l 0,10.903175 0,10.903177 4.16153,4.61183 C 68.885467,116.33967 119.15994,167 119.83076,167 c 0.33724,0 10.7732,-10.125 23.19102,-22.5 12.41781,-12.375 23.11792,-22.5 23.77803,-22.5 0.6601,0 1.20019,0.95861 1.20019,2.13024 0,1.36922 -4.37631,6.64997 -12.25,14.78167 -6.7375,6.95829 -15.7786,16.35584 -20.09134,20.88346 -8.50255,8.92618 -10.67538,10.51918 -13.08622,9.59406 -1.38123,-0.53003 -1.57378,1.0208 -1.58345,12.75358 -0.006,7.34635 -0.30047,15.10944 -0.65426,17.25132 l -0.64326,3.89432 9.40427,-0.54366 C 134.26808,202.44597 140.975,201.43306 144,200.49408 Z M 87.25,96.500915 C 84.457818,95.294377 84,94.596713 84,91.548274 84,87.16289 86.903222,84 90.928571,84 c 4.650006,0 6.865296,3.262437 6.111264,9 -0.501182,3.81358 -5.187758,5.489533 -9.789835,3.500915 z m 36.07189,-21.834448 -2.17812,-2.29898 2.92812,0.429756 C 126.12274,73.098244 127,73.792192 127,75.113499 c 0,2.481968 -1.02063,2.357922 -3.67811,-0.447032 z M 100.26903,1.3070093 c 0.97297,-0.2535434 2.32297,-0.2368691 3,0.037054 C 103.94606,1.6179864 103.15,1.825431 101.5,1.8050513 99.85,1.7846716 99.296064,1.5605527 100.26903,1.3070093 Z M 121.75,1.294267 c 1.2375,-0.2383529 3.2625,-0.2383529 4.5,0 1.2375,0.2383529 0.225,0.4333689 -2.25,0.4333689 -2.475,0 -3.4875,-0.195016 -2.25,-0.4333689 z"
       id="path4142"
       inkscape:connector-curvature="0" />
    <path
       style="fill:#f05c2b"
       d="m 154.5,213 c -0.33992,-0.55 0.11008,-1 1,-1 0.88992,0 1.33992,0.45 1,1 -0.33992,0.55 -0.78992,1 -1,1 -0.21008,0 -0.66008,-0.45 -1,-1 z m 5.5,-3.89301 c 0,-1.31108 2.48692,-2.04212 3.92453,-1.15363 0.92641,0.57255 0.81876,0.93117 -0.42247,1.40748 C 161.19469,210.24626 160,210.15966 160,209.10699 Z m 9,-4.52366 C 169,203.7125 169.7125,203 170.58333,203 c 1.76593,0 1.45839,2.15276 -0.39583,2.77083 -0.65313,0.21771 -1.1875,-0.31666 -1.1875,-1.1875 z m 3.34603,-3.12396 c -0.411,-1.07106 -0.0387,-2.05188 0.99948,-2.63285 0.90997,-0.50925 1.65449,-2.03979 1.65449,-3.40121 0,-1.95034 -0.63624,-2.60256 -3,-3.07531 -1.65,-0.33 -3,-0.81817 -3,-1.08483 0,-0.26666 3.50502,-3.92291 7.78893,-8.125 6.73072,-6.60216 12.06323,-13.0927 16.98667,-20.67555 2.99665,-4.61528 6.46259,-12.88802 9.46096,-22.58203 3.09956,-10.02117 3.21104,-10.99178 3.20241,-27.88259 -0.009,-17.806398 -0.88981,-23.509484 -5.05431,-32.72898 -0.8022,-1.775938 -2.06553,-4.949371 -2.80741,-7.052071 -1.20082,-3.403493 -3.33716,-6.954606 -11.34181,-18.852867 C 185.98993,51.514737 184.52743,50 183.98544,50 183.44345,50 183,49.452957 183,48.784349 c 0,-0.668608 -2.06891,-3.316145 -4.59758,-5.883416 -3.97806,-4.038788 -4.44966,-4.944151 -3.49985,-6.718874 0.73695,-1.377012 0.78158,-2.882618 0.13578,-4.581183 -0.6158,-1.619674 -0.61585,-2.743963 -1.4e-4,-3.124491 1.64117,-1.0143 1.15211,-4.486647 -0.54045,-3.837153 -0.82623,0.317054 -2.66594,0.28439 -4.08825,-0.07259 -2.09275,-0.525247 -2.36202,-0.918946 -1.41167,-2.064042 0.64589,-0.778246 0.88404,-1.884705 0.52923,-2.458798 -1.06987,-1.731095 0.16899,-1.213393 5.95787,2.489711 C 198.54248,37.283247 216.37358,64.991485 221.4758,94 c 0.86194,4.900516 1.41209,6.46021 1.5873,4.5 0.14748,-1.65 0.55368,0.6 0.90267,5 0.741,9.34251 0.008,26.29324 -0.97246,22.5 -0.47814,-1.84912 -0.83849,-0.80772 -1.38408,4 -1.05649,9.30985 -7.3357,27.15666 -12.88313,36.61651 -2.61781,4.46409 -7.33961,11.18401 -10.49288,14.93316 -7.37898,8.7734 -19.95587,19.77074 -21.80078,19.06278 -0.77464,-0.29726 -1.30135,-0.0504 -1.17044,0.54854 0.40302,1.84408 -2.21983,2.11247 -2.91597,0.29838 z m -99.887149,-7.5259 c -0.362533,-0.58659 -0.41903,-1.30665 -0.125548,-1.60014 C 73.049646,191.61702 75,192.87916 75,194.05902 c 0,1.27797 -1.726411,1.19267 -2.541119,-0.12555 z m -14.62187,-7.71532 c -1.287427,-1.53003 -4.92743,-4.49878 -8.088894,-6.59724 C 46.586653,177.52245 44,175.41884 44,174.94622 44,174.4736 42.211584,172.15486 40.025741,169.79346 34.964631,164.32586 26.728636,149.42181 24.114439,141 20.484555,129.30609 19.690034,122.60502 20.284766,108.70015 21.292576,85.137481 27.500276,69.607294 42.861378,52.218847 48.240004,46.130353 57.945341,38 59.834648,38 60.340903,38 61.315311,37.325 62,36.5 63.402373,34.810244 65,34.516535 65,35.948478 65,37.299754 60.481968,42 59.183076,42 57.882474,42 57.057261,73.365692 58.29969,75.576812 59.500989,77.714733 60.708718,77.296694 61.410644,74.5 61.755747,73.125 62.596285,72 63.278505,72 c 0.682221,0 1.802461,-0.9 2.489422,-2 0.686961,-1.1 1.695208,-2 2.240547,-2 2.221776,0 0.698871,2.584784 -4.475915,7.596848 -3.007092,2.912535 -5.749993,6.421295 -6.095334,7.797246 -0.345342,1.375951 -0.469935,6.912669 -0.276874,12.303818 l 0.351021,9.802088 5.20794,5.48637 c 2.864367,3.01751 4.849556,5.84476 4.411532,6.28279 -1.304161,1.30416 -4.216521,-0.36431 -5.213601,-2.98683 -0.511252,-1.34469 -1.48928,-2.25847 -2.173396,-2.03062 -0.94894,0.31605 -1.306564,7.85115 -1.508374,31.78124 -0.198225,23.50513 -0.574187,31.58658 -1.5,32.24314 -0.97861,0.69401 -0.97559,0.98162 0.01453,1.38337 0.6875,0.27897 1.25,1.85546 1.25,3.50333 0,2.7794 0.20783,2.95047 2.873208,2.36506 3.077118,-0.67585 4.604595,1.06344 3.488418,3.97215 -0.905712,2.36025 -3.965874,1.75904 -6.524615,-1.28185 z M 65,115 c 0,-0.55 -0.45,-1 -1,-1 -0.55,0 -1,0.45 -1,1 0,0.55 0.45,1 1,1 0.55,0 1,-0.45 1,-1 z m 57.59872,52.15974 c -0.51851,-0.83898 41.4881,-43.33318 43.51976,-44.02491 0.58989,-0.20084 0.91705,0.38005 0.72702,1.29088 C 166.38776,126.61974 126.10008,168 124.42172,168 c -0.71703,0 -1.53738,-0.37812 -1.823,-0.84026 z M 85.172546,94.772546 c -1.846122,-1.846122 -1.371642,-6.57345 0.886415,-8.831507 1.396949,-1.396949 3.060205,-1.959622 5.172988,-1.75 3.928489,0.389768 4.69052,2.36062 1.246913,3.22491 -1.767917,0.443719 -3.176173,1.923138 -4.371007,4.591886 -1.348108,3.011096 -2.038581,3.661439 -2.935309,2.764711 z M 62.078947,64.416667 c 0.04798,-1.164943 0.284941,-1.4019 0.604167,-0.604167 0.288871,0.721875 0.253344,1.584375 -0.07895,1.916667 -0.332292,0.332291 -0.568641,-0.258334 -0.52522,-1.3125 z M 166,32.5 C 164.98505,31.277057 165.03968,31 166.29577,31 168.57251,31 171,32.087255 171,33.106989 171,34.565552 167.34612,34.12198 166,32.5 Z m -6.49292,-18.488546 c -0.35034,-0.56686 0.0511,-0.734507 0.94098,-0.393011 C 162.18048,14.283234 162.49745,15 161.05902,15 c -0.51754,0 -1.21592,-0.444846 -1.55194,-0.988546 z M 101.8125,1.316886 c 0.72187,-0.2888706 1.58437,-0.2533443 1.91667,0.078947 0.33229,0.3322917 -0.25834,0.5686404 -1.3125,0.5252193 -1.16495,-0.047984 -1.4019,-0.2849403 -0.60417,-0.6041666 z m 19.45653,-0.00988 c 0.97297,-0.2535434 2.32297,-0.2368691 3,0.037054 0.67703,0.2739231 -0.11903,0.4813677 -1.76903,0.460988 -1.65,-0.02038 -2.20394,-0.2444986 -1.23097,-0.498042 z"
       id="path4140"
       inkscape:connector-curvature="0" />
  </g>
</svg>
