<?xml version="1.0" encoding="UTF-8" standalone="no"?>
<!-- Created with Inkscape (http://www.inkscape.org/) -->

<svg
   xmlns:dc="http://purl.org/dc/elements/1.1/"
   xmlns:cc="http://creativecommons.org/ns#"
   xmlns:rdf="http://www.w3.org/1999/02/22-rdf-syntax-ns#"
   xmlns:svg="http://www.w3.org/2000/svg"
   xmlns="http://www.w3.org/2000/svg"
   xmlns:sodipodi="http://sodipodi.sourceforge.net/DTD/sodipodi-0.dtd"
   xmlns:inkscape="http://www.inkscape.org/namespaces/inkscape"
   id="svg2"
   version="1.1"
   inkscape:version="0.91 r13725"
   width="16.000017"
   height="16.000019"
   viewBox="0 0 16.000017 16.000019"
   sodipodi:docname="traje.svg">
  <metadata
     id="metadata8">
    <rdf:RDF>
      <cc:Work
         rdf:about="">
        <dc:format>image/svg+xml</dc:format>
        <dc:type
           rdf:resource="http://purl.org/dc/dcmitype/StillImage" />
        <dc:title></dc:title>
      </cc:Work>
    </rdf:RDF>
  </metadata>
  <defs
     id="defs6" />
  <sodipodi:namedview
     pagecolor="#ffffff"
     bordercolor="#666666"
     borderopacity="1"
     objecttolerance="10"
     gridtolerance="10"
     guidetolerance="10"
     inkscape:pageopacity="0"
     inkscape:pageshadow="2"
     inkscape:window-width="1920"
     inkscape:window-height="1003"
     id="namedview4"
     showgrid="false"
     fit-margin-top="0"
     fit-margin-left="0"
     fit-margin-right="0"
     fit-margin-bottom="0"
     inkscape:zoom="1.2344482"
     inkscape:cx="18.551615"
     inkscape:cy="-16.94997"
     inkscape:window-x="0"
     inkscape:window-y="25"
     inkscape:window-maximized="1"
     inkscape:current-layer="svg2" />
  <path
     style="fill:#000000"
     d="m 4.1405978,12.44019 0,-3.5598 -0.47864,0.0244 -0.47865,0.0244 0.0356,-0.28585 c 0.0376,-0.30182 0.32788,-3.91444 0.32788,-4.08099 0,-0.0535 -0.0106,-0.0909 -0.0235,-0.0831 -0.0129,0.008 -0.36485,0.92981 -0.78202,2.04884 -0.41717,1.11902 -0.76191,2.03788 -0.76609,2.04192 C 1.9691778,8.57601 0.05644776,8.23719 1.8776062e-4,8.22045 -0.00781224,8.21845 0.24084776,7.39412 0.55168776,6.38914 0.86252776,5.38415 1.3821678,3.70196 1.7064578,2.65094 c 0.32428,-1.05102 0.60073,-1.91736 0.61433,-1.92519 0.0544,-0.0313 3.0373,-0.31471 3.07162,-0.29181 0.0389,0.026 2.27271,2.13399 2.46285,2.32418 0.0611,0.0611 0.12538,0.11091 0.14283,0.11063 0.0175,-2.8e-4 0.61625,-0.55457 1.33065,-1.23176 l 1.2989102,-1.23124 0.18553,0.019 c 0.10204,0.0105 0.78244,0.0788 1.51201,0.15199 0.72956,0.0731 1.33827,0.13976 1.35268,0.14806 0.0234,0.0135 0.21703,0.62873 1.12127,3.56351 0.14487,0.47018 0.47731,1.5464 0.73875,2.39161 0.26144,0.84521 0.46931,1.5385 0.46194,1.54066 -0.0578,0.0169 -1.96875,0.3551 -1.97423,0.34941 -0.004,-0.004 -0.33519,-0.89213 -0.73622,-1.97354 -0.80375,-2.16739 -0.77628,-2.09742 -0.8146,-2.07536 -0.0264,0.0152 0.23797,3.6017 0.30519,4.13925 l 0.0336,0.26867 -0.47694,-0.0243 -0.47694,-0.0243 0,3.5598 0,3.55981 -1.51413,0 c -1.1729402,0 -1.5136102,-0.01 -1.5118302,-0.0427 0.008,-0.14264 -0.80561,-6.07811 -0.83283,-6.07811 -0.0273,0 -0.84214,5.93619 -0.83438,6.07811 0.002,0.0331 -0.33882,0.0427 -1.51179,0.0427 l -1.51413,0 0,-3.55981 z m 4.0652,-5.84235 c 0.13073,-0.0832 0.0822,-0.22692 -0.087,-0.25786 -0.30618,-0.056 -0.53344,0.12476 -0.32427,0.25786 0.0579,0.0369 0.15046,0.067 0.20566,0.067 0.0552,0 0.14773,-0.0302 0.20565,-0.067 z m 0.081,-1.02447 c 0.0266,-0.10264 -0.0907,-0.17372 -0.2866,-0.17372 -0.31873,0 -0.40519,0.21527 -0.11931,0.29706 0.18156,0.0519 0.37579,-0.007 0.40591,-0.12334 z m -0.083,-0.84296 c 0.0513,-0.0296 0.0933,-0.0784 0.0933,-0.10844 0,-0.0717 -0.17228,-0.17977 -0.28657,-0.17977 -0.12721,0 -0.3072,0.10184 -0.3072,0.17383 0,0.0791 0.15719,0.16812 0.29689,0.16812 0.0607,0 0.15226,-0.0242 0.20358,-0.0537 z m -1.98498,-4.17132 c 0,-0.31143 0.02,-0.55979 0.0445,-0.5519 1.35852,0.43712 1.34704,0.43426 1.74234,0.43351 0.35644,-6.7e-4 0.42344,-0.0146 1.06325,-0.22071 L 9.7517578,0 l 0.0172,0.29078 c 0.009,0.15993 0.009,0.41312 0,0.56265 l -0.0172,0.27187 -0.70161,-0.22226 c -0.64134,-0.20316 -0.73187,-0.22225 -1.05386,-0.22225 -0.32322,0 -0.40912,0.0183 -1.04199,0.22226 -0.37935,0.12225 -0.70003,0.22227 -0.71262,0.22227 -0.0126,0 -0.0229,-0.25481 -0.0229,-0.56623 z"
     id="path4138"
     inkscape:connector-curvature="0" />
</svg>
