<?xml version="1.0" encoding="UTF-8" standalone="no"?>
<!-- Created with Inkscape (http://www.inkscape.org/) -->

<svg
   xmlns:dc="http://purl.org/dc/elements/1.1/"
   xmlns:cc="http://creativecommons.org/ns#"
   xmlns:rdf="http://www.w3.org/1999/02/22-rdf-syntax-ns#"
   xmlns:svg="http://www.w3.org/2000/svg"
   xmlns="http://www.w3.org/2000/svg"
   xmlns:sodipodi="http://sodipodi.sourceforge.net/DTD/sodipodi-0.dtd"
   xmlns:inkscape="http://www.inkscape.org/namespaces/inkscape"
   id="svg2"
   version="1.1"
   inkscape:version="0.91 r13725"
   width="16"
   height="16"
   viewBox="0 0 16 16"
   sodipodi:docname="user.svg">
  <metadata
     id="metadata8">
    <rdf:RDF>
      <cc:Work
         rdf:about="">
        <dc:format>image/svg+xml</dc:format>
        <dc:type
           rdf:resource="http://purl.org/dc/dcmitype/StillImage" />
        <dc:title></dc:title>
      </cc:Work>
    </rdf:RDF>
  </metadata>
  <defs
     id="defs6" />
  <sodipodi:namedview
     pagecolor="#ffffff"
     bordercolor="#666666"
     borderopacity="1"
     objecttolerance="10"
     gridtolerance="10"
     guidetolerance="10"
     inkscape:pageopacity="0"
     inkscape:pageshadow="2"
     inkscape:window-width="1920"
     inkscape:window-height="1003"
     id="namedview4"
     showgrid="false"
     fit-margin-top="0"
     fit-margin-left="0"
     fit-margin-right="0"
     fit-margin-bottom="0"
     inkscape:zoom="3.4112558"
     inkscape:cx="34.949364"
     inkscape:cy="37.264387"
     inkscape:window-x="0"
     inkscape:window-y="25"
     inkscape:window-maximized="1"
     inkscape:current-layer="svg2" />
  <path
     style="fill:#000000"
     d="m 0.07258004,15.70372 c -0.1117,-0.22467 -0.0969,-0.57027 0.0613,-1.43045 C 0.56635004,11.92154 2.07853,10.02303 4.39443,8.9242699 l 1.15525,-0.54811 -0.53136,-0.33746 C 4.39661,7.6438499 3.63854,6.6773399 3.34118,5.9003899 2.9595,4.9030999 3.0945,3.2865699 3.6403,2.3185299 4.02736,1.6320399 5.11806,0.71017995 5.96982,0.34962995 6.69654,0.04199995 6.94781,-4.0054321e-5 8.05979,-4.0054321e-5 c 1.1577,0 1.33759,0.03320000432 2.14031,0.395380004321 1.03898,0.46875 1.85471,1.23230995 2.34918,2.19896995 0.30492,0.59608 0.35317,0.8487 0.35317,1.84874 0,1.06271 -0.0359,1.22509 -0.43464,1.96742 -0.2829,0.52662 -0.68587,1.01952 -1.15419,1.41177 l -0.71955,0.60267 1.02144,0.45998 c 1.33576,0.60154 2.95306,2.0617801 3.56641,3.2200701 0.57029,1.07695 0.86038,2.17599 0.81311,3.08056 L 15.95573,15.9372 8.0878,15.9686 0.21986004,16 0.07258004,15.70376 Z M 14.86815,14.93352 c 0.0311,-0.0502 -0.0194,-0.4246 -0.11223,-0.83203 -0.48132,-2.11361 -2.3988,-4.02941 -4.67888,-4.6748101 -1.01653,-0.28773 -2.80841,-0.32161 -3.82969,-0.0724 -2.57071,0.6273 -4.5792,2.6876901 -5.02363,5.1534401 l -0.0932,0.51704 6.84058,0 c 3.76231,0 6.86599,-0.0411 6.89705,-0.0912 z M 9.75484,7.5557399 c 1.28533,-0.59689 2.05824,-1.76675 2.05824,-3.11525 0,-3.18672 -4.26269,-4.67868995 -6.58995,-2.30653 -0.94518,0.96342 -1.21936,2.12135 -0.80504,3.39992 0.28304,0.87346 1.44772,1.96596 2.39027,2.24214 0.88807,0.26022 2.10821,0.169 2.94648,-0.22028 z"
     id="path4138"
     inkscape:connector-curvature="0" />
</svg>
