<?xml version="1.0" encoding="UTF-8" standalone="no"?>
<!-- Created with Inkscape (http://www.inkscape.org/) -->

<svg
   xmlns:dc="http://purl.org/dc/elements/1.1/"
   xmlns:cc="http://creativecommons.org/ns#"
   xmlns:rdf="http://www.w3.org/1999/02/22-rdf-syntax-ns#"
   xmlns:svg="http://www.w3.org/2000/svg"
   xmlns="http://www.w3.org/2000/svg"
   xmlns:sodipodi="http://sodipodi.sourceforge.net/DTD/sodipodi-0.dtd"
   xmlns:inkscape="http://www.inkscape.org/namespaces/inkscape"
   id="svg2"
   version="1.1"
   inkscape:version="0.91 r13725"
   width="16"
   height="15.999999"
   viewBox="0 0 16 15.999999"
   sodipodi:docname="venta.svg">
  <metadata
     id="metadata8">
    <rdf:RDF>
      <cc:Work
         rdf:about="">
        <dc:format>image/svg+xml</dc:format>
        <dc:type
           rdf:resource="http://purl.org/dc/dcmitype/StillImage" />
        <dc:title></dc:title>
      </cc:Work>
    </rdf:RDF>
  </metadata>
  <defs
     id="defs6" />
  <sodipodi:namedview
     pagecolor="#ffffff"
     bordercolor="#666666"
     borderopacity="1"
     objecttolerance="10"
     gridtolerance="10"
     guidetolerance="10"
     inkscape:pageopacity="0"
     inkscape:pageshadow="2"
     inkscape:window-width="1920"
     inkscape:window-height="1003"
     id="namedview4"
     showgrid="false"
     fit-margin-top="0"
     fit-margin-left="0"
     fit-margin-right="0"
     fit-margin-bottom="0"
     inkscape:zoom="3.5113194"
     inkscape:cx="9.0059917"
     inkscape:cy="7.6368648"
     inkscape:window-x="0"
     inkscape:window-y="25"
     inkscape:window-maximized="1"
     inkscape:current-layer="svg2" />
  <g
     id="g4154"
     transform="matrix(0.07107947,0,0,0.07112901,0.0121352,1.8414317e-4)">
    <path
       style="fill:#cdcdcd"
       d="M 16.808382,223.52909 C 8.5934143,221.26667 3.7163827,216.17058 1.4541162,207.48515 c -2.16645795,-8.31759 -2.16645795,-181.652705 0,-189.970299 C 3.8047721,8.4900737 8.4900737,3.8047721 17.514851,1.4541162 22.197526,0.23443446 37.511152,0 112.5,0 c 101.43971,0 97.71478,-0.25890251 105.29205,7.3183656 7.35279,7.3527934 7.13671,4.1680884 7.13671,105.1816344 0,101.01355 0.21608,97.82884 -7.13671,105.18163 -7.59333,7.59334 -3.73479,7.33042 -106.09084,7.22895 -70.414718,-0.0698 -91.230361,-0.37284 -94.892828,-1.38149 z m 186.994628,-3.70971 c 6.51593,-1.64073 14.37564,-9.50044 16.01637,-16.01637 1.85426,-7.36391 1.66935,-176.861228 -0.19972,-183.071656 -1.90632,-6.334219 -4.93269,-10.242975 -10.43501,-13.4774962 L 204.5,4.5 l -92,0 -92,0 -4.263404,2.2771618 C 11.337922,9.3936333 6.4538019,15.600992 4.9762357,21.088254 4.3116138,23.556471 4.0523632,56.037532 4.2291916,114.68413 L 4.5,204.5 7.1522683,209 c 3.0922997,5.24658 7.5385347,8.79504 13.2678947,10.58885 5.68476,1.77985 176.377787,1.99443 183.382847,0.23053 z M 87,161.64789 29.5,142.5 29.192055,138.24085 c -0.207704,-2.87274 0.129196,-4.4269 1.034978,-4.77448 0.738608,-0.28343 26.594289,7.82069 57.45707,18.00915 C 118.54688,161.66399 144.42011,170 145.18017,170 c 0.76005,0 11.88284,-8.57004 24.7173,-19.04452 12.83447,-10.47449 23.8455,-18.87681 24.46896,-18.67183 0.62346,0.20498 1.26632,2.36711 1.42857,4.80474 0.35851,5.38629 1.32222,4.39891 -26.61947,27.27315 -13.27934,10.87102 -21.07859,16.60306 -22.5,16.53635 -1.19654,-0.0562 -28.05053,-8.71866 -59.67553,-19.25 z m 1.476937,-20.97683 c -31.362684,-10.54408 -57.575184,-19.53512 -58.25,-19.98008 -1.883458,-1.24191 -1.550723,-7.6295 0.437163,-8.39232 0.96138,-0.36892 25.609104,7.31427 58.367901,18.19444 l 56.703799,18.83302 23.1588,-18.91306 C 181.63194,120.01088 192.82888,111.5 193.7767,111.5 c 1.39799,0 1.7233,0.93048 1.7233,4.92911 l 0,4.92911 -23.5,19.30933 c -12.925,10.62014 -24.175,19.27902 -25,19.24196 -0.825,-0.0371 -27.16038,-8.69436 -58.523063,-19.23845 z M 87,118.69262 29.5,99.5 29.198692,95.376678 c -0.20844,-2.852446 0.135719,-4.291026 1.116612,-4.66743 0.779856,-0.299259 26.565445,7.737157 57.301308,17.858702 30.735868,10.12154 56.616068,18.40939 57.511568,18.41743 0.89551,0.008 12.06654,-8.50839 24.82453,-18.9254 14.16754,-11.567918 23.75118,-18.727101 24.62182,-18.393008 1.51653,0.581948 2.00757,7.94455 0.66016,9.898354 -0.40408,0.585934 -10.96718,9.473434 -23.47355,19.750004 -15.13354,12.43533 -23.49513,18.66548 -25,18.62729 C 145.51751,137.91106 118.625,129.24856 87,118.69262 Z M 87.25,97.896325 C 40.362678,82.373663 30,78.623442 30,77.17773 30,75.079355 75.494229,43.997129 78.55402,44.005016 c 2.151059,0.0055 110.60272,29.426971 114.19598,30.979781 1.2375,0.534779 2.25,1.592843 2.25,2.351254 0,1.916685 -46.43606,39.681369 -48.67902,39.588789 -1.00154,-0.0413 -27.58348,-8.60417 -59.07098,-19.028515 z m 74.12674,-3.963609 C 169.41953,87.295711 176,81.51912 176,81.095848 c 0,-0.753489 -47.1864,-14.145175 -47.82374,-13.572566 -0.17805,0.159971 0.42427,1.737343 1.3385,3.505269 3.84629,7.437892 -3.07813,17.348177 -14.45797,20.692359 -3.32971,0.9785 -6.05464,2.032378 -6.0554,2.341952 -0.002,0.683659 33.82992,11.815678 36.12535,11.886768 0.8947,0.0277 8.2072,-5.37991 16.25,-12.016914 z M 90,87.649223 c 0,-0.192927 -0.492398,-1.763269 -1.094217,-3.489649 -2.346167,-6.73022 5.850302,-16.3147 16.546607,-19.348647 2.22618,-0.631446 4.37231,-1.419421 4.76916,-1.751056 0.39685,-0.331634 -6.34875,-2.526986 -14.990219,-4.878558 L 79.51956,53.905727 65.09215,63.70609 c -7.935076,5.390199 -14.383007,10.23268 -14.328735,10.761069 0.05427,0.528388 8.567206,3.742296 18.917631,7.142016 C 88.980001,87.948147 90,88.251354 90,87.649223 Z m 21.4212,-4.749074 c 2.15665,-0.598783 5.23996,-2.407467 6.8518,-4.019299 C 122.07586,75.077985 120.68807,73 114.34544,73 107.08351,73 99,77.2519 99,81.071654 c 0,2.99064 5.38194,3.782902 12.4212,1.828495 z"
       id="path4168"
       inkscape:connector-curvature="0" />
    <path
       style="fill:#b0b0b0"
       d="M 16.87783,223.16983 C 9.206326,220.39838 3.3752845,214.16818 1.1674356,206.38398 0.3167759,203.38482 0,177.9203 0,112.53789 0,10.661172 -0.37225164,15.740673 7.6842105,7.6842105 15.736824,-0.36840293 10.743893,0 111.82762,0 178.57949,0 202.17977,0.30684859 206.17371,1.2266792 213.13174,2.8291588 221.16135,10.285237 223.16035,17 c 1.07699,3.617696 1.33965,22.44019 1.33965,96 0,86.12698 -0.10699,91.77729 -1.82206,96.22212 -2.54737,6.60186 -9.86997,13.01705 -16.64273,14.5804 -3.83775,0.88585 -28.52395,1.17662 -94.8615,1.11731 -81.124193,-0.0725 -90.114389,-0.23938 -94.29588,-1.75 z M 207,219.41021 c 5.44095,-2.52676 11.26436,-8.74945 13.12931,-14.0295 C 221.25133,202.20403 221.5,185.17228 221.5,111.5 l 0,-90 -2.96227,-5.348005 C 215.27948,10.269632 209.76359,5.860543 203.48074,4.1162924 200.71545,3.3485882 172.91519,3.0094511 112.4315,3.0055769 13.900895,2.9992658 18.267978,2.6793899 10.473684,10.473684 2.6793899,18.267978 2.9992658,13.900895 3.0055769,112.4315 c 0.00378,59.05106 0.3522337,88.35564 1.082866,91.0685 2.3772667,8.82685 10.3619031,16.08699 19.3551921,17.59897 2.231001,0.37508 43.431365,0.61876 91.556365,0.5415 86.50184,-0.13887 87.55133,-0.16431 92,-2.23026 z M 86.75,160.83772 30,141.83333 l 0,-3.35765 c 0,-1.8467 0.448269,-3.63469 0.996154,-3.9733 0.547884,-0.33861 26.520658,7.78201 57.717276,18.04584 48.09865,15.82466 57.01496,18.47799 58.65405,17.45436 1.06311,-0.66392 8.05283,-6.24062 15.53272,-12.39266 26.09985,-21.46653 30.22269,-24.652 31.15806,-24.07392 0.51796,0.32012 0.94174,2.31095 0.94174,4.42407 0,4.40499 0.62666,3.79883 -28.81993,27.87738 -13.08534,10.69991 -17.97519,14.14325 -20,14.0836 -1.47404,-0.0434 -28.21757,-8.63092 -59.43007,-19.08333 z M 87.5,139.67357 30.5,120.5 30.189635,116.75 c -0.265286,-3.20533 -0.0151,-3.75 1.72251,-3.75 1.118081,0 27.127825,8.30627 57.799429,18.45837 49.441486,16.36481 55.994636,18.30655 57.777486,17.11981 1.10602,-0.7362 11.68594,-9.25607 23.51094,-18.93304 11.825,-9.67697 22.0625,-17.60589 22.75,-17.61982 0.81535,-0.0165 1.25,1.51216 1.25,4.39629 l 0,4.42161 -23.25,19.07226 c -13.75704,11.28507 -24.0666,19.04356 -25.25,19.00196 -1.1,-0.0387 -27.65,-8.6984 -59,-19.24387 z m 1,-21.05519 -58,-19.186649 -0.322842,-3.343023 c -0.177564,-1.838663 0.102406,-3.768272 0.622155,-4.288021 0.593329,-0.593329 21.908398,5.966375 57.277595,17.627163 C 119.05984,119.64253 144.9323,128 145.57126,128 c 0.63897,0 11.61114,-8.55226 24.3826,-19.00503 12.77147,-10.452763 23.63154,-18.751206 24.1335,-18.440981 0.50195,0.310225 0.91264,2.249212 0.91264,4.308861 0,2.931033 -0.70626,4.409284 -3.25,6.80252 -5.42007,5.09938 -43.85045,36.34163 -44.57447,36.23714 C 146.80399,137.84889 120.4,129.17103 88.5,118.61838 Z M 87.25,97.203734 C 44.398378,83.034151 31,78.226212 31,77.018713 31,76.062838 40.295,69.219112 54.416528,59.777584 L 77.833055,44.121501 88.666528,47.051754 C 176.85662,70.905532 193.5,75.704896 193.5,77.282031 c 0,2.581049 -44.42933,38.678139 -47.5,38.591889 -1.375,-0.0386 -27.8125,-8.4402 -58.75,-18.670186 z m 75.24588,-3.295267 C 171.10579,86.708124 177.95636,80.62303 177.71937,80.386035 177.22237,79.889038 126.98594,66 125.68531,66 c -0.4747,0 0.3019,1.384526 1.7258,3.076725 6.81973,8.10479 -1.04688,19.249642 -16.43535,23.284435 -3.27753,0.859353 -4.87359,1.677923 -3.97576,2.039041 5.20823,2.094822 36.80061,12.459259 38.17074,12.522579 0.91891,0.0425 8.71522,-5.81397 17.32514,-13.014313 z M 90.322463,85.944573 C 88.16021,81.610234 89.317586,77.015747 93.667433,72.6659 98.111446,68.221887 104.39233,65.076417 110.7315,64.120211 L 115.5,63.400927 112,62.233668 C 104.769,59.822112 82.438029,54 80.419396,54 78.215501,54 48.88536,73.186907 48.84803,74.65305 c -0.01983,0.77873 39.155808,14.164644 41.825325,14.291286 0.81567,0.03869 0.708704,-0.875753 -0.350892,-2.999763 z M 111.4608,83.561835 c 8.05771,-2.425015 12.15245,-8.092897 7.60494,-10.526651 -4.2457,-2.272231 -13.18017,-0.492668 -18.03469,3.592139 -7.164554,6.028579 -0.74416,10.297363 10.42975,6.934512 z"
       id="path4166"
       inkscape:connector-curvature="0" />
    <path
       style="fill:#8c8c8c"
       d="M 17.640066,223.36803 C 14.354027,222.35877 11.220838,220.31608 7.9652853,217.06052 -0.41119338,208.68404 0,214.08179 0,112.5 0,10.93643 -0.4090271,16.313789 7.952381,7.952381 16.312844,-0.40808169 10.999406,-0.0026927 111.9315,0.01928959 c 66.85969,0.01456156 89.71564,0.32094607 93.24865,1.25000001 7.37645,1.9397407 13.12488,6.6141282 16.4422,13.3701244 L 224.5,20.5 l 0.2762,88.96531 c 0.18858,60.74089 -0.0657,90.61212 -0.80142,94.15619 -2.09328,10.08325 -9.38747,17.77404 -19.1676,20.20976 -3.4146,0.8504 -28.88191,1.14977 -93.5,1.09909 -75.768473,-0.0594 -89.520718,-0.28881 -93.667114,-1.56232 z M 208,219.63584 c 4.89867,-2.60912 8.81598,-6.45537 11.34158,-11.13584 l 2.15842,-4 0,-92 0,-92 -2.21551,-4.142554 C 216.38133,10.929123 209.96663,5.5254942 204.70814,4.0785818 201.62663,3.2306817 176.27081,2.9982312 110,3.210341 9.6055968,3.5316685 17.175986,3.0036571 10.103221,10.177835 3.0030426,17.379817 3.5312702,9.7300647 3.210341,110 c -0.2121098,66.27081 0.020341,91.62663 0.8682408,94.70814 1.9701352,7.16003 8.9462192,13.91057 16.9149442,16.36806 1.378561,0.42514 43.231474,0.69441 93.006474,0.59839 86.19617,-0.16629 90.66645,-0.26324 94,-2.03875 z M 88,160.66593 30.5,141.5 30.186642,138.25 c -0.269255,-2.79258 0.0019,-3.25 1.926411,-3.25 1.231874,0 25.447886,7.67341 53.813359,17.05202 28.365478,9.37861 53.490058,17.67765 55.832408,18.44231 l 4.25881,1.39028 23.21014,-18.9423 C 181.99335,142.52404 193.01438,134 193.71896,134 c 1.39083,0 1.77252,5.67951 0.51455,7.65642 -1.56953,2.46652 -45.81728,38.27841 -47.23351,38.2284 -0.825,-0.0291 -27.375,-8.67763 -59,-19.21889 z m 2.188478,-20.56775 c -30.971337,-10.28166 -57.183837,-19.2387 -58.25,-19.90453 -2.017825,-1.26015 -2.653748,-5.63356 -0.97043,-6.6739 0.532426,-0.32906 26.415129,7.78957 57.517117,18.0414 31.101985,10.25183 57.174525,18.39968 57.938975,18.10633 0.76445,-0.29334 11.32437,-8.66353 23.46648,-18.60042 C 182.03274,121.13018 192.64958,113 193.4836,113 c 1.04921,0 1.5164,1.01788 1.5164,3.30383 0,2.43352 -0.85614,4.10932 -3.25,6.36154 -5.4491,5.12669 -43.85284,36.34172 -44.57447,36.23068 -0.37154,-0.0572 -26.01571,-8.51621 -56.987052,-18.79787 z M 88.096703,117.96456 C 57.074889,107.58542 31.27429,98.67429 30.762038,98.162038 c -1.377386,-1.377386 -0.495534,-5.597181 1.238652,-5.927134 0.825379,-0.15704 26.700379,8.034356 57.5,18.203096 l 55.99931,18.48862 3.09957,-2.21331 c 1.70477,-1.21732 12.18045,-9.63831 23.27929,-18.71331 11.09884,-9.075 20.72903,-16.5 21.40042,-16.5 1.49729,0 2.17365,4.868247 0.97414,7.011646 -1.70517,3.046964 -45.7454,38.448134 -47.75342,38.385974 -1.1,-0.034 -27.38148,-8.55393 -58.403297,-18.93306 z M 88.546962,97.08554 C 57.222792,86.743469 31.429893,77.78968 31.22941,77.188231 31.028927,76.586782 41.486188,69.01555 54.467767,60.363271 L 78.070639,44.631854 134.28532,59.930731 c 30.91807,8.414382 57.05849,15.743181 58.0898,16.286221 1.78894,0.941965 1.76596,1.09265 -0.5,3.278506 -5.30868,5.121013 -44.3127,36.500562 -45.30546,36.449192 -0.58831,-0.0304 -26.69853,-8.51704 -58.022698,-18.85911 z M 162.5,94.497478 c 8.25,-6.84548 15,-13.020336 15,-13.721903 0,-1.184009 -49.20304,-15.544707 -53.82673,-15.710194 -1.40689,-0.05035 -1.09982,0.546264 1.33609,2.595952 4.1746,3.512694 5.34495,6.735078 3.96487,10.916741 -2.12847,6.449332 -10.99379,12.236858 -21.32641,13.922467 -2.1187,0.345634 -3.552,0.936907 -3.1851,1.313942 1.10989,1.140554 37.85069,12.971167 40.53728,13.053087 1.7901,0.0546 6.75938,-3.458 17.5,-12.370092 z M 91.61501,87.535183 c -6.088744,-9.292598 4.548452,-21.061381 20.86274,-23.082118 7.21306,-0.893432 7.56147,-0.738037 -15.714948,-7.009203 L 79.291923,52.736832 63.946081,63.118416 c -8.440214,5.709871 -15.483252,10.838651 -15.651197,11.397288 -0.271353,0.902608 40.158272,15.193775 43.570126,15.401278 1.078639,0.0656 1.02619,-0.434086 -0.25,-2.381799 z m 23.93761,-5.175824 c 2.17106,-1.122866 4.6181,-3.226286 5.43786,-4.674268 2.20977,-3.903189 -0.28911,-6.065001 -6.83822,-5.915824 C 103.0784,72.02151 94.496076,78.998869 99.25,83.884678 c 1.80932,1.859517 11.51359,0.951559 16.30262,-1.525319 z"
       id="path4164"
       inkscape:connector-curvature="0" />
    <path
       style="fill:#6f6f6f"
       d="M 18.615224,223.37394 C 15.203593,222.31719 12.137335,220.26777 8.4478771,216.57831 -0.48421158,207.64622 0,213.61174 0,112.5 0,11.383937 -0.48479141,17.354357 8.4513221,8.4182431 17.438533,-0.56896808 11.272053,-0.09292549 114.59492,0.22412369 L 204.5,0.5 l 5.33272,2.9539504 c 5.82506,3.2266755 9.08107,6.6040086 12.46508,12.9295796 L 224.5,20.5 l 0,92 0,92 -2.2022,4.11647 c -3.43403,6.41906 -7.11781,10.24947 -12.67806,13.18269 L 204.5,224.5 114,224.6935 c -78.349898,0.16751 -91.155807,-0.01 -95.384776,-1.31956 z m 189.956456,-3.89643 c 7.08044,-3.60989 11.72798,-9.78702 13.39113,-17.79839 0.76487,-3.68435 1.01459,-31.96661 0.81883,-92.74003 L 222.5,21.5 220.12702,16.722658 C 218.82188,14.095119 215.91654,10.372481 213.6707,8.4501277 205.90593,1.8037707 208.9838,2 112.5,2 12.917847,2 17.982811,1.6037082 9.8074152,10.034851 1.6186854,18.479744 2,13.47534 2,112.5 c 0,95.7803 -0.1518381,93.25853 6.068003,100.77902 3.527864,4.26559 9.134628,7.45708 15.275743,8.69529 2.28594,0.4609 43.56351,0.76773 91.727934,0.68185 l 87.57168,-0.15616 5.92832,-3.02249 z M 89,160.58991 31.5,141.5 31.186642,138.25 C 31.014294,136.4625 31.2884,135 31.795766,135 c 0.507365,0 26.232327,8.35532 57.166583,18.56738 30.934251,10.21206 56.812711,18.34918 57.507681,18.08249 0.69497,-0.26668 11.17661,-8.622 23.29254,-18.56737 C 181.8785,143.13712 192.28844,135 192.89577,135 c 0.60732,0 1.10423,1.55278 1.10423,3.45063 0,3.28185 -1.06923,4.32807 -21.86126,21.39056 -12.02369,9.86697 -22.71119,18.36714 -23.75,18.88928 C 146.94741,179.45493 132.8792,175.15773 89,160.58991 Z M 87.75,138.8595 31,119.83333 l 0,-2.91666 c 0,-2.11209 0.48275,-2.91597 1.75,-2.91412 0.9625,0.001 26.686776,8.3072 57.165058,18.45732 32.853722,10.94121 55.966872,18.14596 56.770412,17.69627 0.74545,-0.41717 11.28152,-8.83546 23.41349,-18.70732 12.13197,-9.87185 22.47279,-18.09882 22.97959,-18.28215 0.5068,-0.18334 0.92145,1.41815 0.92145,3.55886 0,3.86274 -0.17062,4.0317 -22.55287,22.33333 -12.40408,10.14263 -23.54158,18.52791 -24.75,18.63397 C 145.48871,157.79889 118.9625,149.32389 87.75,138.8595 Z M 89,117.68223 31.5,98.5 31.186642,95.25 C 31.014294,93.4625 31.176564,92 31.547241,92 c 0.370677,0 25.981359,8.325 56.912627,18.5 30.931272,10.175 56.723672,18.5 57.316452,18.5 0.59278,0 11.23834,-8.325 23.6568,-18.5 12.41846,-10.175 23.05345,-18.5 23.63331,-18.5 0.60519,0 0.92209,1.578087 0.74394,3.704599 -0.29409,3.510306 -1.51114,4.690351 -23.20545,22.500001 -12.59229,10.33747 -23.16729,18.7649 -23.5,18.72763 -0.3327,-0.0373 -26.47992,-8.69977 -58.10492,-19.25 z M 87.683435,96.368917 C 50.907791,84.199972 32.000986,77.490134 32.260019,76.699695 32.633482,75.56007 66.027666,52.47005 74.5,47.493352 l 4,-2.349624 56.43156,15.409694 c 31.03735,8.475331 56.90859,15.886731 57.49164,16.469777 0.74678,0.746777 0.74345,1.269437 -0.0113,1.768442 -0.58924,0.389597 -10.77935,8.695859 -22.64468,18.458359 -14.98258,12.3273 -22.29033,17.72532 -23.92029,17.66922 -1.29083,-0.0444 -27.46441,-8.39206 -58.163525,-18.550303 z m 75.028785,-1.465704 c 8.68328,-7.203232 15.93563,-13.496774 16.11633,-13.985649 0.1807,-0.488874 -0.7193,-1.331419 -2,-1.872322 C 173.00969,77.432349 82.323541,53 80.155793,53 77.984931,53 47,73.554012 47,74.994065 47,75.722994 92.328912,91 94.491744,91 c 0.377324,0 -0.526069,-1.440514 -2.007541,-3.201143 -2.250973,-2.675129 -2.606201,-3.866452 -2.161805,-7.25 0.4192,-3.191701 1.497475,-4.927876 5.093336,-8.200986 C 107.6891,61.17611 129,63.170184 129,75.490372 129,82.970592 118.51732,90.877915 107.37602,91.801839 104.41921,92.047041 102,92.612792 102,93.059065 c 0,0.789178 41.29137,14.885045 43.71222,14.922285 0.66672,0.0103 8.31672,-5.8749 17,-13.078137 z M 110.02962,84.900228 C 115.68133,83.688153 122,78.96534 122,75.953112 122,73.453209 118.23742,71 114.40322,71 107.07604,71 97,76.926028 97,81.235365 c 0,1.143368 1.253449,2.405983 3.25,3.273767 4.00131,1.739133 3.57368,1.722032 9.77962,0.391096 z"
       id="path4162"
       inkscape:connector-curvature="0" />
    <path
       style="fill:#525252"
       d="M 22.5,224.32899 C 15.420705,222.68354 7.748124,216.62893 3.2913254,209.17097 L 0.5,204.5 l 0,-92 0,-92 2.6973139,-4.502768 C 6.3289058,10.769501 10.846794,6.3262161 16.5,2.9142097 L 20.5,0.5 108,0.19490283 c 82.23818,-0.28675012 97.99984,-0.025066 98.00011,1.62705347 6e-5,0.372924 -41.62631,0.5586587 -92.50305,0.4127437 L 20.993899,1.9694 16.12721,4.4355376 C 10.665392,7.2032504 6.5733724,11.563822 3.8673407,17.5 2.1459587,21.276168 2.0426951,26.595179 2.021962,112.55366 L 2,203.60731 l 2.6325347,5.28281 c 2.9757932,5.97164 9.4690463,11.3277 15.8674653,13.08852 2.810833,0.77354 30.756259,1.01466 94,0.81108 l 90,-0.28972 4.12821,-2.20819 c 5.56546,-2.97698 11.84626,-10.32496 13.27604,-15.53176 0.86329,-3.14384 1.09459,-28.02522 0.88277,-94.96028 -0.19135,-60.466864 0.0463,-90.366862 0.71298,-89.700131 0.65197,0.652029 1,32.566872 1,91.700231 l 0,90.70013 -2.64689,5.5 c -2.83346,5.88767 -6.93028,10.20927 -13.35311,14.08579 l -4,2.41421 -90,0.14693 c -49.5,0.0808 -90.9,-0.0623 -92,-0.31794 z m 65.193438,-64.51012 c -56.794785,-19.0193 -56.806498,-19.02379 -56.5,-21.67106 0.168609,-1.45629 0.756562,-2.58747 1.306562,-2.51373 0.55,0.0737 25.821474,8.28625 56.158831,18.25 C 118.99619,163.84784 144.56711,172 145.48311,172 c 0.916,0 11.85017,-8.325 24.29816,-18.5 12.44799,-10.175 22.98957,-18.5 23.42572,-18.5 0.43616,0 0.79301,1.3884 0.79301,3.08533 0,3.57456 1.2438,2.388 -26,24.80347 -11.2158,9.22807 -20.34966,16.0248 -21.5,15.99869 -1.1,-0.025 -27.56295,-8.60584 -58.806562,-19.06862 z M 88.5,138.67357 C 32.483136,119.83071 31.494542,119.45257 31.183578,116.75 31.009545,115.2375 31.352501,114 31.945701,114 c 0.5932,0 26.309967,8.35899 57.148371,18.57554 30.838408,10.21655 56.680178,18.34133 57.426158,18.05507 0.74598,-0.28626 11.25703,-8.64525 23.35788,-18.57554 C 181.97897,122.12478 192.35674,114 192.93984,114 c 0.58309,0 1.06016,1.30548 1.06016,2.90106 0,3.28912 -0.69389,3.93765 -28.81993,26.93639 -9.52597,7.7894 -17.85097,14.12816 -18.5,14.08612 -0.64904,-0.042 -26.83007,-8.70453 -58.18007,-19.25 z M 88,117.14884 C 32.60587,98.807885 31.493807,98.388477 31.183578,95.720866 30.952032,93.729839 31.31037,93 32.519476,93 c 0.908776,0 26.251166,8.10005 56.316422,18.0001 30.065252,9.90006 55.564102,17.98498 56.664102,17.96648 1.1,-0.0185 12.125,-8.3322 24.5,-18.47489 12.375,-10.14269 22.8375,-18.452602 23.25,-18.466472 0.4125,-0.01387 0.75,1.462458 0.75,3.280728 0,3.096712 -1.4238,4.473278 -22.49632,21.750004 -12.67836,10.39461 -23.47987,18.52172 -24.75,18.62202 C 145.51416,135.77586 119.075,127.43775 88,117.14884 Z M 89.142668,96.498565 C 58.696136,86.42629 33.387567,77.787567 32.901403,77.301403 31.990092,76.390092 75.885769,46.0351 78.226268,45.958091 81.431632,45.852625 192,76.60853 192,77.605605 192,79.211043 147.87366,115.01871 146.03428,114.9059 145.19043,114.8541 119.5892,106.57084 89.142668,96.498565 Z M 163.81531,94.34767 C 173.96016,85.880598 179.77627,80.376267 179.19368,79.793677 177.75438,78.35438 79.99221,51.902292 78.666092,52.593335 78.024741,52.927543 70.645415,57.768265 62.26759,63.350493 52.812308,69.650642 47.126618,74.05903 47.276274,74.973982 c 0.161128,0.98509 8.364388,4.095309 24.73241,9.377151 C 85.478908,88.697876 106.85,95.769135 119.5,100.06504 c 12.65,4.29591 24.125,7.83075 25.5,7.85521 1.78077,0.0317 7.19379,-3.87305 18.81531,-13.57258 z M 97.5,91.107732 C 96.4,90.618774 94.3975,89.032202 93.05,87.582017 85.052171,78.97472 97.943926,65.5 114.17667,65.5 c 7.24581,0 10.96814,1.80772 13.72709,6.666453 4.43695,7.813809 -7.96859,18.593422 -22.4034,19.467112 C 102.20016,91.833314 98.6,91.596689 97.5,91.107732 Z m 18.35777,-8.035172 c 5.31666,-2.712358 7.69504,-6.171107 6.18444,-8.993695 -3.52447,-6.585536 -23.947551,-1.560448 -24.849302,6.114157 -0.702459,5.97848 9.503952,7.553084 18.664862,2.879538 z M 218.79092,13.398576 C 217.29598,10.975662 213.95898,7.6615733 211.34514,6.0039278 208.73995,4.3517675 207.07902,3 207.65418,3 c 3.22003,0 15.90787,12.8418 14.24216,14.414976 -0.21799,0.205877 -1.61543,-1.601503 -3.10542,-4.0164 z"
       id="path4160"
       inkscape:connector-curvature="0" />
    <path
       style="fill:#2e2e2e"
       d="m 22,224 c -1.925,-0.40519 38.575,-0.74271 90,-0.75004 51.425,-0.007 92.15,0.33019 90.5,0.75004 -3.84955,0.97954 -175.846375,0.97954 -180.5,0 z M 0.63592398,201.36043 C -0.30826747,194.4718 -0.02136512,27.160523 0.94263061,22.5 1.4046708,20.266225 1.8207804,59.895907 1.8850009,112.25 1.9482504,163.8125 1.8361658,206 1.635924,206 1.4356822,206 0.98568217,203.91219 0.63592398,201.36043 Z M 223.47964,112.5 c 5e-5,-51.15 0.12163,-71.928451 0.27017,-46.174336 0.14853,25.754116 0.14849,67.604116 -1.1e-4,92.999996 -0.14859,25.39589 -0.27012,4.32434 -0.27006,-46.82566 z M 89.200956,159.86709 C 52.139622,147.60422 31.695739,140.37068 31.318174,139.38676 c -0.321057,-0.83666 -0.126881,-1.97805 0.4315,-2.53643 0.686986,-0.68699 19.212301,5.00729 57.296031,17.61156 30.954435,10.24474 56.850165,18.40831 57.546075,18.14126 0.6959,-0.26704 11.2246,-8.67484 23.3971,-18.68399 16.95205,-13.93927 22.40681,-17.92347 23.30682,-17.02346 0.9,0.9 0.82737,1.75822 -0.31035,3.66694 -1.37285,2.30321 -44.81663,38.54544 -45.97093,38.35047 -0.28293,-0.0478 -26.29899,-8.6185 -57.813464,-19.04602 z m -0.07837,-21.45418 C 58.665011,128.30418 33.127511,119.52079 32.372588,118.89426 30.508651,117.34733 30.637227,115 32.585898,115 c 0.872244,0 26.184744,8.10005 56.25,18.0001 30.065252,9.90006 55.566142,18.00006 56.668622,18 1.11974,-5e-5 11.93391,-8.13541 24.5,-18.43102 21.77515,-17.84075 25.80986,-20.27287 23.44033,-14.12983 -1.25878,3.2634 -44.33295,38.52111 -46.94485,38.426 -1.1,-0.0401 -26.91984,-8.34361 -57.377412,-18.45234 z M 89,116.97971 C 57.360317,106.39911 32.069884,97.418863 31.522476,96.570319 28.55916,91.976844 33.605298,93.292834 88.713798,111.48533 119.56025,121.6684 145.26082,130 145.82617,130 c 0.56536,0 11.23645,-8.3643 23.71354,-18.58734 C 191.40087,93.500838 195.37809,91.082667 193.56109,96.807526 192.86046,99.015012 149.57716,135.106 147.06241,135.57959 146.20309,135.74143 120.075,127.37148 89,116.97971 Z M 89,95.899044 C 59.025,85.996436 34.111461,77.507046 33.636581,77.033732 33.153294,76.55204 42.756546,69.507937 55.449102,61.033981 L 78.125043,45.894799 129.81252,60.019677 c 65.31289,17.848355 62.31069,16.971955 61.67312,18.003564 -0.29704,0.480618 -10.18129,8.772005 -21.965,18.425305 C 155.19062,108.18781 147.33478,113.98407 145.79786,113.95189 144.53404,113.92543 118.975,105.80165 89,95.899044 Z m 74.20737,-0.418632 C 172.16831,88.044638 179.5,81.236007 179.5,80.35012 179.5,79.07444 169.4121,75.968518 131,65.417653 104.325,58.090683 81.586054,52.074314 80.469009,52.047944 77.779173,51.984447 46.5,73.082734 46.5,74.960567 c 0,1.040259 14.100775,6.127071 49,17.676601 26.95,8.918822 49.54331,16.249062 50.20737,16.289432 0.66405,0.0404 8.53905,-6.01041 17.5,-13.446188 z M 95.775141,89.504916 c -11.133433,-6.302237 -1.44621,-21.54807 14.754079,-23.220087 7.07437,-0.73014 11.68883,0.261146 14.849,3.189889 5.47866,5.077447 1.86333,13.786452 -7.78354,18.749866 -5.40409,2.780459 -17.876543,3.512321 -21.819539,1.280332 z M 115.5744,83.414944 c 5.44603,-2.565268 8.02487,-5.951449 6.99755,-9.188238 -0.91948,-2.897026 -5.78153,-4.606976 -10.83325,-3.809979 -13.472393,2.125507 -20.595881,12.628486 -10.46562,15.430664 4.20356,1.162766 8.06196,0.506509 14.30132,-2.432447 z M 22.5,0.94263061 C 27.514766,-0.09463778 198.4122,-0.04016955 202.5,1 204.15,1.4198537 163.425,1.7648625 112,1.7666861 60.125763,1.7685257 20.280781,1.40166 22.5,0.94263061 Z"
       id="path4158"
       inkscape:connector-curvature="0" />
    <path
       style="fill:#090909"
       d="m 23,224 c -1.925,-0.40519 38.35,-0.73963 89.5,-0.74319 51.15,-0.004 90.975,0.35384 88.5,0.79423 -5.63235,1.0022 -173.224588,0.95414 -178,-0.051 z M 0.63592398,200.36043 C -0.30812586,193.47283 -0.02144635,28.160916 0.94263061,23.5 1.4049446,21.264902 1.8207424,60.423659 1.8850009,112.25 1.9482504,163.2625 1.8361658,205 1.635924,205 1.4356822,205 0.98568217,202.91219 0.63592398,200.36043 Z M 223.47943,112.5 c -6e-5,-50.6 0.12156,-71.446513 0.27027,-46.325585 0.1487,25.120928 0.14875,66.520925 1e-4,91.999995 C 223.60115,183.65349 223.47948,163.1 223.47943,112.5 Z M 89.003838,159.09676 c -42.961205,-14.21932 -56.57454,-19.10611 -56.823324,-20.39794 -0.179939,-0.93435 0.268334,-1.68353 0.996162,-1.66484 0.727828,0.0187 26.283917,8.30667 56.791308,18.41773 47.261406,15.66383 55.780526,18.21097 57.580466,17.21601 1.16187,-0.64224 11.43861,-8.81772 22.83721,-18.16772 11.39859,-9.35 21.14988,-17.15 21.66953,-17.33333 0.51964,-0.18334 0.94481,0.56024 0.94481,1.65239 0,1.37616 -6.96478,7.69471 -22.68851,20.58333 -12.47868,10.22869 -23.16618,18.55168 -23.75,18.49555 -0.58382,-0.0561 -26.48476,-8.51666 -57.557652,-18.80118 z M 89.25,137.65956 C 40.187504,121.33431 32,118.33653 32,116.69799 c 0,-1.20242 0.505361,-1.71804 1.361756,-1.38941 7.529526,2.88935 111.207434,36.68294 112.464034,36.65741 0.92082,-0.0187 11.56161,-8.11871 23.64622,-18 12.0846,-9.8813 22.3221,-17.96599 22.75,-17.96599 0.42789,0 0.77799,0.80218 0.77799,1.78262 0,1.1126 -8.25853,8.51511 -21.9721,19.69464 -12.08466,9.85161 -22.54716,18.20899 -23.25,18.57196 -0.70285,0.36296 -27.0404,-7.91238 -58.5279,-18.38966 z M 89.002091,116.16705 C 46.256182,101.95252 32.424974,96.968198 32.178767,95.689747 31.999789,94.760386 32.216466,94 32.660273,94 c 0.443806,0 26.141296,8.3426 57.105532,18.53911 31.326655,10.31586 56.838775,18.20784 57.516405,17.79226 0.66978,-0.41077 10.97822,-8.75337 22.90763,-18.53911 C 182.11924,102.00652 192.13174,94 192.43984,94 192.74793,94 193,94.875777 193,95.946171 c 0,1.323009 -7.23053,7.887079 -22.5814,20.499999 -12.41977,10.20461 -23.10727,18.54361 -23.75,18.53113 -0.64273,-0.0125 -26.59266,-8.4771 -57.666509,-18.81025 z M 90.239419,95.598201 C 59.8461,85.540885 34.768042,77.101376 34.510403,76.843736 34.252763,76.586097 43.94017,69.680051 56.037973,61.496969 L 78.033979,46.618637 130.76699,60.973132 c 29.00316,7.894973 54.19551,14.751931 55.98301,15.237686 1.7875,0.485754 3.25,1.252045 3.25,1.702869 0,1.011988 -42.55643,36.108773 -43.68609,36.028433 -0.44765,-0.0318 -25.68117,-8.2866 -56.074491,-18.343919 z M 164.49371,95.310283 C 173.57217,87.780938 181,81.046771 181,80.345466 181,79.644162 180.2125,78.67888 179.25,78.200395 178.2875,77.72191 155.34042,71.319821 128.25648,63.973531 L 79.012968,50.61664 62.930834,61.547009 C 45.320252,73.516202 44.129001,74.529001 45.752228,76.152228 c 1.532776,1.532776 96.205132,32.744972 99.491482,32.800992 2.08872,0.0356 6.68421,-3.22132 19.25,-13.642937 z M 98.5,89.520845 c -2.2,-0.819903 -4.100944,-1.497508 -4.22432,-1.505789 -0.123376,-0.0083 -0.909353,-1.339765 -1.746617,-2.958854 -2.720712,-5.261278 1.049093,-11.242208 9.970937,-15.819246 9.19826,-4.718845 22.14311,-2.936051 24.5446,3.380338 3.85853,10.148713 -15.65816,21.706112 -28.5446,16.903551 z m 18.49183,-5.636407 C 120.8178,81.734118 124,77.722518 124,75.04966 124,74.472347 123.1,73.1 122,72 c -4.10647,-4.106468 -18.19877,-1.801229 -23.911474,3.911474 -2.810844,2.810844 -2.731917,7.507812 0.161474,9.609333 3.2237,2.341432 13.21668,1.468934 18.74183,-1.636369 z M 23.5,0.94263061 C 28.636513,-0.11982018 195.02679,-0.11389014 201,0.94895659 203.475,1.3893473 163.65,1.7542423 112.5,1.7598344 60.909819,1.7654746 21.281067,1.4016009 23.5,0.94263061 Z"
       id="path4156"
       inkscape:connector-curvature="0" />
  </g>
</svg>
