<?xml version="1.0" encoding="UTF-8" standalone="no"?>
<!-- Created with Inkscape (http://www.inkscape.org/) -->

<svg
   xmlns:dc="http://purl.org/dc/elements/1.1/"
   xmlns:cc="http://creativecommons.org/ns#"
   xmlns:rdf="http://www.w3.org/1999/02/22-rdf-syntax-ns#"
   xmlns:svg="http://www.w3.org/2000/svg"
   xmlns="http://www.w3.org/2000/svg"
   xmlns:sodipodi="http://sodipodi.sourceforge.net/DTD/sodipodi-0.dtd"
   xmlns:inkscape="http://www.inkscape.org/namespaces/inkscape"
   id="svg2"
   version="1.1"
   inkscape:version="0.91 r13725"
   width="127.5"
   height="127.5"
   viewBox="0 0 127.5 127.5"
   sodipodi:docname="malefica.svg">
  <metadata
     id="metadata8">
    <rdf:RDF>
      <cc:Work
         rdf:about="">
        <dc:format>image/svg+xml</dc:format>
        <dc:type
           rdf:resource="http://purl.org/dc/dcmitype/StillImage" />
        <dc:title></dc:title>
      </cc:Work>
    </rdf:RDF>
  </metadata>
  <defs
     id="defs6" />
  <sodipodi:namedview
     pagecolor="#ffffff"
     bordercolor="#666666"
     borderopacity="1"
     objecttolerance="10"
     gridtolerance="10"
     guidetolerance="10"
     inkscape:pageopacity="0"
     inkscape:pageshadow="2"
     inkscape:window-width="1920"
     inkscape:window-height="1003"
     id="namedview4"
     showgrid="false"
     fit-margin-top="0"
     fit-margin-left="0"
     fit-margin-right="0"
     fit-margin-bottom="0"
     inkscape:zoom="1.6506859"
     inkscape:cx="-33.834376"
     inkscape:cy="96.176263"
     inkscape:window-x="0"
     inkscape:window-y="25"
     inkscape:window-maximized="1"
     inkscape:current-layer="g4140" />
  <g
     id="g4138"
     transform="matrix(0.02968734,0,0,0.02563387,-1.6331707,111.19685)">
    <g
       id="g4140"
       transform="matrix(15.937499,0,0,15.937499,-821.74741,-9500.2492)">
      <g
         id="g4141"
         transform="matrix(0.50000001,0,0,0.49999999,27.50619,318.00001)">
        <path
           style="fill:#cfd0d0"
           d="m 296.95821,631.40847 c -7.24757,-7.4643 -40.96512,-38.76716 -47.3474,-43.95661 C 224.8956,567.35588 184.60619,547.84585 159.76739,543.94545 148.1906,542.12757 123.34,543.1925 114.95758,545.86571 101.30284,550.2203 96.661459,555.3599 93.247665,569.90609 91.891866,575.68315 91.223285,577 89.645996,577 c -1.82463,0 -1.901836,-0.56478 -1.332832,-9.75 0.775848,-12.52424 2.654287,-19.39814 8.676355,-31.75 7.637491,-15.66525 17.748841,-25.40024 34.170201,-32.89833 10.77169,-4.91842 16.70287,-6.07681 31.18182,-6.08998 l 12.84154,-0.0117 -3.78798,-3.27578 c -5.16995,-4.4709 -17.56141,-11.47618 -25.19827,-14.24538 -5.99257,-2.17297 -7.02736,-2.24283 -21,-1.41774 -19.87095,1.17339 -31.897001,1.06254 -36.69683,-0.33825 -7.708938,-2.24979 -14.722853,-7.50167 -24.210163,-18.12808 -13.473876,-15.09162 -12.905671,-16.01311 5.893588,-9.55797 7.324116,2.5149 21.641575,6.81963 31.816575,9.56608 17.94828,4.84462 18.91752,4.99513 32.5,5.04668 7.7,0.0292 16.925,-0.43907 20.5,-1.04066 14.82765,-2.49513 30.85323,-0.76784 43.95719,4.73786 13.14404,5.52254 34.78069,21.92214 53.95074,40.89222 6.82436,6.75317 12.60012,12.08631 12.83501,11.85141 0.2349,-0.23489 0.91247,-5.10727 1.50572,-10.82751 1.19417,-11.51434 1.36894,-10.82469 -5.64194,-22.26288 -4.89341,-7.98355 -8.39631,-19.45241 -9.45334,-30.95123 -0.77807,-8.46423 -1.38068,-10.43686 -6.02619,-19.72672 -3.56881,-7.13674 -5.6172,-12.78076 -6.63785,-18.28953 -0.98595,-5.32145 -3.28981,-11.79747 -6.93718,-19.5 -6.69071,-14.12946 -7.014,-15.51768 -9.55552,-41.03252 -4.27368,-42.90428 -8.03132,-63.83533 -14.42456,-80.34868 -6.97847,-18.02492 -16.93004,-38.7977 -27.13984,-56.65131 -8.32579,-14.5591 -12.64188,-28.23435 -14.46739,-45.83894 -2.3515,-22.67717 3.96477,-41.26044 19.10958,-56.22285 7.25879,-7.17137 10.48154,-8.96178 44.78802,-24.882262 10.64935,-4.942002 21.72133,-10.766433 24.60441,-12.94318 5.93298,-4.47944 11.03353,-11.553142 12.65718,-17.5536 3.81606,-14.102883 -6.05266,-33.019236 -22.71686,-43.543628 -9.45127,-5.969018 -9.93194,-8.457496 -1.5765,-8.161766 10.9531,0.387671 25.74937,6.503484 34.61556,14.307815 2.44561,2.152718 6.28377,6.709517 8.52924,10.126221 11.75974,17.893646 11.39178,41.500595 -0.9297,59.644773 -5.57436,8.208607 -20.9069,23.623697 -33.66361,33.844857 -9.79331,7.84676 -18.09894,16.9933 -21.99562,24.22256 -1.47073,2.72855 -1.88655,5.59392 -1.88655,13 0,9.0415 0.18489,9.86198 3.83077,17 7.69116,15.05801 24.06324,36.62232 32.95152,43.40174 l 3.32966,2.53966 9.44403,-4.08217 c 16.72703,-7.23026 25.96223,-9.13167 44.94402,-9.25341 19.79762,-0.12697 28.30802,1.40125 44.5,7.99088 6.05,2.46216 11.508,4.71239 12.12888,5.00049 1.52314,0.70678 15.67318,-13.57649 22.70248,-22.91624 3.12321,-4.14978 7.89641,-11.28813 10.60711,-15.863 C 426.82503,167.38143 423.1582,151.87361 399,131.86923 376.92687,113.5914 363.14015,98.916379 358.48106,88.739595 c -9.75555,-21.308932 -5.28535,-46.699415 10.78167,-61.23923 10.03871,-9.084515 24.14215,-15.230203 35.90659,-15.646591 8.58596,-0.303889 7.9383,1.802175 -2.88692,9.387605 -15.91079,11.148981 -21.66939,20.627745 -21.7397,35.783938 -0.0371,8.006504 0.16546,8.844794 3.32922,13.775086 1.85282,2.887373 5.22711,6.861237 7.49842,8.83081 4.29235,3.722115 28.21096,15.846286 46.95175,23.799497 13.02375,5.52702 20.58093,10.49444 27.52534,18.09273 12.01309,13.14424 18.49751,35.77649 16.16069,56.4049 -1.46012,12.88925 -5.9366,25.87475 -14.78143,42.87831 -22.38993,43.04309 -29.19677,59.28733 -33.29958,79.46814 -3.10578,15.27663 -7.3576,47.28903 -8.91441,67.11746 -1.263,16.08633 -1.88892,18.38158 -8.52749,31.27016 -3.10861,6.03529 -5.64501,12.42434 -6.01032,15.1397 -1.13,8.39924 -3.54871,15.53901 -8.12173,23.97448 -4.02445,7.42357 -4.5844,9.27875 -5.43298,18 -1.17669,12.09339 -4.71392,23.88844 -9.51358,31.72341 -2.02156,3.3 -4.37975,7.18345 -5.24042,8.62988 -1.34087,2.25347 -1.41878,4.14824 -0.5443,13.23788 0.5613,5.8344 1.28409,10.87155 1.60621,11.19366 0.32211,0.32212 4.33051,-3.31505 8.90754,-8.0826 15.58789,-16.23671 40.49635,-36.33715 52.36437,-42.2566 14.54309,-7.2537 30.93797,-9.68706 48.73229,-7.23292 15.70178,2.16554 32.55499,1.61862 44.76771,-1.4528 11.43927,-2.87689 27.68148,-7.76473 43.7734,-13.17292 15.7106,-5.28002 15.99103,-3.8548 2.24663,11.41777 -8.75694,9.73059 -10.92778,11.55706 -17.71413,14.90412 l -7.73416,3.81453 -16.53587,-0.47172 c -30.81965,-0.87919 -35.93272,-0.65338 -42.33954,1.86987 -5.46186,2.15109 -16.65491,9.11896 -23.06622,14.35912 l -2.86989,2.34565 9.50336,-0.41564 c 23.01217,-1.00647 46.82396,8.99641 59.70708,25.08181 5.82687,7.27523 13.19,21.6685 15.46517,30.23091 0.87686,3.3 1.88049,10.3875 2.23029,15.75 0.61124,9.37041 0.55616,9.75 -1.41468,9.75 -1.74364,0 -2.30747,-1.16038 -3.76573,-7.75 -0.94327,-4.2625 -2.30931,-8.90882 -3.03564,-10.32515 -5.69933,-11.11365 -29.20451,-18.35824 -51.98039,-16.02099 -20.56175,2.11004 -37.09331,6.90857 -55.82142,16.203 -30.04128,14.90895 -45.90147,26.98626 -84.23421,64.14314 -7.23442,7.0125 -13.63555,12.75 -14.22475,12.75 -2.30096,0 -2.02757,-1.92319 0.83516,-5.87507 2.18652,-3.0184 2.58402,-4.12493 1.48181,-4.12493 -3.12134,0 -1.21218,-4.35142 8.64183,-19.69672 40.69434,-63.37185 39.13761,-60.66254 39.13761,-68.11489 0,-6.56479 -1.77299,-8.8593 -5.8067,-7.51473 -2.60648,0.86883 -2.72538,1.21037 -2.9125,8.36607 -0.35586,13.60846 -7.19145,26.03106 -20.66847,37.5617 -9.66855,8.27219 -18.84896,14.40122 -28.64476,19.12382 -6.63594,3.19922 -7.85804,3.46143 -14.5,3.11104 -6.02939,-0.31808 -8.71381,-1.09299 -15.90904,-4.59243 -10.35454,-5.036 -26.51453,-16.83668 -33.09163,-24.16485 -8.54592,-9.52181 -15.71694,-28.09661 -13.65705,-35.37526 0.68389,-2.41653 0.45071,-2.92576 -1.7172,-3.75 -3.84382,-1.46142 -4.36547,-1.22885 -5.99584,2.67318 -1.00134,2.39654 -1.29147,4.95253 -0.85524,7.53452 0.68151,4.03384 13.07455,25.52492 23.54995,40.83855 C 287.01165,597.98466 302,622.37884 302,624.19041 302,625.19124 301.27656,626 300.38131,626 c -1.29741,0 -1.09892,0.68145 1,3.43328 2.8233,3.70153 3.40225,6.56672 1.3269,6.56672 -0.71049,0 -3.29799,-2.06619 -5.75,-4.59153 z m 40.82301,-97.94231 c 6.29459,-2.84156 15.37254,-11.24842 22.79328,-21.10827 2.96459,-3.93901 7.1398,-8.54758 9.27825,-10.24127 2.13846,-1.69369 5.72752,-5.90267 7.97569,-9.3533 3.94227,-6.05083 7.66348,-14.60473 6.75063,-15.51758 -0.98973,-0.98973 -5.68607,3.60129 -9.21082,9.00426 -3.61026,5.53404 -5.55354,6.87725 -6.86939,4.74816 -1.05211,-1.70235 3.39876,-16.02593 8.00605,-25.76468 2.48811,-5.25929 6.95362,-12.39458 10.32626,-16.5 12.2199,-14.87495 18.14434,-26.3002 18.15906,-35.01967 0.008,-4.76564 -3.40289,-22.15423 -4.63414,-23.62435 -0.1891,-0.22579 -1.13409,0.30144 -2.09996,1.17163 -1.33295,1.20091 -3.80439,1.5579 -10.25613,1.48146 -5.18247,-0.0614 -9.67089,0.42457 -11.5,1.24514 l -3,1.34585 4.5,0.7321 c 2.475,0.40266 6.3,0.29085 8.5,-0.24846 9.75021,-2.39019 9.5,-2.43283 9.5,1.61898 0,4.66898 -2.15256,8.82422 -5.98491,11.5531 -2.14611,1.52816 -3.01509,2.96843 -3.01509,4.99727 0,4.84575 -4.92316,7.04529 -16.16832,7.22359 C 361.32397,421.36087 357,420.21609 357,417.54815 c 0,-0.75982 0.5625,-1.57824 1.25,-1.81872 0.89905,-0.31447 0.71515,-1.03977 -0.65499,-2.58333 -2.45691,-2.76788 -3.38338,-2.70468 -4.76378,0.32497 -1.15424,2.53328 -6.95037,5.19137 -8.81168,4.04101 C 343.4588,417.16552 343,416.00852 343,414.94098 c 0,-2.60219 -0.86141,-2.44794 -4.20187,0.75243 -2.10116,2.01303 -3.09872,2.406 -3.94909,1.55563 -1.49536,-1.49536 0.39748,-6.19255 3.77351,-9.36417 l 2.46174,-2.31269 -2.29214,-1.7441 c -1.81539,-1.38133 -2.07755,-2.11683 -1.26038,-3.53609 1.25633,-2.18202 21.46061,-12.46084 30.22859,-15.37863 l 6.35236,-2.11393 8.39527,2.61751 c 4.6174,1.43963 8.73129,3.16121 9.14199,3.82573 0.42103,0.68124 1.30137,-1.83422 2.01837,-5.76722 3.26588,-17.91462 3.11306,-19.38998 -3.83785,-37.05206 -4.3963,-11.17086 -4.47804,-11.24227 -12.11825,-10.58693 -2.24009,0.19214 -13.47671,6.62418 -34.71225,19.86992 -9.075,5.66056 -17.41556,10.29231 -18.53458,10.29278 -1.11902,4.6e-4 -7.64402,-3.53289 -14.5,-7.8519 -16.99956,-10.70908 -37.03886,-22.21899 -38.91845,-22.35347 -6.33765,-0.45344 -7.097,0.038 -9.97492,6.45621 -1.54138,3.4375 -4.03109,9.90378 -5.53268,14.36952 -2.9802,8.86311 -3.06758,14.06862 -0.43892,26.14837 1.07589,4.94415 1.6845,6.1301 2.88175,5.6155 0.83479,-0.35882 4.7714,-1.79023 8.74803,-3.18091 l 7.23023,-2.52853 7.09076,2.41302 c 9.7658,3.32336 29.17528,13.02385 30.42338,15.20502 0.81082,1.41699 0.54312,2.15895 -1.27927,3.54554 l -2.30467,1.75355 2.15705,1.9521 c 3.17495,2.87329 5.34143,7.46768 4.10461,8.7045 -1.10023,1.10023 -2.399,0.69194 -5.90232,-1.85552 -2.14327,-1.5585 -2.25,-1.53396 -2.25,0.51725 0,1.18435 -0.68308,2.41548 -1.51796,2.73586 -2.3423,0.89882 -7.09748,-1.50583 -8.33088,-4.21286 -1.3347,-2.92934 -2.29063,-3.04077 -4.56132,-0.53169 -1.126,1.24423 -1.35223,2.1281 -0.65498,2.55902 1.77835,1.09908 1.19659,3.39895 -1.18486,4.68412 -2.71889,1.46726 -19.88807,1.3878 -22.67731,-0.10496 C 263.91583,418.3494 262,415.98367 262,413.77496 c 0,-1.1452 -1.75258,-3.70056 -3.89462,-5.67857 -3.8949,-3.59666 -6.71988,-10.33145 -5.57982,-13.3024 0.53864,-1.40367 -3.08368,-5.56921 -4.02466,-4.62822 -1.46984,1.46984 -4.68199,21.90053 -4.22888,26.89751 0.66995,7.38826 3.10499,11.92878 14.7141,27.43672 5.35243,7.15 10.9307,15.36831 12.39617,18.26291 3.39779,6.71135 8.61771,22.23872 8.61771,25.63459 0,4.29685 -3.16758,3.23558 -5.93977,-1.99005 -2.30463,-4.34425 -8.52425,-10.27676 -9.62261,-9.1784 -0.27937,0.27937 0.43596,3.03077 1.58962,6.11422 2.46786,6.59593 9.4406,16.42955 13.90264,19.6068 1.73211,1.23337 4.94113,4.66803 7.13118,7.63258 5.69409,7.70781 15.53266,18.00314 19.61625,20.52693 9.94004,6.14329 20.87962,6.97212 31.10391,2.35658 z M 318,513.94519 c -2.475,-0.50517 -5.74927,-1.43397 -7.27614,-2.06399 -3.51437,-1.45011 -10.59809,-9.28299 -13.72406,-15.17551 -3.02725,-5.70642 -2.3908,-6.58498 7.26637,-10.03051 6.36549,-2.2711 8.73431,-2.57331 19.73383,-2.51754 10.27744,0.0521 13.85718,0.48939 20.13298,2.4594 10.35478,3.25043 11.01802,4.20842 7.42638,10.72671 -4.71537,8.55767 -7.29415,11.38195 -12.80105,14.01969 -6.03388,2.89015 -14.24441,3.91131 -20.75831,2.58175 z m 1.7848,-34.81027 c -1.80664,-1.57579 -4.21674,-3.15555 -5.35577,-3.51057 -4.68342,-1.45974 -11.11707,-10.26964 -9.02642,-12.3603 0.99796,-0.99796 10.76976,2.79091 13.92412,5.39887 3.76818,3.11546 6.63265,2.94551 11.17327,-0.66292 2.07626,-1.65 4.81157,-3 6.07849,-3 1.26691,0 2.58159,-0.45 2.92151,-1 0.95215,-1.54061 4.5,-1.1835 4.5,0.45295 0,3.3189 -2.63742,6.7671 -7.41874,9.69936 -2.79469,1.71391 -6.35329,4.18079 -7.90799,5.48195 -3.6451,3.05066 -4.8992,2.9802 -8.88847,-0.49934 z M 276.69048,412.2619 C 275.15184,410.72326 275,410.71792 275,412.20238 c 0,0.89702 0.5625,1.83185 1.25,2.07738 2.0432,0.72972 2.24833,-0.21 0.44048,-2.01786 z m 96.96444,0.19497 c 0.90001,-2.34537 -0.0715,-2.62076 -1.45125,-0.41139 -0.77256,1.23707 -0.83892,1.95452 -0.18076,1.95452 0.57192,0 1.30633,-0.69441 1.63201,-1.54313 z M 275,395.15829 c 0,-1.70459 -8.21221,-3.31678 -13.31803,-2.61455 -4.6221,0.6357 -4.90492,0.82007 -3.18604,2.07694 2.07262,1.51554 16.50407,1.98563 16.50407,0.53761 z"
           id="path4152"
           inkscape:connector-curvature="0" />
        <path
           style="fill:#aeafb0"
           d="M 286.83526,620.40799 C 248.28195,583.4157 233.63322,572.38629 204.5,558.41564 173.67321,543.63286 148.38497,539.014 122.75062,543.48426 c -20.8504,3.636 -26.499642,9.03084 -31.169391,29.76574 -0.340633,1.5125 -1.126196,2.75 -1.745694,2.75 -1.851781,0 -0.317453,-18.45893 2.202711,-26.5 6.930319,-22.11253 18.742374,-36.13093 38.461754,-45.64596 11.40044,-5.50096 20.2304,-7.14626 35.40726,-6.59749 l 12.40726,0.44862 -3.40726,-2.85617 c -6.10365,-5.11646 -13.85606,-9.95345 -22.71575,-14.17314 -9.77914,-4.6576 -8.237,-4.53321 -44.72744,-3.60787 L 90.42813,477.5 82.964065,473.80894 C 76.89189,470.80618 74.00817,468.48598 67.5,461.36679 56.908254,449.78064 55.574305,448.02 56.62132,447.00839 c 0.486569,-0.47011 7.572436,1.39442 15.87868,4.17822 8.25,2.76496 22.875,7.04281 32.5,9.50634 l 17.5,4.47916 16,-0.59529 c 8.8,-0.32741 21.4,-0.85624 28,-1.17517 12.81365,-0.6192 19.49965,0.3814 30.80009,4.60944 12.56945,4.70283 37.28067,23.404 56.39477,42.6789 6.70718,6.7636 12.42998,11.91703 12.71735,11.45206 0.28736,-0.46497 0.99948,-5.90354 1.58248,-12.08573 1.16717,-12.37681 1.36523,-11.54042 -5.31123,-22.42892 -4.96287,-8.09384 -8.45053,-19.26906 -9.71451,-31.1274 -0.9493,-8.90607 -1.60128,-11.05949 -5.95996,-19.68521 -2.69173,-5.32687 -5.16766,-11.40187 -5.50207,-13.5 -1.34682,-8.45026 -3.93146,-16.08405 -8.53703,-25.21439 -2.66348,-5.28022 -5.32091,-11.6254 -5.9054,-14.1004 -0.5845,-2.475 -2.41373,-17.39759 -4.06496,-33.16131 -5.89713,-56.29766 -10.39347,-72.07548 -32.70632,-114.76756 -14.32128,-27.40147 -16.0831,-31.20101 -18.72966,-40.39233 -8.85517,-30.75344 -4.05936,-56.54661 13.93865,-74.96576 7.65614,-7.83529 10.20695,-9.31806 38.9978,-22.669216 27.03125,-12.535174 32.53157,-15.77878 37.81224,-22.298359 5.95177,-7.348122 7.09974,-10.443254 7.14584,-19.266492 0.0372,-7.111526 -0.33498,-8.786611 -3.28197,-14.772815 -4.14258,-8.414764 -12.31949,-17.354312 -20.73564,-22.669591 -9.83408,-6.210787 -8.31846,-8.211816 4.28733,-5.660415 17.7768,3.598012 32.78319,14.50206 39.63716,28.801442 8.60628,17.955175 6.91542,37.877054 -4.58055,53.968763 -6.13388,8.586013 -19.15783,21.714443 -31.28441,31.535363 -11.55589,9.35875 -14.78063,12.63058 -20.30731,20.60386 -4.82104,6.95525 -6.64467,13.78716 -5.89456,22.08284 1.05869,11.70839 14.40305,33.83631 30.8409,51.1411 9.47732,9.97715 9.73394,10.09448 15.59337,7.12959 26.11295,-13.21321 60.06329,-15.35444 87.88878,-5.54311 4.88335,1.72188 11.07035,4.23965 13.74889,5.59504 l 4.87007,2.46434 3.62993,-2.91902 c 5.69659,-4.58095 18.56427,-19.57709 24.66189,-28.74123 7.53144,-11.31906 11.35842,-19.25302 12.65829,-26.24269 2.88463,-15.51133 -2.53433,-25.56064 -23.53179,-43.63903 -20.77834,-17.88973 -33.68307,-31.722821 -37.92059,-40.648601 -7.73746,-16.297941 -7.60783,-32.374503 0.38877,-48.215677 6.50568,-12.88769 22.36321,-23.976243 39.14556,-27.37298 12.99587,-2.630353 14.03644,-0.669744 3.43965,6.480891 C 386.67056,30.681594 379.78488,41.61958 379.64436,56.5 c -0.0936,9.916172 1.60155,13.813435 9.44219,21.707749 4.72727,4.759626 8.22246,6.941914 21.0412,13.13748 8.45474,4.086351 20.77225,9.771291 27.37225,12.633201 13.47142,5.84152 22.36548,11.71455 28.40808,18.75876 11.87827,13.84718 17.98635,36.67346 15.18915,56.76281 -1.766,12.68329 -5.77479,23.70311 -15.46065,42.5 -17.51042,33.98166 -24.43807,49.26139 -29.47022,65 -3.00268,9.39124 -7.87911,40.05104 -10.24741,64.429 -3.04577,31.35142 -3.52973,33.78429 -8.66275,43.54755 -5.63264,10.71357 -7.02738,14.59318 -8.73445,24.2959 -1.00365,5.70454 -2.7069,10.27927 -6.40186,17.19461 -4.63567,8.67593 -5.11746,10.23168 -6.0833,19.64359 -1.59318,15.52504 -4.32866,23.53385 -12.13766,35.53604 l -3.99923,6.1467 1.01044,11.63454 c 0.55574,6.399 1.26204,12.04165 1.56957,12.53923 0.30752,0.49758 6.75323,-5.25397 14.32381,-12.78123 14.38705,-14.30473 33.05781,-29.56316 44.29732,-36.20137 3.63046,-2.1442 10.15546,-5.12496 14.5,-6.6239 7.13594,-2.46203 9.25184,-2.72508 21.89916,-2.72253 7.7,0.002 21.68402,0.36858 31.07561,0.8156 l 17.07561,0.81277 14.92439,-3.72816 c 8.20841,-2.05048 23.01864,-6.3687 32.91161,-9.59603 18.31844,-5.97593 21.9539,-6.32236 17.89803,-1.70555 -18.16519,20.67748 -21.32701,23.28825 -31.88525,26.32811 -5.46238,1.57269 -7.97816,1.6229 -28.07678,0.56034 -21.12101,-1.11661 -22.35487,-1.07998 -28.5,0.84624 -3.53277,1.10736 -8.42993,3.16922 -10.88258,4.58191 -5.24325,3.02003 -19.95994,13.69362 -20.00768,14.51099 -0.0181,0.3104 5.09811,0.36795 11.36942,0.1279 18.47459,-0.70715 34.68908,4.22 48.87087,14.85056 10.4868,7.86081 21.25548,24.67803 25.2659,39.45719 2.06015,7.59208 3.18895,24.5 1.63565,24.5 -0.60374,0 -1.57045,-1.9125 -2.14825,-4.25 -2.5196,-10.19318 -3.3339,-12.4603 -5.74912,-16.00651 -3.17169,-4.65691 -11.53315,-8.92511 -23.25446,-11.87051 -7.4054,-1.86087 -10.31298,-2.06006 -23,-1.5757 -22.873,0.87325 -39.50739,5.42346 -63.02297,17.23943 -28.11641,14.12778 -42.33095,24.91607 -78.81195,59.81526 C 354.76647,627.40839 347.43814,634 346.90286,634 c -2.02349,0 1.47158,-4.67697 26.90262,-36 6.03194,-7.42946 0.37811,-1.47803 -13.09189,13.78099 -5.93253,6.72046 -11.22003,12.21901 -11.75,12.21901 -2.21003,0 -3.43769,2.04861 31.44321,-52.46959 C 396.46256,546.43556 397,545.37061 397,538.65062 c 0,-6.86661 -2.22926,-10.13315 -6.23013,-9.129 -3.87063,0.97147 -5.17412,2.85451 -3.77964,5.46013 1.53399,2.86627 -1.79974,16.00471 -6.11565,24.10219 -7.39808,13.88022 -36.84198,36.06519 -51.57368,38.859 -6.68691,1.26814 -14.09483,-0.58627 -24.3009,-6.08322 -10.04553,-5.41048 -24.03547,-15.93441 -29.52605,-22.21097 -8.84356,-10.10952 -15.89916,-28.12162 -13.5996,-34.71815 1.11059,-3.18586 0.23387,-4.36337 -4.04915,-5.43834 -3.73019,-0.93621 -6.03069,2.76398 -5.97762,9.6146 0.0446,5.75218 2.7161,10.95577 17.0459,33.20168 C 291.02686,606.66892 301,622.47629 301,623.19722 c 0,2.27781 -2.90522,-0.34704 -13.5,-12.19722 -6.39254,-7.15 -11.83567,-13 -12.09586,-13 -0.26018,0 5.13212,6.93858 11.9829,15.41906 12.46477,15.42997 15.20773,19.3195 14.27924,20.248 -0.27267,0.27267 -6.94663,-5.69391 -14.83102,-13.25907 z m 49.72239,-85.51544 c 6.60626,-2.47172 16.90036,-11.65709 24.46975,-21.83421 2.68282,-3.60709 6.83138,-8.19067 9.21901,-10.18573 2.38763,-1.99507 6.00434,-6.04507 8.03712,-9 4.13099,-6.00498 8.02321,-15.92268 6.75633,-17.21571 -1.38837,-1.41701 -5.58463,2.10724 -9.99446,8.39388 -4.27243,6.09078 -6.52522,6.97275 -5.4608,2.13793 2.82726,-12.84196 9.81732,-27.73804 17.451,-37.18871 12.32819,-15.26258 18.93961,-27.71004 18.95463,-35.68629 0.009,-4.74577 -4.2025,-24.85931 -5.47065,-26.12746 -0.29738,-0.29739 -1.46277,0.44903 -2.58975,1.6587 -1.12698,1.20967 -2.47223,1.93786 -2.98944,1.61821 -1.43762,-0.8885 -1.12186,-7.97779 0.66005,-14.81882 2.24097,-8.60346 1.26404,-14.77033 -4.7093,-29.72752 l -5.0357,-12.60934 -5.09762,0.48981 c -5.68144,0.54592 -13.16793,4.48234 -37.75782,19.85322 -20.19353,12.62277 -17.8219,11.83754 -24.11785,7.98518 C 315.92197,360.82441 307.65,355.74642 300.5,351.35126 279.45044,338.41193 272.09646,334.65815 267.63307,334.5746 c -3.9227,-0.0734 -4.0278,0.0195 -6.69898,5.9254 C 255.91427,351.59864 252,364.05055 252,368.92075 c 0,2.61876 0.67013,6.97041 1.48918,9.67032 2.87234,9.4684 1.29874,16.43069 -2.558,11.31769 -0.98692,-1.30838 -2.1165,-2.05677 -2.51019,-1.66308 -1.33832,1.33832 -5.32638,21.2298 -5.364,26.75432 -0.0518,7.61338 2.96382,13.59286 14.82216,29.38948 5.41305,7.21079 11.2513,15.90352 12.9739,19.31719 8.1843,16.21881 11.36251,34.86873 3.71968,21.82722 C 271.93209,481.02798 266.38114,476 264.0472,476 c -1.69654,0 -0.73372,3.78291 3.03363,11.919 2.06278,4.45485 5.0335,8.43273 9.70854,13 3.70496,3.61955 8.30551,8.59207 10.22346,11.05005 10.89026,13.95663 17.46036,19.84487 25.76565,23.09163 6.58755,2.57525 16.63673,2.5042 23.77917,-0.16813 z M 316.7175,512.9712 c -5.59523,-1.41038 -9.05485,-3.45246 -12.50361,-7.38038 -4.29077,-4.88692 -8.51946,-12.35214 -7.90457,-13.95452 0.28261,-0.73647 3.6176,-2.48949 7.41109,-3.8956 6.14793,-2.27882 8.35751,-2.55436 20.33842,-2.53621 13.80535,0.0209 22.79217,1.72798 27.4554,5.21521 1.97067,1.4737 1.96783,1.51767 -0.37334,5.78265 -4.65122,8.47323 -7.29887,11.56578 -12.17323,14.21873 -5.56343,3.02801 -15.73119,4.19334 -22.25016,2.55012 z m 5.21776,-33.54921 c -0.7203,-0.8679 -3.41678,-2.64578 -5.99218,-3.95084 C 311.06766,473.0006 306,467.87952 306,465.42327 c 0,-1.77146 0.0653,-1.76962 5.98992,0.16822 2.67614,0.87532 5.64293,2.45032 6.59288,3.5 1.17607,1.29955 3.06412,1.90851 5.9172,1.90851 2.85308,0 4.74113,-0.60896 5.9172,-1.90851 1.86834,-2.06449 11.41361,-5.59401 12.41645,-4.59118 1.1118,1.11181 -2.32275,5.91452 -5.85936,8.19344 -1.91086,1.23132 -5.31833,3.60395 -7.57215,5.27251 -4.68057,3.46513 -5.64343,3.65285 -7.46688,1.45573 z m -50.32469,-59.36704 c -5.51836,-0.76502 -10.13098,-4.83992 -9.11217,-8.04991 0.41184,-1.29759 -0.3861,-2.39055 -2.86281,-3.92124 C 256.43897,406.10818 253,400.1497 253,396.58675 c 0,-2.07202 2.30457,-2.53481 5.05038,-1.0142 2.63232,1.45776 9.69062,1.70277 16.94962,0.58836 l 4.5,-0.69085 -6.07732,-2.29238 c -4.92593,-1.85807 -7.1047,-2.15949 -11.5,-1.59095 -5.40045,0.69856 -5.41527,0.69308 -3.61414,-1.33607 0.99469,-1.12063 5.00115,-3.06407 8.90324,-4.31876 l 7.0947,-2.28125 7.09676,2.41356 c 3.90322,1.32746 12.04676,4.89357 18.09676,7.92468 11.42638,5.72473 13.92718,8.36382 9.07868,9.58072 l -2.5542,0.64106 3.48776,4.07466 c 3.07096,3.58773 4.61274,7.71467 2.88212,7.71467 -0.33311,0 -1.94263,-1.125 -3.57673,-2.5 -3.89241,-3.27524 -4.89854,-3.15454 -4.16763,0.5 0.52382,2.61909 0.31557,3 -1.64013,3 -1.28284,0 -3.61012,-1.49568 -5.446,-3.5 -1.76324,-1.925 -3.46384,-3.5 -3.77912,-3.5 -0.31528,0 -1.96411,1.29927 -3.66407,2.88727 -2.85372,2.66577 -2.93855,2.9271 -1.10576,3.40638 3.14043,0.82124 2.32021,2.51927 -1.76492,3.65377 -4.07357,1.13129 -8.05709,1.15868 -15.63943,0.10753 z m 7.49519,-6.95616 C 277.39759,411.50312 276,409.70312 276,409.09879 276,408.49446 275.55,408 275,408 c -0.55,0 -1,1.32764 -1,2.95031 0,3.21847 2.04351,4.97007 5.85576,5.01928 2.29732,0.0297 2.27872,-0.0415 -0.75,-2.8708 z m 8.32281,-2.67022 c 1.5968,-1.5968 2.09456,-3.42857 0.93167,-3.42857 -0.35186,0 -1.22446,0.7875 -1.93909,1.75 -1.11908,1.50721 -1.59877,1.56697 -3.45762,0.43071 -2.71654,-1.66052 -3.58035,-0.94039 -1.43972,1.20024 2.04041,2.04041 3.897,2.05539 5.90476,0.0476 z m 73.82143,9.45265 c -3.64791,-1.0533 -4.26485,-2.80307 -1.26492,-3.58757 1.83279,-0.47928 1.74796,-0.74061 -1.10576,-3.40638 -1.69996,-1.588 -3.34879,-2.88727 -3.66407,-2.88727 -0.31528,0 -2.01588,1.575 -3.77912,3.5 -1.83588,2.00432 -4.16316,3.5 -5.446,3.5 -1.9557,0 -2.16395,-0.38091 -1.64013,-3 0.73091,-3.65454 -0.27522,-3.77524 -4.16763,-0.5 -2.7758,2.33568 -5.18237,3.2339 -5.18237,1.93426 0,-1.34836 2.46371,-5.17085 5.19326,-8.05746 l 2.95328,-3.1232 -2.63971,-0.66253 c -4.49706,-1.12869 -2.57377,-3.7927 5.99317,-8.30134 13.84044,-7.28401 25.45968,-11.55179 29.63329,-10.88441 10.72873,1.7156 20.94823,8.67372 10.72535,7.30255 -2.76761,-0.37122 -6.33355,0.13654 -10.75,1.53072 l -6.60864,2.08619 4,0.90667 c 3.96404,0.89852 13.58481,0.50832 18.60865,-0.75472 1.90362,-0.47859 2.77658,-0.21821 3.23001,0.96342 1.07552,2.80277 -2.29344,9.36878 -5.97425,11.64365 -2.47671,1.53069 -3.27465,2.62365 -2.86281,3.92124 1.06061,3.34168 -3.54283,7.22192 -9.5859,8.07998 -7.09521,1.00745 -11.6772,0.94784 -15.6657,-0.2038 z m 12.93498,-6.14628 C 375.27834,412.01357 375.19604,408 374.06739,408 c -0.51294,0 -1.21454,0.88826 -1.55911,1.97391 -0.34457,1.08566 -1.8374,2.94955 -3.31739,4.14198 l -2.69089,2.16806 3.45029,-0.65703 c 1.89766,-0.36137 3.80327,-1.21276 4.23469,-1.89198 z m -6.70879,-3.35399 c 2.10717,-2.10716 1.28975,-2.87623 -1.32287,-1.24463 -1.72908,1.07983 -2.35602,0.99021 -4.09738,-0.5857 C 360.27453,406.93847 360,406.90438 360,408.29532 c 0,1.63004 2.53248,3.6189 4.67857,3.67427 0.64822,0.0167 1.90714,-0.69816 2.79762,-1.58864 z"
           id="path4150"
           inkscape:connector-curvature="0" />
        <path
           style="fill:#8e8f90"
           d="m 278.5,611.95 c -29.77003,-28.19912 -44.88082,-39.51992 -68.92107,-51.63474 -30.61436,-15.42777 -54.57073,-21.05219 -78.57807,-18.44837 -13.06787,1.41734 -21.20349,3.77125 -27.91147,8.07575 -5.374622,3.44888 -7.832883,7.56815 -10.72561,17.97272 -3.628629,13.05146 -4.296376,0.44489 -0.790039,-14.91536 0.816078,-3.575 3.769495,-11.19577 6.563151,-16.93505 4.292618,-8.81874 6.293708,-11.63478 12.919258,-18.18067 6.20444,-6.12984 9.78035,-8.6986 17.14187,-12.3139 12.81742,-6.29472 19.79579,-7.92298 34.30198,-8.00365 10.40681,-0.0579 12.57826,0.22227 16.35548,2.10999 l 4.35547,2.17673 -2.35547,-2.51315 C 174.71784,492.79183 159.35883,482.88106 148.8046,478.6587 143.08108,476.36893 140.69628,476 131.61866,476 c -5.79712,0 -15.08109,0.49399 -20.63103,1.09776 -19.677689,2.1407 -29.931892,-1.77341 -43.690869,-16.67715 -8.95985,-9.70532 -10.858099,-12.19261 -9.977354,-13.07335 0.276504,-0.2765 6.055252,1.37434 12.841664,3.66854 20.276818,6.85475 43.680139,12.94854 54.541209,14.20152 8.28753,0.95608 12.698,0.90538 23.5,-0.27017 31.25904,-3.40182 45.15221,-0.79317 64.44213,12.09998 13.17497,8.80599 26.22478,19.68712 39.73767,33.13385 7.08514,7.05046 13.22015,12.81902 13.63336,12.81902 1.2419,0 1.91977,-3.93803 2.61709,-15.20383 l 0.66255,-10.70383 -4.13904,-6.35284 C 257.97356,479.7154 253,464.02031 253,452.37858 c 0,-3.63902 -1.13553,-6.99218 -5.00929,-14.79216 C 245.2356,432.03889 242.7421,425.925 242.44959,424 c -0.52396,-3.44813 -0.49558,-3.42974 1.91472,1.24049 2.84633,5.51509 9.75775,15.49542 17.18786,24.81985 5.82648,7.31196 9.95231,14.97015 13.72279,25.47167 4.35536,12.13055 3.7773,15.82469 -1.29456,8.27288 -2.87323,-4.27814 -8.81803,-9.02327 -10.21945,-8.15715 -1.45352,0.89832 0.089,7.11198 3.38765,13.64663 1.83106,3.62731 5.79337,8.68302 10.23691,13.06177 3.98727,3.92912 9.54158,10.08227 12.34292,13.67367 7.21424,9.24884 14.42346,15.68276 21.0535,18.78934 4.70783,2.2059 7.13147,2.67926 13.71807,2.67926 13.53877,0 22.37646,-5.63394 36.07651,-22.99841 3.47146,-4.4 8.66367,-10.24294 11.53824,-12.98431 6.3398,-6.04604 10.37234,-12.21276 12.59314,-19.25796 1.26215,-4.00399 1.38509,-5.56475 0.50747,-6.44237 -0.87762,-0.87762 -2.32504,0.0341 -5.97454,3.76321 -2.64898,2.70679 -5.53765,6.04643 -6.41926,7.42143 -4.98811,7.77965 -1.73157,-7.01042 4.50283,-20.45031 2.45493,-5.29222 6.941,-12.44465 10.97619,-17.5 7.29224,-9.13584 15.59629,-22.38055 17.52316,-27.94891 0.64694,-1.86958 1.17626,-5.00462 1.17626,-6.96676 0,-3.99118 -4.817,-24.11943 -6.117,-25.56039 -0.49796,-0.55196 -1.67831,-0.16386 -2.92042,0.96024 -1.78496,1.61536 -2.2212,1.67666 -3.03424,0.42637 -1.01669,-1.56346 -0.44938,-7.33415 1.26244,-12.84154 2.13509,-6.86915 0.47627,-17.66949 -4.61582,-30.05292 -6.31134,-15.34852 -6.57478,-15.81749 -7.72783,-13.7571 -0.65318,1.16717 -1.73379,1.46399 -3.81469,1.04781 -3.31528,-0.66306 -9.23507,2.50549 -37.52411,20.08467 C 333.16292,360.24852 325.03363,365 324.44326,365 c -0.59038,0 -5.76913,-2.99554 -11.50833,-6.65676 -19.67459,-12.55102 -41.30462,-24.45463 -43.93553,-24.17896 -1.37533,0.14412 -3.01184,-0.0539 -3.63669,-0.44012 -1.70745,-1.05525 -2.70858,0.69326 -7.80283,13.62796 -6.72027,17.06327 -7.19868,20.23209 -4.64772,30.78455 1.14831,4.75017 2.08784,9.33611 2.08784,10.19098 0,2.65743 -2.04504,2.97867 -4.46853,0.70191 -1.27626,-1.19898 -2.54535,-1.80863 -2.8202,-1.35477 -0.27485,0.45387 -1.75976,6.83024 -3.2998,14.16973 -2.4294,11.57798 -2.97292,13.10814 -4.10577,11.55887 -0.71814,-0.98211 -1.3057,-2.38363 -1.3057,-3.1145 0,-0.73087 -2.08143,-5.47324 -4.62541,-10.5386 -2.54398,-5.06536 -5.24565,-10.96768 -6.00371,-13.11626 -0.75807,-2.14859 -2.72818,-16.56609 -4.37803,-32.03889 -4.90231,-45.97549 -7.69136,-60.69433 -15.09181,-79.64491 -5.23387,-13.40255 -19.18871,-42.45712 -25.96362,-54.05738 -9.60724,-16.44987 -13.99573,-31.52121 -14.67344,-50.39285 -0.69782,-19.43147 2.91393,-31.57787 13.33952,-44.86114 7.28047,-9.27608 14.11315,-13.80087 35.86765,-23.7526 38.23273,-17.48979 44.93509,-21.979052 50.29575,-33.688269 2.15286,-4.702487 2.41777,-6.457461 2.04531,-13.550077 -0.35574,-6.774237 -0.97262,-9.169878 -3.65902,-14.209654 C 261.66974,32.027175 255.18436,24.940951 246.97522,19.483527 243.13885,16.933112 240,14.430967 240,13.923205 c 0,-2.914678 16.64014,0.727669 26.14672,5.723233 13.15134,6.910834 21.95087,17.279809 26.01256,30.652051 2.77565,9.138231 2.26199,25.370227 -1.06315,33.59566 -4.94667,12.23666 -17.50269,26.666601 -37.29021,42.855571 -13.25902,10.84773 -20.3162,18.6463 -24.45975,27.02936 -3.27415,6.62413 -3.62387,18.09852 -0.76869,25.22092 2.79717,6.97769 10.48354,19.89938 17.004,28.58573 6.62972,8.83191 20.75028,23.41553 22.66852,23.41191 0.6875,-10e-4 5.39434,-1.79035 10.45965,-3.97567 30.0287,-12.95522 61.552,-12.95522 91.5807,0 5.06531,2.18532 9.69002,3.97437 10.27713,3.97567 1.74243,0.004 16.26804,-14.90221 22.50628,-23.09577 7.75563,-10.18656 14.6575,-21.70658 17.00302,-28.37999 2.89109,-8.22567 2.64759,-19.68292 -0.55417,-26.07554 -3.7109,-7.40913 -9.81123,-14.19125 -22.02261,-24.48388 -6.05,-5.09938 -15.95,-14.26454 -22,-20.36703 C 359.63641,92.594215 355,82.84748 355,65.5 355,55.201666 356.6455,48.418839 361.25709,39.707995 366.96181,28.932349 381.6474,18.150159 395.5523,14.528393 402.08892,12.82582 409,12.511485 409,13.916756 c 0,0.504216 -3.52346,3.38571 -7.82991,6.40332 C 391.78152,26.898819 385.63937,33.562991 382.11007,41 379.83608,45.791803 379.5,47.790575 379.5,56.522861 c 0,9.710882 0.1068,10.189302 3.43127,15.370033 6.23642,9.718611 14.98901,15.094731 49.06873,30.139566 18.50138,8.16762 24.38398,11.68725 31.1903,18.66151 11.04247,11.31493 16.74568,25.87548 17.55006,44.80603 0.82563,19.43108 -3.65811,34.98892 -17.2919,60 -13.37903,24.54373 -25.64649,52.20813 -28.95687,65.3008 -3.60545,14.25963 -8.73385,50.45222 -10.51384,74.1992 -1.19275,15.91263 -2.72884,21.92818 -8.13158,31.84442 -5.03117,9.23426 -6.60809,13.67267 -8.32512,23.432 -0.98986,5.6262 -2.66527,10.17542 -6.05924,16.45252 -4.32066,7.99101 -4.79759,9.5879 -6.03996,20.22357 -1.81688,15.55399 -5.38542,25.57105 -12.61883,35.42164 l -3.02967,4.12585 0.59839,11.6293 c 0.59169,11.49906 1.17051,14.8707 2.55289,14.8707 0.39086,0 7.20773,-6.4125 15.14859,-14.25 24.91729,-24.59293 45.90426,-39.06845 62.92678,-43.40303 8.19316,-2.08629 22.9057,-2.26347 38.44355,-0.46298 7.3462,0.85127 15.42959,1.13752 21,0.74367 10.4218,-0.73687 31.60273,-6.01291 54.95186,-13.68819 8.64184,-2.84072 15.95907,-4.91832 16.26051,-4.61688 0.82196,0.82196 -1.74559,4.12489 -10.99396,14.14274 -13.16934,14.26504 -20.93772,17.08237 -42.73551,15.49873 -32.95438,-2.39419 -39.0551,-0.93587 -59.53269,14.23067 -8.78215,6.50442 -10.24985,8.34924 -5.64376,7.09388 5.20105,-1.4175 25.39959,-0.71218 32.19215,1.12414 25.04914,6.77185 42.17394,22.93755 50.62749,47.79199 3.09711,9.1059 5.26457,24.36105 3.68557,25.94005 -0.81282,0.81282 -1.39977,-0.0612 -2.19441,-3.26759 -2.64895,-10.68872 -3.34749,-12.17786 -7.87049,-16.77833 -3.86033,-3.92644 -6.12941,-5.23724 -12.8228,-7.40745 -11.70994,-3.79674 -21.24032,-5.0465 -32.79078,-4.30001 -26.47603,1.71113 -51.05558,10.16259 -79.35119,27.28418 -18.97625,11.48248 -27.48419,18.35415 -56.42647,45.57441 -9.7953,9.2125 -18.08402,16.75 -18.41937,16.75 -1.53889,0 5.95952,-9.65159 27.5803,-35.5 6.90068,-8.25 15.84054,-19.05 19.86637,-24 6.76748,-8.32104 6.88859,-8.54736 1.60535,-3 -3.14288,3.3 -14.87401,16.43487 -26.06918,29.18861 -11.19517,12.75373 -20.80658,23.46779 -21.3587,23.80901 -3.06359,1.89341 -0.76766,-1.94377 28.86754,-48.2463 17.07677,-26.68103 18.58228,-29.77302 17.78295,-36.52214 -0.32185,-2.71751 -1.10584,-5.56829 -1.7422,-6.33506 -1.36976,-1.65046 -5.25282,-1.81734 -8.00567,-0.34406 -1.67356,0.89566 -1.87272,1.74115 -1.35445,5.75 0.79682,6.16355 -3.10433,18.65353 -8.36402,26.77835 -6.0104,9.28448 -24.08313,23.67837 -40.18799,32.00743 -4.57936,2.36834 -6.75541,2.8503 -13,2.87932 -6.98057,0.0324 -8.15794,-0.29417 -17,-4.71567 -10.26992,-5.13552 -23.98459,-14.91908 -30.68898,-21.89245 -9.37602,-9.75217 -16.13667,-25.57535 -14.9025,-34.879 0.56783,-4.28045 0.39266,-5.01408 -1.43017,-5.98963 -3.24371,-1.73598 -7.26175,-0.81198 -8.74745,2.01159 -0.77635,1.47545 -1.16419,4.6246 -0.94636,7.68423 0.43758,6.14608 4.05881,12.78353 21.72252,39.81577 C 288.24808,602.8246 299,620.08035 299,621.21604 c 0,0.4961 -0.44629,0.62617 -0.99177,0.28905 -1.00509,-0.62119 -36.00802,-40.27136 -52.50934,-59.48087 C 234.80686,549.57742 209.54026,524.03954 199,515.02608 c -4.13316,-3.53446 3.06689,4.33503 16.03891,17.53016 29.14589,29.64717 35.94907,37.18651 59.05885,65.44948 33.48468,40.95135 33.72823,41.7228 4.40224,13.94428 z m 181,-104.4121 6,-5.77726 -7.80511,6.29979 c -10.17708,8.21428 -27.64057,24.86083 -35.20205,33.55529 -5.22629,6.00937 8.53462,-6.66228 37.00716,-34.07782 z M 308,271.29179 c 0,-0.75088 -0.89783,0.043 -5.04179,4.45821 l -4.45821,4.75 4.75,-4.45821 c 2.6125,-2.45201 4.75,-4.58951 4.75,-4.75 z m 31.46241,-1.37114 C 336.73308,267.127 333.15,263.90303 331.5,262.75627 c -1.65,-1.14676 0.375,1.11763 4.5,5.03199 8.74353,8.29703 10.60536,9.44367 3.46241,2.13239 z M 312.56291,267.75 315.5,264.5 l -3.25,2.93709 C 309.22054,270.17487 308.54035,271 309.31291,271 c 0.1721,0 1.6346,-1.4625 3.25,-3.25 z m 14.22892,-8.38674 c -1.08693,-1.08693 -2.25066,-1.37008 -3.46429,-0.84291 -1.55202,0.67416 -1.37526,0.90308 1.17246,1.51843 1.65,0.39852 3.20893,0.77783 3.46429,0.84291 0.25535,0.0651 -0.27225,-0.61822 -1.17246,-1.51843 z m -13.51649,251.98291 c -6.38104,-2.25951 -16.95167,-14.7494 -16.08574,-19.00635 0.17072,-0.83926 3.0104,-2.69704 6.3104,-4.12841 5.52198,-2.39515 7.11537,-2.60197 20,-2.59593 11.93872,0.006 15.00441,0.34438 20.82185,2.30098 3.75201,1.26193 7.07674,2.95868 7.38829,3.77056 0.60277,1.5708 -2.38384,7.63414 -6.48743,13.17059 -3.86992,5.22118 -11.19145,8.13698 -20.22271,8.05367 -4.125,-0.038 -9.4011,-0.74235 -11.72466,-1.56511 z m 7.19688,-33.30543 c -1.08472,-1.0776 -3.91665,-2.9901 -6.29318,-4.25 -4.21146,-2.23269 -8.23662,-7.06649 -6.95313,-8.34998 1.01932,-1.01933 8.00834,1.62756 11.10082,4.20411 3.63899,3.03188 8.11771,3.01626 12.12771,-0.0423 2.96952,-2.26496 10.46912,-5.01233 11.33064,-4.15081 1.33841,1.33842 -1.69697,4.9574 -6.71434,8.00529 -3.20058,1.94425 -6.38092,4.21179 -7.06743,5.03898 -1.73226,2.08724 -5.18166,1.87872 -7.53109,-0.45527 z M 267.115,418.21588 c -3.20217,-1.6613 -4.08021,-3.01174 -4.09969,-6.30536 -0.0106,-1.78376 -0.79391,-2.94424 -2.51761,-3.72961 -3.1387,-1.43009 -6.48904,-6.81157 -6.49396,-10.43091 -0.004,-3.16698 0.4751,-3.28353 5.26843,-1.28075 2.76853,1.15677 5.50623,1.30026 12.87212,0.67464 l 9.35571,-0.79461 -5,-2.39869 c -2.86439,-1.37416 -7.77629,-2.64632 -11.5,-2.97844 l -6.5,-0.57975 4.98069,-2.34504 c 8.34613,-3.92958 11.74607,-3.80495 23.56961,0.86395 13.47734,5.32195 22.352,10.13158 22.76717,12.33869 0.22005,1.16987 -0.30288,1.75 -1.57748,1.75 -3.37964,0 -3.35427,1.29636 0.0966,4.93701 3.12681,3.29876 5.30071,7.06299 4.07898,7.06299 -0.28692,0 -2.17725,-1.125 -4.20075,-2.5 -4.04443,-2.74826 -5.70261,-3.16974 -4.91773,-1.25 1.96084,4.79608 1.9666,4.75 -0.5931,4.75 -1.69411,0 -3.47737,-1.20587 -5.48606,-3.70976 l -2.97608,-3.70976 -3.65572,3.20976 c -2.0644,1.81256 -4.7623,3.20976 -6.19785,3.20976 -2.52427,0 -7.54618,-4.09331 -8.59982,-7.00962 -1.00547,-2.78299 -2.85914,0.40624 -2.18762,3.7638 0.74196,3.70981 4.12341,5.24582 11.54838,5.24582 5.37031,0 6.49918,1.47904 1.89989,2.48921 -4.58275,1.00654 -17.07812,0.20838 -19.93411,-1.27333 z m 21.40638,-8.23951 c 1.45463,-1.60734 1.57656,-2.27591 0.59271,-3.25 -0.97947,-0.96976 -1.44525,-0.8602 -2.22606,0.52363 -1.14008,2.02057 -3.94613,2.2919 -5.68803,0.55 -0.93333,-0.93333 -1.2,-0.72963 -1.2,0.91667 0,3.64639 5.61083,4.47583 8.52138,1.2597 z M 360.75,419.3787 c -3.24996,-0.97563 -1.77883,-2.37866 2.5,-2.38428 2.3375,-0.003 5.88244,-0.45901 7.87764,-1.01322 2.95903,-0.82192 3.74466,-1.59269 4.2625,-4.18192 0.67922,-3.39606 -1.16368,-6.61804 -2.1786,-3.8089 -1.05364,2.91631 -6.07555,7.00962 -8.59982,7.00962 -1.43555,0 -4.13345,-1.3972 -6.19784,-3.20976 l -3.65572,-3.20976 -2.97608,3.70976 C 349.77339,414.79413 347.99013,416 346.29602,416 c -1.83422,0 -2.34657,-0.40385 -1.90301,-1.5 0.33385,-0.825 0.88013,-2.175 1.21398,-3 0.88242,-2.18065 -0.6306,-1.848 -4.95263,1.0889 -2.09544,1.42389 -4.06086,2.33793 -4.36759,2.03121 -0.80468,-0.80468 2.47484,-5.74906 5.52002,-8.32228 1.9677,-1.66273 2.24931,-2.31286 1.14964,-2.65406 -5.27999,-1.63826 -5.23626,-1.60167 -3.87482,-3.2421 3.30855,-3.98656 29.8572,-15.4191 35.69442,-15.37095 4.01813,0.0332 14.36869,3.8336 14.89561,5.46928 0.18943,0.58803 -2.04539,1 -5.42475,1 -5.54939,0 -15.24689,2.83262 -15.24689,4.45358 0,0.43349 3.52324,1.09551 7.82943,1.47114 5.82847,0.50842 8.94202,0.29965 12.18283,-0.8169 2.39437,-0.82493 4.72112,-1.2726 5.17057,-0.99483 2.69004,1.66254 -1.34651,10.5932 -5.68053,12.56792 -1.91665,0.87328 -2.5023,1.89479 -2.5023,4.3646 0,4.8863 -3.16127,6.42382 -14.25634,6.93372 -5.08401,0.23365 -10.03116,0.18841 -10.99366,-0.10053 z m 8.06955,-10.1287 c 0.36719,-2.58541 -0.0572,-2.73204 -2.89402,-1 -1.73281,1.05796 -2.2582,0.96577 -3.4199,-0.60014 -0.75491,-1.01757 -1.8525,-1.55352 -2.4391,-1.19098 -2.9233,1.8067 1.00687,5.76369 5.3089,5.34512 2.36397,-0.23 3.20236,-0.85171 3.44412,-2.554 z"
           id="path4148"
           inkscape:connector-curvature="0" />
        <path
           style="fill:#6e6f70"
           d="m 278.85398,611.56644 c -9.5776,-9.03846 -21.00035,-19.42893 -25.3839,-23.08993 -25.99595,-21.71105 -65.19483,-41.31529 -91.85107,-45.93678 -18.60679,-3.22593 -42.49676,-1.23606 -54.33341,4.5256 -7.582488,3.69088 -11.166952,7.85922 -14.352824,16.69078 L 90.5,570.5 90.190287,566.20467 C 89.72766,559.78861 93.382012,546.70362 98.625789,536 102.46672,528.15987 104.71,525.08133 111.46482,518.38046 125.35561,504.60062 141.68769,498.02734 162,498.04122 c 13.72282,0.009 15.8132,0.73409 25.25462,8.75548 11.59381,9.85004 54.18989,53.25169 66.9374,68.2033 23.62413,27.70885 43.89382,53 42.47706,53 -0.22071,0 -8.2375,-7.3951 -17.8151,-16.43356 z m 74.82147,13.54342 c 2.82382,-4.5488 41.90565,-51.34929 56.45919,-67.60986 16.80468,-18.77577 51.03433,-51.62716 59.74513,-57.33948 4.1091,-2.69465 23.8912,-2.86097 34.18974,-0.28745 23.73481,5.93112 41.02735,21.19653 49.81017,43.97115 3.31738,8.60226 5.44356,19.02698 4.94546,24.24779 -0.29477,3.08963 -0.54026,2.72333 -2.62796,-3.92115 -2.89175,-9.20351 -7.97247,-14.63775 -16.72541,-17.88917 -24.05749,-8.93654 -55.06887,-6.47034 -86.47177,6.87674 -26.85292,11.41321 -50.51416,27.74867 -78.40283,54.12846 -7.75344,7.33396 -16.10622,15.10716 -18.56172,17.27379 l -4.46454,3.93932 2.10454,-3.39014 z M 287.63592,609.5092 c -4.64749,-5.21994 -18.37394,-20.92546 -30.50324,-34.90115 -25.06865,-28.88478 -45.16427,-49.36535 -66.03657,-67.30156 -18.5403,-15.93225 -25.73001,-21.27434 -34.48508,-25.62309 -13.96133,-6.93477 -15.18422,-7.11754 -37.93792,-5.67024 -11.11001,0.70668 -22.249654,0.97751 -24.75477,0.60184 C 84.833386,475.25263 78.204761,471.05932 67.75,460.06075 58.636611,450.47333 56.804865,448 58.817815,448 c 0.449798,0 7.537298,2.21063 15.75,4.91252 8.212702,2.70189 22.511406,6.80459 31.774895,9.11712 l 16.84272,4.20459 15.65728,-0.6296 c 8.61151,-0.34627 21.11537,-0.89477 27.78636,-1.21887 14.37268,-0.69828 24.26941,1.27589 36.00901,7.18296 11.38996,5.73114 31.55375,21.57612 48.13302,37.8236 9.29339,9.1074 15.62706,14.60187 16.18047,14.03658 1.20705,-1.23297 3.18656,-23.23895 2.37737,-26.4289 -0.51425,-2.02722 0.66634,-1.27078 6.24285,4 3.78237,3.575 8.82799,9.0726 11.21249,12.21689 7.6453,10.08134 16.34536,18.26347 22.71572,21.3634 5.27222,2.56556 7.09167,2.91971 15,2.91971 7.89631,0 9.72069,-0.35387 14.87683,-2.8856 6.26425,-3.07583 14.70289,-10.99475 22.50014,-21.1144 6.64514,-8.62439 17.12205,-18.35239 17.12645,-15.90222 0.0105,5.85007 2.2743,25.04232 3.04702,25.83231 0.5542,0.5666 7.07281,-5.10533 16.67965,-14.5132 18.11591,-17.74071 36.53907,-32.18464 48.31474,-37.87922 11.99393,-5.80013 20.34107,-7.37636 35.2248,-6.65165 43.04338,2.09584 42.91955,2.09962 58.23037,-1.77937 7.7,-1.95079 21.9821,-6.11573 31.738,-9.25544 9.7559,-3.1397 18.02028,-5.42626 18.36529,-5.08125 0.92302,0.92301 -14.03018,18.06245 -18.37687,21.06367 -5.52398,3.81409 -12.60434,6.68692 -18.07839,7.33524 -2.66749,0.31593 -13.80455,0.0538 -24.74901,-0.58244 -21.86552,-1.27118 -24.96501,-0.86837 -35.89047,4.66429 -9.16278,4.64004 -31.14267,21.78946 -50.43309,39.34953 -11.24585,10.2371 -42.8295,44.56097 -72.60868,78.90827 -25.47562,29.38357 -25.72437,30.07997 8.23365,-23.05056 C 397.10467,547.16278 398,545.45313 398,539.10494 c 0,-9.17782 -2.47594,-12.09306 -8.56419,-10.08375 -3.72694,1.23 -4.88215,3.27629 -3.40635,6.03386 1.41082,2.63613 -1.18965,13.62878 -5.19139,21.94495 -5.63149,11.70301 -25.58123,28.83737 -43.1456,37.05673 -8.97224,4.19861 -15.64547,4.32341 -25.03191,0.46813 -12.65753,-5.19881 -32.14597,-19.36396 -38.79379,-28.19722 -7.68745,-10.21466 -13.04707,-25.50307 -10.99958,-31.3765 1.11109,-3.18728 -0.5521,-5.36851 -4.86719,-6.38318 -4.56355,-1.0731 -7,2.604 -7,10.56444 0,4.49165 0.75267,6.59181 5.13058,14.31574 2.82182,4.97852 9.4178,15.57686 14.65774,23.55186 18.40907,28.01794 26.9915,42 25.7803,42 -0.2655,0 -4.28522,-4.27086 -8.9327,-9.4908 z m 29.08158,-97.538 c -2.08037,-0.5244 -5.10827,-1.63903 -6.72866,-2.47697 -2.80903,-1.45261 -9.35882,-9.31546 -11.96268,-14.36089 -1.5739,-3.04969 -0.39449,-4.21356 7.01536,-6.923 7.73125,-2.82694 29.55656,-2.88053 38.58867,-0.0947 8.86332,2.73373 9.28385,3.61811 5.04136,10.60199 -3.96492,6.52698 -6.67424,9.29128 -11.49656,11.72991 -3.98477,2.01508 -15.19553,2.85007 -20.45749,1.5237 z m 64.30474,-19.10036 c -0.0122,-0.34603 1.05311,-3.04603 2.36742,-6 3.42414,-7.69589 3.99555,-10.78579 2.12718,-11.50275 -2.22904,-0.85537 -5.98097,1.96443 -10.26257,7.71292 -4.80626,6.4529 -5.39941,4.41805 -1.72971,-5.93391 4.0329,-11.37652 8.60903,-19.85444 14.76587,-27.35584 3.02844,-3.6898 8.09189,-10.78741 11.25212,-15.77246 3.16022,-4.98505 5.97612,-8.83346 6.25756,-8.55202 0.28144,0.28144 -1.79431,5.02807 -4.61278,10.54807 -4.73188,9.26746 -5.20758,10.85337 -6.20925,20.70066 -1.12778,11.08705 -3.41344,19.36682 -7.50761,27.19623 -2.39337,4.57691 -6.40607,10.15211 -6.44823,8.9591 z M 263.0302,486.38658 c -4.4065,-6.94834 -7.95811,-18.66395 -9.20687,-30.37052 -0.92254,-8.64834 -1.68774,-11.53726 -4.37041,-16.5 -1.78864,-3.30883 -3.57943,-7.14106 -3.97954,-8.51606 -0.98126,-3.37216 20.97742,25.9827 24.21405,32.36988 3.1507,6.21759 6.81801,16.00392 7.65828,20.43631 0.61972,3.26901 0.56194,3.23808 -5.13611,-2.75 -8.84891,-9.29928 -11.97104,-7.99989 -7.87724,3.27842 1.33068,3.66596 2.24035,6.66539 2.0215,6.66539 -0.21885,0 -1.71449,-2.07604 -3.32366,-4.61342 z m 57.00757,-9.42722 C 318.13355,475.33171 316.15103,474 315.63217,474 313.86583,474 308,468.90413 308,467.36965 c 0,-2.15318 5.53968,-0.87179 9.68328,2.23986 4.07926,3.06333 10.23011,3.24866 12.82054,0.38627 1.76178,-1.94675 8.68716,-4.43212 10.58612,-3.79913 1.53645,0.51215 -1.96114,4.68679 -5.40064,6.44608 -1.75412,0.89721 -4.82906,2.91964 -6.8332,4.49428 -2.00415,1.57465 -4.02915,2.8447 -4.5,2.82235 -0.47086,-0.0224 -2.4141,-1.37235 -4.31833,-3 z m -47.69911,-57.68723 c -4.96124,-0.45121 -9.78081,-4.30368 -8.89107,-7.10699 0.40968,-1.29081 -0.5546,-2.72003 -3.35184,-4.96795 -3.6944,-2.96891 -7.09221,-9.53407 -5.67028,-10.95599 0.34364,-0.34364 2.22147,-0.0474 4.17296,0.65823 3.92331,1.41869 25.2434,0.5424 23.72583,-0.97517 C 280.75992,394.35992 267.95002,390 264.91815,390 c -4.38361,0 -2.72116,-1.64467 3.71236,-3.67266 5.48436,-1.7288 5.65565,-1.721 12.21592,0.55625 3.65947,1.2703 11.75744,4.72954 17.99551,7.68721 11.37842,5.39487 13.45365,7.57999 7.83094,8.24562 -3.33282,0.39455 -3.39172,1.48256 -0.19369,3.57799 1.36355,0.89343 3.19421,3.00712 4.06812,4.69708 l 1.58894,3.07266 -4.6133,-2.70357 c -5.13977,-3.0121 -6.52134,-2.6946 -4.52295,1.03942 0.73499,1.37334 1.06958,2.76375 0.74353,3.0898 -1.24009,1.24009 -4.82712,-0.85076 -6.28018,-3.66067 C 295.6078,408.34089 293.10312,408.19688 290,411.5 c -3.58843,3.81971 -8.19539,3.42145 -11.5678,-1 -3.47072,-4.55035 -5.4322,-4.55868 -5.4322,-0.0231 0,4.33508 2.40797,6.04324 10,7.09377 4.55928,0.63089 5.0724,0.88667 3,1.49549 -2.63053,0.77278 -6.7463,0.83481 -13.66134,0.20592 z m 15.8326,-7.92712 c 1.95357,-1.76796 2.43084,-4.85486 0.89716,-5.80272 -0.51237,-0.31666 -1.64132,0.43755 -2.50879,1.67604 -1.35201,1.93026 -1.85959,2.07543 -3.55485,1.01673 -3.96658,-2.47717 -5.50693,-0.5524 -2.34979,2.9362 2.05815,2.27423 5.11713,2.34495 7.51627,0.17375 z M 362.5,419 c -1.1,-0.47269 -1.775,-0.89366 -1.5,-0.93551 13.83945,-2.10573 15,-2.70047 15,-7.68693 0,-4.13082 -2.19921,-4.52935 -4.61856,-0.83695 -0.91557,1.39733 -2.61345,3.02787 -3.77306,3.62341 -2.00258,1.02846 -1.99547,0.97429 0.14162,-1.07957 2.47763,-2.38112 2.98273,-5.08445 0.95,-5.08445 -0.715,0 -1.83404,0.53404 -2.48676,1.18676 -0.91567,0.91567 -1.72067,0.68516 -3.52418,-1.00915 -1.28559,-1.20775 -2.64155,-1.89179 -3.01325,-1.52009 -1.44603,1.44603 -0.55724,4.29059 1.95905,6.2699 1.44917,1.13992 2.1587,2.07258 1.57672,2.07258 -0.58197,0 -2.39512,-1.125 -4.02921,-2.5 -3.86498,-3.25217 -5.79158,-3.15639 -7.6197,0.37882 -1.39887,2.70511 -3.37842,4.12118 -5.76109,4.12118 -1.00515,0 -0.78654,-1.65864 0.69196,-5.25 1.00381,-2.43832 -0.57405,-2.18459 -4.97123,0.79943 -2.06624,1.40218 -3.96549,2.34072 -4.22057,2.08564 -0.81266,-0.81266 1.5525,-4.33463 4.67572,-6.96265 3.69773,-3.11144 3.72897,-3.45595 0.34966,-3.856 -5.23253,-0.61944 -3.48008,-2.72148 6.35409,-7.62167 20.91652,-10.42231 25.68789,-11.4316 35.49391,-7.508 4.13124,1.65299 5.27809,3.71609 1.54488,2.77911 -2.36627,-0.59389 -18.22929,3.93114 -19.18136,5.47161 -0.93919,1.51965 18.1985,2.45786 22.68947,1.11233 2.5239,-0.75618 4.36943,-0.85226 4.9633,-0.25839 1.56077,1.56077 -1.65042,7.69417 -5.60923,10.71371 -2.48116,1.89247 -3.45689,3.31428 -3.08295,4.49244 1.00771,3.17502 -2.72405,6.25538 -8.58673,7.08787 -7.08204,1.00563 -11.94047,0.97684 -14.4125,-0.0854 z m -128.34999,-20.51946 -6.34998,-13.47125 -2.37227,-21.75465 C 217.69074,292.3031 215.02962,282.25928 192.24141,238 c -16.20936,-31.48183 -17.03709,-33.26472 -19.68369,-42.39757 -9.02799,-31.15372 -4.2655,-55.86976 14.39826,-74.72306 8.21003,-8.2934 6.50174,-7.34121 47.54402,-26.50072 17.40654,-8.125785 19.55008,-9.415159 25.55901,-15.37415 8.57019,-8.498964 10.30575,-12.285662 10.32551,-22.528531 0.0134,-6.942118 -0.41282,-8.939295 -3.16104,-14.812105 C 263.56203,33.839525 254.2806,23.512671 246.25,18.328011 243.3625,16.463804 241,14.462817 241,13.881374 c 0,-1.236307 5.75168,-0.506687 14,1.775946 34.74804,9.61614 49.57734,47.87881 30.30271,78.187266 -4.58631,7.211754 -19.67372,22.691674 -31.38383,32.200304 -18.56881,15.07788 -26.51544,25.82888 -27.58897,37.32513 -1.03481,11.08151 2.91928,21.35872 15.04204,39.09634 5.94959,8.70524 22.12635,26.65959 25.78369,28.61694 1.33499,0.71446 3.05872,0.33595 6.57676,-1.44419 C 288.4743,222.17968 306.70527,218 324.5,218 c 17.79713,0 31.88457,3.12837 48.84903,10.84782 4.84198,2.20327 7.34338,2.85198 8.53601,2.2137 2.74614,-1.46968 17.21607,-17.01247 22.7611,-24.44867 6.37645,-8.5512 13.83826,-21.01107 16.0287,-26.76504 1.0608,-2.78655 1.68567,-7.57963 1.74015,-13.34781 0.0773,-8.1881 -0.1759,-9.45105 -2.80719,-14 -4.77552,-8.25586 -9.09035,-12.93565 -22.92085,-24.85958 C 376.79566,110.49121 364.8283,97.586189 360.64782,88.777581 354.87501,76.613818 353.60204,65.556098 356.53978,53.093068 361.35977,32.644853 380.27406,16.620046 403.25,13.518634 c 6.51508,-0.879439 6.19378,1.016009 -0.92913,5.481366 -12.8881,8.079553 -21.13448,19.159778 -23.39732,31.43775 -2.15637,11.700282 0.77372,20.107542 10.1123,29.015032 4.87258,4.647658 8.98215,7.145755 22.22117,13.50765 8.93364,4.292984 20.74069,9.714788 26.2379,12.048438 5.49721,2.33366 12.42097,5.79495 15.38614,7.69174 11.99157,7.67092 20.84163,20.22624 25.26623,35.84446 1.83373,6.47284 2.24396,10.37698 2.20186,20.95493 -0.079,19.84552 -3.81932,31.1168 -20.61244,62.11436 -9.34954,17.25782 -14.56985,28.58313 -21.3811,46.38564 -6.11981,15.99527 -11.24929,45.72128 -14.84006,86 -1.73788,19.49431 -2.35311,22.00024 -7.97908,32.5 -2.3576,4.4 -4.82768,9.6875 -5.48906,11.75 -0.66138,2.0625 -1.51291,3.75 -1.89228,3.75 -0.37938,0 -1.80698,-5.01385 -3.17245,-11.1419 -1.36547,-6.12804 -3.00454,-11.85956 -3.64236,-12.73672 -1.05558,-1.45166 -1.33196,-1.43892 -3.07874,0.1419 -1.05548,0.95519 -2.22113,1.73672 -2.59032,1.73672 -1.1961,0 -0.71179,-7.05491 0.91539,-13.33438 C 398.76467,368.26035 397.81921,361.93834 392.29968,348 381.05461,319.60311 366.03552,296.18994 345.57165,275.15599 334.57039,263.84825 327.31247,258 324.28037,258 c -2.84307,0 -20.1743,14.8466 -28.40445,24.33235 -12.87995,14.84492 -28.75298,40.83256 -36.96215,60.51516 -8.06944,19.34759 -9.30803,26.23856 -6.42459,35.74356 1.65449,5.45388 1.98503,11.40893 0.63326,11.40893 -0.48265,0 -1.43775,-0.675 -2.12244,-1.5 -0.68469,-0.825 -1.82872,-1.5 -2.54229,-1.5 -1.22385,0 -1.78117,1.93985 -5.53053,19.25 -0.68499,3.1625 -1.51133,5.73915 -1.83631,5.72589 -0.32498,-0.0132 -3.44836,-6.08616 -6.94086,-13.49535 z m 73.77772,-43.71111 c -25.78159,-15.86769 -36.9178,-21.81003 -39.60774,-21.13489 -3.40095,0.85358 -3.00646,-0.66475 3.23807,-12.46313 12.43908,-23.50231 29.78624,-44.36923 48.73069,-58.61821 3.50812,-2.63861 3.98882,-2.74612 6.48995,-1.45144 4.70531,2.43564 27.18128,25.03818 34.20562,34.39824 C 370.5588,308.25817 383,329.43555 383,332.97504 383,333.53877 381.36728,334 379.37173,334 c -4.15288,0 -7.14566,1.59504 -32.90851,17.53895 -9.92023,6.13935 -18.95275,11.65267 -20.07227,12.25182 -1.74465,0.93371 -4.38279,-0.35532 -18.46322,-9.02134 z"
           id="path4146"
           inkscape:connector-curvature="0" />
        <path
           style="fill:#4e4f50"
           d="m 275.5,607.85487 c -19.56364,-18.40028 -27.21863,-24.75171 -41.1854,-34.17194 -18.52041,-12.49155 -45.42804,-25.0831 -63.52496,-29.72678 -24.68917,-6.33527 -54.87295,-3.98969 -68.27385,5.30555 -4.857595,3.36936 -6.223077,5.21054 -9.447185,12.7383 l -1.927331,4.5 -0.07064,-3.85566 C 90.954865,556.32505 93.773605,547.14717 99.25374,536 c 4.14016,-8.42152 6.47581,-11.78668 11.79918,-17 13.78317,-13.49823 32.16664,-20.90889 51.94708,-20.94067 13.92955,-0.0224 15.18113,0.70834 38.41827,22.43008 23.13853,21.62954 47.84888,48.63032 75.05379,82.01059 7.62024,9.35 14.52615,17.7875 15.34645,18.75 0.82031,0.9625 1.08422,1.72827 0.58648,1.70171 C 291.90724,622.92515 284.3,616.13157 275.5,607.85487 Z M 357.10384,621.25 c 15.07739,-19.5631 53.20188,-63.64247 68.86159,-79.61747 16.73515,-17.07208 40.83556,-39.34772 45.17041,-41.7503 3.68934,-2.04482 25.77625,-1.72193 33.80631,0.4942 20.11171,5.55044 34.12625,16.30765 43.92215,33.71354 4.29239,7.62697 8.10002,19.17696 8.70647,26.41003 l 0.50306,6 -2.05748,-5.11777 C 552.12912,551.71311 545.99987,547.30987 530,542.69215 c -6.20879,-1.79192 -9.91026,-2.14689 -21.5,-2.06187 -27.65638,0.20289 -52.15529,7.96286 -83.27732,26.37789 -15.34519,9.07981 -31.71619,21.90863 -50.9046,39.89038 -15.77077,14.77905 -20.73073,18.91415 -17.21424,14.35145 z m -0.98918,-9 c 1.25278,-2.0625 4.734,-7.575 7.73606,-12.25 20.24383,-31.52502 30.61323,-47.97427 32.44579,-51.46959 2.86038,-5.4557 3.02175,-15.41627 0.2985,-18.42542 -2.26904,-2.50726 -6.27341,-2.71897 -9.44253,-0.49923 -1.96897,1.37912 -2.19899,2.15947 -1.62972,5.52896 0.81239,4.80851 -0.86391,12.30225 -4.62913,20.69398 -5.06125,11.28028 -21.56397,26.12433 -40.39363,36.33372 -7.41445,4.0201 -8.54895,4.33758 -15.5,4.33758 -6.7889,0 -8.32068,-0.40134 -16.15576,-4.23296 -8.93193,-4.36802 -25.92374,-16.43131 -31.52963,-22.38438 -8.47388,-8.99867 -15.0765,-25.0816 -13.90925,-33.88072 0.56934,-4.29195 0.38369,-5.03628 -1.60323,-6.42798 -5.76606,-4.03871 -10.88371,-0.6354 -11.57472,7.69735 -0.38304,4.61891 0.0343,6.12902 3.51963,12.73451 2.17482,4.1218 7.95893,13.70763 12.85358,21.30184 23.86769,37.03145 27.52923,42.89583 27.06974,43.35532 -0.27246,0.27245 -9.8426,-10.22776 -21.26699,-23.33381 C 236.63376,550.29433 232.60771,545.88381 216.85764,530.47924 195.47503,509.56569 172.73806,490.29337 162,483.9808 c -3.025,-1.77831 -8.72496,-4.52647 -12.66659,-6.10704 C 143.1482,475.39352 140.82829,475 132.39201,475 c -5.37615,0 -14.85112,0.51465 -21.0555,1.14366 C 90.90538,478.215 81.381733,474.58364 67.677269,459.49642 62.904771,454.24239 59,449.51018 59,448.98041 c 0,-0.52977 2.8125,0.0943 6.25,1.38678 3.4375,1.29251 12.55,4.18685 20.25,6.43187 32.75805,9.551 44.21216,11.25722 62,9.23559 26.01896,-2.95711 36.13271,-2.18229 50.5908,3.8758 13.46844,5.64341 35.14938,22.24941 54.74313,41.92921 7.46834,7.50114 13.71125,13.0115 14.19169,12.52641 C 268.05563,523.32609 270,508.50413 270,501.69233 l 0,-4.86014 5.91147,5.34957 c 3.2513,2.94227 7.99685,8.04252 10.54565,11.33391 6.7779,8.75261 15.35343,17.289 20.25243,20.16001 10.08686,5.91128 21.70683,6.56939 32.08686,1.81725 6.16442,-2.82216 16.30799,-12.17906 23.29992,-21.49293 4.30873,-5.73959 14.78249,-16 16.33272,-16 0.31402,0 0.58484,2.3625 0.60183,5.25 0.0426,7.25146 1.77319,19.95407 2.86754,21.04842 0.53826,0.53826 6.70703,-4.89956 15.25494,-13.44736 24.80271,-24.80239 46.72094,-40.09133 63.84664,-44.53585 8.09874,-2.10181 23.52449,-2.28472 38.95867,-0.46194 15.05024,1.77744 26.69524,0.84571 43.34174,-3.46784 10.8372,-2.80821 40.60883,-11.99703 45.44959,-14.02772 2.86462,-1.20171 0.77741,1.98264 -7.09565,10.82548 -6.06198,6.80866 -9.96131,10.22543 -14.25,12.48652 -9.25602,4.87995 -14.25364,5.53154 -32.47166,4.23367 -27.76513,-1.97801 -35.01499,-0.55724 -50.33114,9.8635 C 454.5692,506.20017 428.50419,531.82033 372.20006,596.25 362.70748,607.1125 354.69244,616 354.38885,616 c -0.30358,0 0.47303,-1.6875 1.72581,-3.75 z m -42.4774,-101.71481 c -2.12451,-0.75737 -5.18048,-2.6395 -6.79104,-4.18252 C 303.23325,502.89122 298,494.86449 298,492.78438 c 0,-0.97004 2.31449,-2.4189 6.25,-3.91245 5.49177,-2.08418 7.88777,-2.36537 19.75,-2.31788 11.31054,0.0453 14.59473,0.42341 20.25,2.33153 4.16257,1.40447 6.75,2.83061 6.75,3.72046 0,0.79364 -1.82177,4.32755 -4.04837,7.85313 -5.45466,8.63683 -11.02261,11.56013 -21.89797,11.49694 -4.15451,-0.0241 -9.29189,-0.66356 -11.4164,-1.42092 z m -53.02682,-29.89333 c -3.57014,-7.54665 -5.54993,-15.51994 -6.49108,-26.14186 -0.66054,-7.45496 -1.36088,-9.99492 -4.07955,-14.79552 -1.80516,-3.18753 -3.10104,-5.97658 -2.87975,-6.19788 0.96638,-0.96638 20.2794,26.16588 23.30158,32.73568 5.83062,12.67493 7.83222,22.43374 3.12908,15.25584 -2.08477,-3.18177 -9.14122,-7.89396 -10.533,-7.03379 -1.3438,0.83051 -1.35768,4.61651 -0.0297,8.10926 1.88762,4.96481 0.21143,3.62546 -2.41754,-1.93173 z M 372,484.46845 c 0,-2.61907 3.95869,-13.43635 7.46573,-20.4004 1.8429,-3.65951 6.21062,-10.25418 9.70605,-14.65482 3.49542,-4.40065 7.85863,-10.34389 9.69601,-13.2072 1.83739,-2.86332 3.52445,-5.20603 3.74903,-5.20603 0.22458,0 -1.23809,3.2625 -3.25038,7.25 -2.96513,5.87564 -3.82649,8.9561 -4.54385,16.25 -1.0706,10.88543 -3.07508,19.18147 -6.3793,26.40228 -2.91873,6.37837 -4.01185,6.25222 -2.26959,-0.26191 0.92198,-3.44716 0.94887,-4.9178 0.10534,-5.76133 -1.63124,-1.63124 -7.31504,2.1224 -10.77602,7.1166 C 372.44217,486.41245 372,486.72458 372,484.46845 Z M 320.5,476.469 c -1.65,-1.35248 -3.52797,-2.4613 -4.17327,-2.46403 -1.55905,-0.007 -7.32673,-4.90216 -7.32673,-6.21886 0,-1.74685 5.97844,0.018 9.17633,2.70881 4.11184,3.45989 8.55487,3.29485 13.32367,-0.49492 2.31093,-1.8365 4.94529,-3 6.79249,-3 3.00455,0 3.00932,0.009 1.1125,2.10641 C 338.35724,470.26493 335.925,472.01705 334,473 c -1.925,0.98295 -4.35724,2.73507 -5.40499,3.89359 -2.4556,2.71525 -4.38816,2.61389 -8.09501,-0.42459 z M 266.63486,416.92742 C 264.8699,415.5391 264,413.89683 264,411.9531 c 0,-2.20908 -0.71207,-3.26997 -2.98307,-4.44435 C 257.83138,405.86144 255,401.41029 255,398.04966 c 0,-2.43215 -0.13253,-2.4103 4.12788,-0.68058 4.62412,1.87739 26.74955,1.05479 24.70456,-0.91849 C 281.96129,394.64506 270.11868,390 267.38661,390 c -4.06207,0 -3.5522,-1.87808 0.83322,-3.0691 2.35409,-0.63934 5.18017,-1.16368 6.28017,-1.1652 4.72293,-0.007 34.5,13.15308 34.5,15.24687 0,0.54309 -1.575,0.98743 -3.5,0.98743 -1.925,0 -3.5,0.29433 -3.5,0.65407 0,0.35974 1.8,2.19481 4,4.07793 4.70253,4.02519 5.2377,5.9594 1.04966,3.79368 -1.62269,-0.83912 -3.64769,-1.52568 -4.5,-1.52568 -1.73871,0 -2.08037,1.55397 -0.54966,2.5 0.55,0.33992 1,1.26648 1,2.05902 0,2.57702 -2.6995,1.52373 -5.49791,-2.14516 -1.88431,-2.47046 -3.3104,-3.43575 -4.5839,-3.10272 -1.21093,0.31667 -2.05634,-0.17104 -2.45079,-1.41386 -0.75465,-2.37768 -3.05104,-2.45522 -4.36223,-0.14728 -0.85549,1.50582 -1.29195,1.56758 -3.12805,0.44259 -1.64791,-1.00968 -2.45759,-1.03873 -3.55548,-0.12756 -1.0979,0.91118 -1.77465,0.88688 -2.97183,-0.10668 -1.27496,-1.05812 -1.81946,-1.01728 -3.06681,0.23007 -1.15398,1.15399 -1.30824,2.32898 -0.64516,4.9141 0.7499,2.9236 1.56124,3.63039 5.81681,5.06731 l 4.94535,1.66983 -7.11514,0.0802 c -5.76313,0.0649 -7.61582,-0.31366 -9.75,-1.99241 z m 102.74454,0.62279 c 5.73121,-1.65498 6.20279,-2.06519 7.05971,-6.14087 0.809,-3.84781 -1.5006,-6.43312 -3.93911,-4.40934 -1.1562,0.95956 -1.82584,0.97447 -2.92164,0.065 -1.09789,-0.91117 -1.90757,-0.88212 -3.55548,0.12756 -1.8361,1.12499 -2.27256,1.06323 -3.12805,-0.44259 -1.21845,-2.14471 -3.75251,-2.28446 -4.5332,-0.25 -0.31659,0.825 -1.40456,1.5 -2.41773,1.5 -1.01316,0 -3.04343,1.575 -4.5117,3.5 -2.74201,3.59497 -5.4322,4.61465 -5.4322,2.05902 0,-0.79254 0.45,-1.7191 1,-2.05902 1.53071,-0.94603 1.18905,-2.5 -0.54966,-2.5 -0.85231,0 -2.87731,0.68656 -4.5,1.52568 -3.99842,2.06766 -3.72143,0.35853 0.54966,-3.39154 C 346.78818,403.36907 346.92151,402 343,402 c -1.65,0 -3,-0.44498 -3,-0.98884 0,-1.19609 13.06751,-7.86407 23.74223,-12.11499 8.27293,-3.29447 13.58532,-3.52069 19.75777,-0.84136 l 3,1.30224 -2.5,0.37721 c -6.65182,1.00365 -20.48346,6.21723 -19.30965,7.2784 1.68892,1.52685 20.67035,1.93684 24.62733,0.53193 3.31288,-1.17622 3.89359,-1.15759 4.39186,0.14088 0.92151,2.4014 -2.37154,8.08838 -5.67181,9.79502 -2.29388,1.18621 -3.03773,2.26124 -3.03773,4.3902 0,4.74756 -2.86723,6.3277 -12.21362,6.73098 l -8.28638,0.35755 4.8794,-1.40901 z M 234.78516,398.67885 C 231.642,391.98048 228.61976,384.25 228.06908,381.5 c -0.55067,-2.75 -2.14869,-16.25 -3.55115,-30 -4.0991,-40.18851 -7.75387,-59.53509 -14.38493,-76.14689 -5.93551,-14.86935 -15.2152,-34.55381 -22.08761,-46.85311 -14.68061,-26.27337 -19.05917,-40.35605 -19.03061,-61.20784 0.0175,-12.78309 1.72765,-20.85061 6.36906,-30.04573 7.65541,-15.16618 16.59451,-22.81691 37.89842,-32.43619 32.67681,-14.75444 41.77929,-19.660432 47.69539,-25.706522 8.08098,-8.258541 9.52144,-11.681162 9.52194,-22.624745 3.7e-4,-8.185094 -0.30537,-9.642153 -3.29942,-15.723936 -3.98322,-8.091069 -11.41073,-16.450201 -19.62491,-22.086439 -5.61007,-3.849406 -5.8731,-4.192015 -3.43505,-4.474426 3.78309,-0.438213 14.26144,2.474991 20.83174,5.791666 12.88476,6.504209 22.09911,17.029164 26.01878,29.719564 2.9344,9.500495 2.75614,23.558913 -0.41257,32.537011 -4.11865,11.669621 -16.33525,26.486167 -32.93137,39.939837 -13.26345,10.75203 -23.30247,21.0469 -27.64679,28.35139 -3.10868,5.2269 -3.53958,6.81559 -3.85401,14.20953 -0.42673,10.03471 1.0643,15.2472 7.60533,26.5874 6.7143,11.64061 15.44086,23.04687 24.89372,32.53793 9.55485,9.59346 7.98074,9.37382 22.67167,3.16351 28.50564,-12.0502 59.54864,-11.70481 88.97364,0.98996 5.06531,2.18532 9.70879,3.97437 10.31886,3.97567 3.3898,0.007 21.71001,-20.30165 30.61096,-33.93378 8.66626,-13.27271 11.01802,-19.28335 11.55078,-29.52157 0.3597,-6.91254 0.0886,-9.9548 -1.1511,-12.91655 -3.32835,-7.9518 -10.6727,-16.56672 -22.89229,-26.85264 -15.72378,-13.2356 -30.07245,-27.69806 -34.92399,-35.20097 -10.03799,-15.523753 -10.82896,-35.748074 -2.07382,-53.025511 5.28045,-10.420471 20.22854,-21.477437 33.82255,-25.018226 6.30435,-1.642075 11.45311,-1.992436 11.43895,-0.778393 -0.005,0.4125 -2.64924,2.451062 -5.87652,4.530139 -8.00019,5.153875 -16.64178,14.467136 -19.89249,21.438639 -2.35924,5.059646 -2.69736,7.03192 -2.70897,15.801731 -0.0128,9.679173 0.10133,10.199177 3.35096,15.265567 6.72223,10.480372 15.81727,16.14975 50.13577,31.252034 24.54342,10.80063 33.26053,17.78187 40.53348,32.46189 7.09706,14.32501 9.47985,34.33766 6.02759,50.62476 -2.14308,10.11062 -8.70689,25.87629 -17.22599,41.37524 -9.27958,16.8825 -18.64584,37.08941 -24.10291,52 -5.60985,15.32801 -11.74501,52.24163 -14.22069,85.56205 -0.55421,7.45913 -1.69599,15.87994 -2.53729,18.71291 -1.76739,5.95146 -12.13087,26.61567 -12.78091,25.48446 C 407.45326,408.84174 406.21322,404 404.93763,398.5 c -2.83637,-12.22959 -3.36839,-13.103 -6.66554,-10.94263 -1.34509,0.88134 -2.70271,1.34534 -3.01694,1.03111 -0.31423,-0.31423 0.23525,-4.41481 1.22106,-9.11239 2.55251,-12.16313 1.78912,-18.44063 -3.94932,-32.47609 -9.31386,-22.78048 -19.60006,-40.36712 -34.23367,-58.53041 -9.21466,-11.43727 -25.12933,-27.03642 -30.51194,-29.90702 l -3.63284,-1.93744 -4.32422,2.91349 c -2.37832,1.60241 -10.21507,8.77426 -17.41499,15.93743 -10.5843,10.53027 -14.85009,15.68882 -22.27933,26.94202 -13.39637,20.29172 -25.70658,46.50996 -29.14309,62.06885 -0.93426,4.22986 -0.77047,6.39976 1.07891,14.29361 1.19922,5.11868 1.93906,9.54803 1.6441,9.84299 -0.29496,0.29496 -1.63682,-0.18481 -2.98191,-1.06615 -3.39722,-2.22594 -4.05053,-1.11319 -6.7181,11.44263 -1.22694,5.775 -2.51858,10.80548 -2.8703,11.17885 -0.35173,0.37336 -3.21119,-4.80164 -6.35435,-11.5 z m 81.02421,-39.5775 C 305.21644,352.27409 282.4861,338.78676 276.23142,335.61727 273.39071,334.17777 270.15153,333 269.03324,333 267.91496,333 267,332.50194 267,331.8932 c 0,-2.11949 12.51086,-23.96707 18.63912,-32.54931 C 297.04519,283.37042 319.91144,261 324.83287,261 c 2.34403,0 18.24235,14.08766 26.08455,23.11376 11.3064,13.0133 21.4672,27.78124 27.94921,40.62204 3.7999,7.52756 3.84856,8.2642 0.54585,8.2642 -3.18573,0 -10.59031,4.05902 -34.33853,18.8236 -10.13432,6.30064 -19.13432,11.63093 -20,11.84508 -0.86567,0.21415 -5.03474,-1.84115 -9.26458,-4.56733 z"
           id="path4144"
           inkscape:connector-curvature="0" />
        <path
           style="fill:#2c2d2e"
           d="m 360.51129,618 c 0.88461,-1.45104 14.95317,-18.38276 36.37995,-43.78382 18.22271,-21.60269 42.96506,-46.78119 64.31798,-65.45172 10.8073,-9.44968 11.59413,-9.74671 25.79078,-9.73609 28.21983,0.0211 51.67534,14.62109 63.49101,39.52025 4.81231,10.14097 9.22492,28.27772 4.8541,19.95138 -4.57251,-8.71056 -15.40412,-14.88445 -30.825,-17.56988 -8.70093,-1.5152 -31.25719,-0.64357 -41.52011,1.60444 -33.563,7.3517 -68.09379,26.48629 -99.34713,55.05134 -21.45379,19.60842 -24.04268,21.89218 -23.14158,20.4141 z m -88.03831,-13.75 c -27.28307,-25.42423 -45.2935,-37.98508 -71.08005,-49.57273 -23.87478,-10.72855 -40.05494,-14.69843 -59.67839,-14.64238 -25.77029,0.0736 -42.065354,6.08118 -47.36534,17.46239 -2.24812,4.82762 -2.330004,4.89077 -2.339431,1.80434 -0.0054,-1.75911 1.112841,-6.70911 2.48492,-11 9.339341,-29.20686 32.957421,-47.54724 63.165111,-49.05025 14.70854,-0.73184 18.17431,0.0221 25.54459,5.55661 8.38322,6.2952 48.60669,46.38074 63.40944,63.19202 9.40648,10.6828 35.78935,42.29704 40.68309,48.75 2.52295,3.3268 -1.29281,0.10923 -14.82394,-12.5 z m -8.06253,-23 C 234.74901,546.93377 208.4321,520.23618 185.17192,500.86525 167.63242,486.25847 158.35905,480.31888 146.80626,476.29206 139.74848,473.83201 139.04088,473.77524 126,474.6227 88.990755,477.02775 84.542069,475.93128 69.75,460.75874 64.3875,455.25831 60,450.41511 60,449.99607 c 0,-0.41904 6.8625,1.46485 15.25,4.18641 8.3875,2.72156 22.225,6.75913 30.75,8.97238 l 15.5,4.02409 18,-0.73563 c 9.9,-0.4046 24.075,-0.76109 31.5,-0.7922 12.25585,-0.0514 14.23639,0.1993 21.4904,2.71979 4.39472,1.52699 10.69472,4.41663 14,6.4214 12.67572,7.6883 30.52702,22.15175 44.33587,35.92174 C 258.70572,518.57132 265.7629,525 266.50888,525 c 0.74599,0 1.59438,-0.7875 1.88531,-1.75 C 268.85577,521.72291 271,502.44052 271,499.81672 c 0,-1.70605 10.83706,8.21762 14.41962,13.20429 6.87226,9.56568 16.56578,18.84715 22.94617,21.97078 19.37861,9.48714 35.70568,3.40284 53.64743,-19.99179 5.17902,-6.75303 14.8411,-16.47901 15.60845,-15.71166 0.16632,0.16632 0.77602,5.32471 1.35489,11.46309 1.18734,12.59073 1.62061,14.24857 3.7238,14.24857 0.81751,0 5.76812,-4.50314 11.00135,-10.00697 17.06797,-17.95051 41.55056,-37.48244 54.35225,-43.3616 12.17325,-5.59054 20.93425,-7.05415 36.36072,-6.07442 7.19693,0.45707 20.73532,0.84662 30.08532,0.86567 16.95751,0.0345 17.03749,0.0241 32,-4.15692 8.25,-2.30535 21.06021,-6.21053 28.46714,-8.67818 7.40693,-2.46764 13.6317,-4.32207 13.83282,-4.12095 1.01363,1.01363 -16.56518,18.93033 -21.13951,21.54584 -8.66386,4.95381 -12.89639,5.42389 -36.84679,4.09233 -19.13082,-1.06361 -21.87694,-1.01572 -26.81366,0.46755 -11.43588,3.436 -23.61491,11.36441 -46,29.94546 -19.16729,15.91008 -43.64355,41.45675 -81.42141,84.98219 -7.63795,8.8 -14.99303,17.125 -16.34462,18.5 l -2.45743,2.5 1.26852,-2.5 c 0.69769,-1.375 4.03647,-6.775 7.41952,-12 16.05384,-24.79464 30.65264,-48.17813 31.54665,-50.52953 0.54382,-1.43037 0.98877,-5.29183 0.98877,-8.58102 0,-5.01618 -0.39573,-6.37609 -2.45455,-8.4349 -2.98514,-2.98514 -5.01858,-3.07312 -9.3927,-0.40637 -2.92456,1.78301 -3.25019,2.38237 -2.57863,4.74626 1.84559,6.4965 -1.64134,18.9482 -7.98071,28.49886 -5.79997,8.73803 -24.29904,23.48333 -38.45684,30.6533 -5.61208,2.84214 -13.26773,4.03602 -18.43529,2.87495 -10.63962,-2.39057 -32.73797,-16.61048 -42.62502,-27.42848 -8.6945,-9.51318 -15.60966,-27.2769 -13.03665,-33.48869 1.47866,-3.56982 0.3387,-5.29439 -4.57063,-6.91462 -6.23423,-2.05748 -9.75469,1.79808 -9.75469,10.68322 0,4.55932 0.77652,6.65766 5.7541,15.54881 3.16475,5.65301 9.91036,16.57821 14.99024,24.27821 16.5737,25.12215 21.14549,32.5 20.13908,32.5 -0.25996,0 -12.04423,-13.3875 -26.18726,-29.75 z m 51.28143,-70.61415 c -5.37764,-1.51683 -10.25801,-5.72727 -14.7478,-12.7234 C 299.32484,495.3893 298,493.07465 298,492.76879 c 0,-0.30586 2.8263,-1.68755 6.28066,-3.07043 5.62364,-2.2513 7.68971,-2.51398 19.75,-2.511 10.74208,0.003 14.68422,0.40493 19.46934,1.98679 3.3,1.0909 6.32996,2.30047 6.73326,2.68791 0.40329,0.38745 -0.94798,3.59602 -3.00281,7.13015 -4.99925,8.59827 -10.25163,11.92367 -19.82002,12.54854 -4.17517,0.27267 -8.81356,-0.0855 -11.71855,-0.9049 z M 373,482.10458 c 0,-2.38376 6.10684,-16.89966 9.43459,-22.42594 2.82279,-4.68771 7.38298,-10.68127 13.83117,-18.17864 0.47303,-0.55 0.40048,0.21753 -0.16123,1.70563 -0.56171,1.4881 -1.47541,7.13089 -2.03044,12.53954 -0.93795,9.1401 -3.83951,20.86021 -5.98589,24.17847 -0.64789,1.00163 -0.87156,0.40875 -0.75453,-2 0.26187,-5.39011 -3.10168,-5.15617 -9.30603,0.64727 -2.7652,2.58653 -5.02764,4.17668 -5.02764,3.53367 z m -99,-1.09831 c 0,-1.68981 -8.30164,-7.10757 -10.41736,-6.79852 -1.16652,0.1704 -2.26291,1.33458 -2.62968,2.79225 -1.00385,3.98964 -4.82307,-9.52231 -6.03803,-21.36184 -0.56107,-5.46751 -1.70863,-11.27233 -2.55013,-12.8996 -2.53767,-4.90731 -0.006,-2.30108 7.85714,8.0875 4.59369,6.06931 8.72471,12.89213 10.75559,17.76401 C 275.09332,478.46339 276.13576,482 274.93019,482 274.41859,482 274,481.55282 274,481.00627 Z m 47.32673,-4.36961 c -1.5547,-1.29984 -4.73923,-3.33399 -7.07673,-4.52033 -2.3375,-1.18634 -4.25,-2.59783 -4.25,-3.13665 0,-1.73194 3.29225,-1.04802 6.94625,1.44297 5.50663,3.75397 10.47128,3.77979 14.87138,0.0774 2.78698,-2.34509 7.18361,-3.41649 7.18135,-1.75 -5.6e-4,0.4125 -2.15641,1.96054 -4.79078,3.44008 -2.63438,1.47955 -5.62866,3.61705 -6.65397,4.75 -2.35276,2.59976 -2.77999,2.57895 -6.2275,-0.30342 z m -54.67174,-60.4654 C 265.74474,415.16545 265,413.1849 265,411.77004 c 0,-1.88674 -0.94606,-3.13068 -3.54902,-4.66646 -3.28068,-1.93565 -7.33871,-8.54918 -6.04163,-9.84627 0.28959,-0.28958 1.77845,-0.0198 3.30859,0.59956 1.66305,0.67315 7.60874,1.02736 14.78206,0.88064 15.62445,-0.31958 16.04475,-1.74199 2.03076,-6.87262 l -9.96924,-3.64981 3.96924,-1.10196 c 2.18308,-0.60608 4.55885,-1.10448 5.27948,-1.10754 1.6314,-0.007 21.38115,8.04424 28.1637,11.48121 5.82712,2.95283 6.69593,5.04906 1.70455,4.11267 -5.04389,-0.94624 -5.17827,0.40286 -0.45861,4.60407 3.43717,3.0596 3.75108,3.58579 1.59389,2.67175 -1.47743,-0.62601 -3.43868,-0.84946 -4.35834,-0.49655 -1.52686,0.58591 -1.53692,0.84796 -0.11581,3.01684 2.68155,4.09256 0.51218,3.77668 -3.43638,-0.50038 -2.07736,-2.25018 -4.23283,-3.80952 -4.78995,-3.46521 -0.55712,0.34432 -1.50135,-0.28657 -2.0983,-1.40197 -1.39574,-2.60797 -3.64294,-2.5917 -5.04955,0.0366 -0.76262,1.42497 -1.47056,1.76479 -2.28518,1.09692 -0.64914,-0.5322 -3.43026,-0.89876 -6.18026,-0.81457 l -5,0.15308 0,4.47047 c 0,3.76455 0.39476,4.67018 2.5,5.73526 2.37169,1.19987 2.26417,1.26554 -2.09501,1.27953 -3.19547,0.0103 -5.09909,-0.54226 -6.25,-1.814 z M 374,416.71187 c 1.94945,-0.98147 2.56596,-2.15342 2.79951,-5.32173 0.355,-4.81598 -1.77452,-7.48569 -4.29951,-5.39014 -1.19756,0.99389 -1.80622,0.99075 -3.01876,-0.0156 -1.24079,-1.02977 -1.8668,-0.94548 -3.42041,0.46052 -1.80708,1.63539 -1.9571,1.61738 -3.01643,-0.36199 -1.27608,-2.38438 -3.84853,-2.75696 -4.64814,-0.67321 -0.29754,0.77537 -1.62466,1.68174 -2.94915,2.01417 -1.3245,0.33243 -3.40157,1.94804 -4.61571,3.59025 -2.81063,3.80159 -5.67729,4.20645 -3.21899,0.45462 2.17038,-3.31242 1.23347,-4.05839 -3.36326,-2.67783 l -3.74915,1.126 3.3337,-3.01917 c 3.79492,-3.43688 3.67278,-5.90843 -0.25488,-5.15761 C 342.06273,402.03 341,401.77678 341,401.12572 c 0,-1.26011 17.32593,-9.77425 26.81158,-13.17549 5.90905,-2.11878 6.61059,-2.17009 11,-0.80441 l 4.68842,1.45871 -10,3.44773 c -13.92673,4.80157 -13.47843,6.13697 2.23049,6.64413 7.96619,0.25719 12.97205,-0.002 14.35736,-0.74341 5.62692,-3.01143 3.18691,5.77233 -2.54251,9.15277 -2.9008,1.71151 -3.54534,2.68096 -3.54534,5.33251 0,3.79157 -2.82168,5.57079 -8.79705,5.547 -3.63592,-0.0145 -3.65769,-0.0375 -1.20295,-1.27339 z M 235.29877,398.22237 C 232.4627,392.32507 229.70061,385.925 229.16078,384 c -1.03191,-3.67976 -1.07776,-4.05828 -4.24023,-35 -5.67325,-55.50751 -11.57234,-74.84037 -37.63022,-123.3241 -10.97743,-20.42479 -14.65567,-30.18038 -16.89512,-44.81 -2.71721,-17.75067 -0.82117,-31.46172 6.2043,-44.8659 7.60241,-14.50495 16.18529,-21.32618 40.90049,-32.5056 36.72421,-16.611453 46.062,-22.749419 51.39399,-33.78256 7.84139,-16.22568 -1.17425,-38.322458 -20.95488,-51.359118 -4.30427,-2.83678 -4.31297,-2.854532 -1.55638,-3.176613 6.7712,-0.791152 23.75074,6.831847 31.49223,14.138502 4.51018,4.25684 9.31551,11.855505 12.13268,19.185389 1.81765,4.72925 2.32578,8.117917 2.3992,16 0.10906,11.70653 -1.49437,17.870274 -7.12603,27.393201 -4.66948,7.895907 -21.4819,25.203509 -34.65374,35.674419 -10.35585,8.23235 -17.5162,16.20204 -22.28317,24.80186 -2.56585,4.62891 -2.8439,6.05977 -2.8439,14.63493 0,9.36232 0.0716,9.64636 4.79152,19 2.63534,5.22257 7.81034,13.73285 11.5,18.91172 C 248.98147,215.00805 265.96754,233 268.30531,233 c 0.77981,0 5.32502,-1.83096 10.10045,-4.06881 4.77544,-2.23784 13.05023,-5.25078 18.38843,-6.69542 8.78982,-2.37872 11.40456,-2.62661 27.70581,-2.62661 16.30125,0 18.91599,0.24789 27.70581,2.62661 5.3382,1.44464 13.62642,4.46387 18.41827,6.7094 4.79184,2.24554 9.47578,3.84052 10.40873,3.54442 2.34279,-0.74358 14.78553,-13.13376 21.35557,-21.26538 7.16248,-8.86485 15.99069,-23.01663 18.75753,-30.06863 3.12187,-7.95687 3.20869,-21.91803 0.17199,-27.65558 -4.32127,-8.16462 -10.92738,-15.72125 -21.1885,-24.23719 C 385.80161,117.37185 369.00327,100.67787 364.64614,94 351.41412,73.720196 353.81759,46.727761 370.29081,30.606915 c 9.04379,-8.850331 24.73484,-16.34496 32.29328,-15.424468 2.4025,0.292584 2.102,0.687692 -3.82171,5.025011 -12.00969,8.793445 -17.35209,16.126121 -20.39075,27.987169 -1.91467,7.473668 -1.19741,16.266395 1.80738,22.156267 1.1219,2.199103 4.39978,6.358331 7.28418,9.242728 5.74292,5.742923 17.27703,11.971155 45.29544,24.458788 8.53398,3.80355 17.69204,8.31169 20.35125,10.0181 11.26746,7.23031 21.01771,21.6565 24.30238,35.95712 5.08527,22.13994 1.65684,41.96534 -11.75454,67.97237 -30.06072,58.29304 -32.6702,65.43248 -38.56051,105.5 -1.13197,7.7 -2.74778,21.65 -3.59067,31 -2.52672,28.02806 -2.89103,29.69231 -9.23936,42.20775 -3.12676,6.16426 -5.90708,10.98568 -6.1785,10.71427 -0.27141,-0.27141 -1.65097,-5.08587 -3.0657,-10.69879 -2.0029,-7.94653 -2.98292,-10.28442 -4.42777,-10.56267 -1.02056,-0.19654 -2.22251,0.2364 -2.67101,0.96209 -1.75257,2.83571 -2.20722,-0.44002 -0.88563,-6.38095 2.27184,-10.21264 1.68061,-18.96256 -1.94752,-28.82205 C 390.1408,338.46727 378.97691,316.50202 371.24401,305 358.22695,285.63823 338.0623,263.69182 328.30559,258.26751 l -4.01558,-2.23248 -4.895,3.18294 c -2.69226,1.75062 -10.56005,8.83024 -17.48398,15.73249 -15.01041,14.96338 -27.17468,32.44718 -37.95262,54.54954 -12.64013,25.92115 -16.02812,39.38237 -12.45841,49.5 1.47142,4.17044 2.00075,9 0.98643,9 -0.28246,0 -1.39623,-0.55123 -2.47504,-1.22496 -2.90971,-1.81714 -3.7171,-0.40741 -6.16215,10.75931 -1.20013,5.48111 -2.45475,10.29072 -2.78802,10.68802 -0.33328,0.39731 -2.92638,-4.10269 -5.76245,-10 z M 313.5,357.08625 c -16.41607,-10.58463 -40.61839,-24.30541 -43.12226,-24.44686 -3.32578,-0.1879 -2.82314,-1.85968 4.52301,-15.04346 11.08589,-19.89534 26.36452,-38.3971 41.95449,-50.80507 l 7.35524,-5.854 2.86625,1.81479 c 5.39394,3.41519 18.72888,16.20656 26.28953,25.21789 8.84793,10.54559 15.35512,19.99793 22.48896,32.66746 5.17682,9.19391 6.3214,12.75174 3.78978,11.78027 -1.87545,-0.71968 -12.84169,5.22422 -34.92238,18.92857 -10.32757,6.40979 -19.55257,11.62923 -20.5,11.59876 -0.94744,-0.0305 -5.77262,-2.66673 -10.72262,-5.85835 z"
           id="path4142"
           inkscape:connector-curvature="0" />
        <path
           style="fill:#131416"
           d="m 369.68591,607.75 c 1.11899,-1.2375 10.74183,-12.6 21.38408,-25.25 25.72266,-30.57545 54.15082,-59.42317 79.14775,-80.31588 4.25835,-3.55918 26.46752,-3.04858 38.71152,0.89001 18.03996,5.80299 30.12445,15.92172 39.40621,32.99605 3.04106,5.59423 8.17855,19.76426 7.429,20.49044 -0.14546,0.14092 -1.38947,-1.23269 -2.76447,-3.05248 -3.70976,-4.90979 -7.83916,-7.34208 -18.18631,-10.71203 -7.41246,-2.41415 -11.66122,-3.13595 -20.81369,-3.53593 -42.7658,-1.86891 -90.63838,19.94655 -135.24676,61.63176 -9.10641,8.50968 -13.70768,11.98984 -9.06733,6.85806 z M 270.5,601.32939 c -12.87493,-12.1941 -23.36248,-20.72004 -35.28843,-28.68804 -20.13636,-13.45354 -48.66469,-26.5389 -67.04075,-30.7502 -19.18756,-4.39728 -47.34533,-3.16109 -60.00671,2.63444 -6.53738,2.99237 -12.834258,7.85978 -13.701026,10.59072 -0.355133,1.11893 -0.836121,1.84399 -1.068863,1.61124 -0.232742,-0.23274 0.521836,-3.52915 1.67684,-7.32536 2.517144,-8.27321 8.757269,-20.25155 13.691439,-26.28162 6.66519,-8.14556 20.64115,-17.05671 32.2375,-20.5548 7.43644,-2.24324 22.46295,-3.44496 30.0692,-2.40474 5.52226,0.75522 7.01868,1.49777 13.29061,6.595 10.60092,8.61544 49.49791,47.75764 63.8415,64.24397 15.84437,18.21131 32.04811,38.01476 31.05434,37.95317 -0.41561,-0.0258 -4.35565,-3.45646 -8.75565,-7.62378 z M 262.89024,578.25 C 221.76644,530.59886 178.49841,490.36365 157,479.782 c -12.93654,-6.36745 -16.94085,-6.99121 -36.4857,-5.68349 -31.259625,2.09155 -37.466023,0.29787 -51.144949,-14.78111 -4.60781,-5.07943 -7.040428,-8.41444 -5.869351,-8.04662 1.1,0.3455 7.85,2.47768 15,4.73819 28.25435,8.93274 38.04557,11.13374 52,11.68926 8.67171,0.34521 17.32829,-0.003 26,-1.04669 22.75033,-2.73741 37.2391,0.53681 54.88816,12.40378 15.42596,10.3722 25.83776,19.0616 40.31395,33.64489 C 258.96326,520.0151 265.6119,526 266.47686,526 c 2.27133,0 3.44097,-3.9348 4.10578,-13.81236 0.3216,-4.7782 0.76788,-9.27604 0.99174,-9.99519 0.5682,-1.82534 8.66767,5.06215 12.98032,11.038 7.11887,9.86428 17.44138,19.6423 24.30127,23.01941 5.96949,2.93877 7.46621,3.25014 15.623,3.25014 7.72746,0 9.85348,-0.39003 14.82634,-2.72 6.74623,-3.16085 16.65869,-12.28896 23.78763,-21.90537 5.67331,-7.65288 13.68599,-14.75276 14.32728,-12.69513 0.22635,0.72628 0.67392,5.3705 0.99459,10.3205 0.32068,4.95 0.86101,10.0125 1.20075,11.25 1.21514,4.42616 4.48591,2.67828 13.83721,-7.39452 14.90292,-16.05277 40.46611,-36.82801 53.09951,-43.15404 13.94934,-6.98498 26.28851,-8.74624 45.94772,-6.55848 9.08386,1.01089 18.38941,1.37383 26.5,1.03356 13.47347,-0.56527 22.53969,-2.66815 52.85442,-12.25943 7.89493,-2.49787 14.51392,-4.38208 14.70888,-4.18713 0.19495,0.19496 -3.33954,4.25849 -7.85442,9.03008 -13.689,14.46734 -18.37873,15.74799 -50.93139,13.90814 -19.6766,-1.1121 -22.82417,-0.68751 -34.04583,4.59269 C 487.09644,481.88299 473.53532,491.645 458,504.4824 439.65238,519.64372 416.98214,543.08466 382.06394,583 c -8.42001,9.625 -15.99234,18.175 -16.82739,19 -1.34959,1.33333 -1.42888,1.33333 -0.71361,0 0.44257,-0.825 8.07944,-12.975 16.97083,-27 8.89139,-14.025 16.69268,-27.02965 17.3362,-28.89922 1.41582,-4.1133 1.51868,-11.05355 0.21466,-14.48338 -0.52545,-1.38204 -2.08334,-3.25188 -3.46198,-4.1552 -2.06725,-1.35451 -3.10557,-1.44472 -5.92371,-0.51465 -1.87941,0.62026 -4.20587,1.99932 -5.16991,3.06457 -1.49342,1.65022 -1.57316,2.37055 -0.53884,4.86764 1.54854,3.73849 -0.56861,12.81504 -5.09152,21.82822 -4.38057,8.72951 -15.74279,19.77113 -29.35867,28.53026 -16.83082,10.82732 -23.17738,12.3716 -34.04019,8.28285 -8.77461,-3.30275 -13.76768,-6.18452 -24.70296,-14.25742 -10.37882,-7.66209 -16.22575,-13.91383 -20.48285,-21.90096 -4.31231,-8.09074 -6.82123,-18.35416 -5.44899,-22.29058 2.78616,-7.99238 -10.65206,-11.73759 -14.54056,-4.05242 -1.82023,3.59747 -1.52573,11.85246 0.58892,16.50761 2.59379,5.70992 12.8908,22.53398 24.15889,39.47268 10.87195,16.3432 11.28084,17 10.58324,17 -0.2764,0 -10.50276,-11.5875 -22.72526,-25.75 z m 52.23666,-68.68786 c -2.40521,-0.78311 -5.68617,-2.68184 -7.29104,-4.2194 -2.99768,-2.87196 -9.39142,-12.1934 -8.7145,-12.7049 0.20825,-0.15736 2.73201,-1.27383 5.60835,-2.48105 5.17122,-2.17038 7.24769,-2.32241 29.01528,-2.12434 3.77544,0.0344 16.28826,3.71271 16.18459,4.75773 -0.0387,0.3904 -1.75833,3.40982 -3.82135,6.70982 -4.94448,7.9092 -9.82456,10.69856 -19.51263,11.15308 -4.32077,0.20271 -8.80576,-0.22392 -11.4687,-1.09094 z m 60.28574,-32.3089 c 1.21473,-5.29954 9.58497,-20.80204 14.14534,-26.19858 l 4.60162,-5.44533 -0.63626,7.44533 C 392.76099,461.97542 390.1546,475 389.13179,475 c -0.40248,0 -1.23884,-0.50705 -1.85857,-1.12678 -1.64724,-1.64724 -5.58021,-0.32301 -9.26572,3.11977 l -3.22594,3.01348 0.63108,-2.75323 z M 269.60133,475.86582 C 265.60167,472.92577 262.59227,472.23268 261.5,474 c -0.33992,0.55 -1.00541,1 -1.47886,1 -1.23043,0 -3.79832,-12.10563 -4.56067,-21.5 l -0.64919,-8 2.59458,3 c 5.15582,5.96145 10.41335,14.51404 13.54173,22.02876 1.75519,4.21615 3.04752,7.78659 2.87183,7.9343 -0.17568,0.14772 -2.07382,-1.02104 -4.21809,-2.59724 z m 52.14867,0.0509 C 320.04716,474.05165 320.12543,474 324.65499,474 c 4.59164,0 4.63036,0.0272 2.84501,2 -2.20481,2.43629 -3.46617,2.41801 -5.75,-0.0833 z m -6.39767,-3.90998 C 312.709,470.94017 311.37563,469 313.286,469 c 0.77221,0 2.21851,0.9 3.214,2 1.99883,2.20868 1.94608,2.25495 -1.14767,1.00669 z m 17.2935,-1.01912 c 1.18021,-1.22302 2.75521,-2.0181 3.5,-1.76682 0.8173,0.27573 -0.0334,1.15732 -2.14583,2.22368 l -3.5,1.76682 2.14583,-2.22368 z m -65.95296,-55.77445 c -0.96757,-1.06916 -1.38783,-2.66358 -1.0463,-3.9696 0.45413,-1.73658 -0.17428,-2.62233 -3.07444,-4.33346 -3.30174,-1.94808 -7.35939,-7.45613 -6.28455,-8.53097 0.23927,-0.23928 1.50995,-0.0264 2.82373,0.47301 1.31378,0.49944 7.93041,0.79781 14.70363,0.66305 17.50342,-0.34825 18.33645,-2.11145 3.68506,-7.79983 -8.24286,-3.20027 -8.76103,-3.55663 -6.15941,-4.23592 1.63893,-0.42793 4.59034,-0.21745 6.9768,0.49755 5.62896,1.68647 24.02228,9.79542 26.32158,11.60422 1.69872,1.33634 1.53397,1.40874 -1.88897,0.83014 -3.33427,-0.56362 -3.75,-0.40337 -3.75,1.44546 0,1.24005 1.11001,2.68154 2.75,3.57126 2.54182,1.37896 2.58343,1.49493 0.54969,1.53193 -1.21017,0.022 -2.59397,0.74347 -3.07511,1.60323 -0.79332,1.41758 -0.99565,1.41758 -2.17214,0 C 296.33891,407.70343 294.91021,407 293.87756,407 292.8449,407 292,406.56583 292,406.03518 c 0,-0.53065 -0.98235,-1.49055 -2.183,-2.13312 -1.8499,-0.99003 -2.44921,-0.83953 -3.92769,0.98631 -1.02742,1.2688 -2.00426,1.73466 -2.37603,1.13313 -0.99434,-1.60889 -10.07911,-1.24957 -11.49343,0.45458 -0.71017,0.8557 -1.07382,3.37745 -0.86524,6 0.28891,3.63258 0.0441,4.52392 -1.24242,4.52392 -0.88122,0 -2.32991,-0.80409 -3.21932,-1.78688 z M 377.78421,411.894 c 0.35467,-3.69113 0.10617,-5.34953 -0.89679,-5.98469 -1.92563,-1.21947 -10.63063,-1.13378 -11.4007,0.11224 -0.36911,0.59723 -1.39597,0.0781 -2.47236,-1.25 l -1.84103,-2.2715 -3.04617,2.25 c -1.6754,1.2375 -3.36646,2.25 -3.75793,2.25 -0.39146,0 -1.53468,0.74474 -2.54049,1.65499 -1.70166,1.53998 -1.82874,1.53998 -1.82874,0 C 350,407.53761 349.15191,407 347.38922,407 l -2.61079,0 2.36079,-1.92902 c 2.65455,-2.16905 1.90157,-3.67298 -2.13922,-4.27263 -2.10092,-0.31177 -1.32657,-0.97393 4.85085,-4.14803 9.55031,-4.90717 21.93023,-9.65441 25.12634,-9.63501 1.38755,0.008 3.1852,0.43422 3.99478,0.94621 1.29597,0.81958 1.29597,0.98422 0,1.37691 -13.20262,4.00051 -19.62214,7.34473 -17.73034,9.23653 1.04641,1.04641 25.70823,1.3946 28.32449,0.3999 1.49119,-0.56695 2.90703,-0.83505 3.1463,-0.59577 1.07484,1.07484 -2.98281,6.58289 -6.28455,8.53097 -2.90016,1.71113 -3.52857,2.59688 -3.07444,4.33346 0.65882,2.51932 -1.79395,5.75648 -4.36162,5.75648 -1.43996,0 -1.62361,-0.77652 -1.2076,-5.10605 z M 235.20995,396.24861 C 229.31458,384.26955 229.23719,383.8965 226.03075,352 c -4.07901,-40.57652 -7.91509,-60.03723 -15.66186,-79.4538 -5.90829,-14.80859 -18.12974,-40.15714 -25.17749,-52.22074 -5.00765,-8.57158 -9.53927,-19.60563 -12.37313,-30.12738 -2.93071,-10.8813 -3.16807,-34.22406 -0.42909,-42.19808 4.79757,-13.96725 12.10113,-24.39449 22.06853,-31.50707 3.43752,-2.45297 14.98718,-8.45858 25.66591,-13.34581 C 254.88104,87.240041 259.4706,84.441562 266.53154,74.849951 273.13989,65.873152 274.34324,54.010516 269.81314,42.5 266.86265,35.003099 257.38715,23.71355 249,17.702252 l -2.5,-1.791817 4.5,0.589114 c 2.475,0.324012 8.3072,2.427861 12.96044,4.675218 14.35381,6.932407 23.47935,18.303343 27.05463,33.711583 1.70398,7.343569 0.76017,20.094564 -2.04392,27.61365 -4.47808,12.007842 -18.85281,28.49639 -38.26363,43.89031 -27.88732,22.11629 -32.93625,39.74541 -18.5719,64.84669 8.98648,15.70359 25.53144,35.92198 33.34921,40.75362 l 3.4001,2.10138 4.80754,-2.43265 c 7.65996,-3.87601 21.52245,-8.44743 31.03265,-10.23362 6.68205,-1.25502 12.35242,-1.5301 23.77488,-1.15339 17.5627,0.57922 26.64291,2.61173 41.96517,9.39346 l 9.96518,4.41065 4.01941,-2.82494 c 5.63553,-3.9608 19.61113,-20.05578 26.70216,-30.75151 20.90253,-31.52824 18.33455,-47.89066 -11.40114,-72.64478 C 385.835,116.27074 369.56114,100.1069 365.2677,93.605282 360.29538,86.075616 357.83839,78.521491 357.26478,69 356.32379,53.380011 360.82645,40.875677 370.9639,30.956183 377.89302,24.176038 390.8122,17.321827 398.5,16.347029 l 5,-0.63399 -6,4.479372 c -12.1435,9.06588 -17.58491,16.902769 -20.09507,28.941552 -2.72096,13.049801 0.98564,23.725243 11.4593,33.004101 4.72081,4.18227 29.26589,16.746894 48.63577,24.896646 12.51485,5.26554 19.14051,9.62386 25.57545,16.82338 10.64671,11.91174 15.35946,25.93586 15.33777,45.64191 -0.0213,19.32547 -3.58212,30.24821 -19.46151,59.69725 -16.80207,31.16019 -25.54694,53.30734 -29.38984,74.43233 -3.21832,17.69162 -6.17491,40.35455 -8.02281,61.49671 -0.92987,10.63878 -2.12331,18.38143 -3.31398,21.5 -1.8321,4.79862 -10.18609,20.50916 -10.21186,19.20448 -0.0123,-0.62304 -1.8387,-8.17646 -4.15517,-17.18451 -0.90756,-3.52923 -1.23804,-3.81749 -3.92453,-3.4232 -3.48905,0.51209 -3.5452,0.12307 -1.28237,-8.8853 1.40874,-5.60823 1.47257,-7.54254 0.43471,-13.17517 -2.29579,-12.45972 -14.96538,-40.1703 -26.08783,-57.05861 C 357.40637,282.42965 331.80039,256 324.4555,256 c -3.22647,0 -15.02081,9.65237 -26.67458,21.83021 -16.74256,17.49547 -34.43832,46.91178 -44.31701,73.66979 -4.4946,12.17435 -5.29704,19.1223 -3.08665,26.72579 2.13283,7.33669 2.10357,7.49839 -1.26756,7.00362 -3.30133,-0.48453 -3.67487,0.30954 -6.59535,14.02059 -0.90793,4.2625 -1.73258,7.74948 -1.83256,7.74884 -0.1,-6.3e-4 -2.56231,-4.83823 -5.47184,-10.75023 z m 76.78903,-41.16836 C 292.64339,342.96498 273.15309,332 270.97375,332 269.88819,332 269,331.52773 269,330.95052 c 0,-2.00863 11.53968,-22.05809 17.50986,-30.42226 3.30542,-4.63087 9.31064,-12.0576 13.34493,-16.50384 8.81635,-9.71662 23.65494,-22.42824 25.39465,-21.75457 2.76541,1.07085 19.68104,16.96188 26.25056,24.66054 8.52822,9.994 18.11551,23.8072 24.06404,34.67104 5.03579,9.19691 5.2995,10.39857 2.28206,10.39857 -2.61886,0 -9.91459,4.03066 -31.15104,17.20995 -8.90728,5.52783 -17.54552,10.87033 -19.19608,11.87221 l -3.00103,1.82159 -12.49897,-7.8235 z"
           id="path4140"
           inkscape:connector-curvature="0" />
      </g>
    </g>
  </g>
</svg>
